<svg width="482" height="395" viewBox="0 0 482 395" fill="none" xmlns="http://www.w3.org/2000/svg">
<g clip-path="url(#clip0)">
<path opacity="0.2" d="M436.359 142.039H408.54V155.591H436.359V142.039Z" fill="#6C63FF"/>
<path opacity="0.2" d="M438.499 158.602H410.68V172.154H438.499V158.602Z" fill="#6C63FF"/>
<path opacity="0.2" d="M415.495 43.6658H387.675V57.2173H415.495V43.6658Z" fill="#6C63FF"/>
<path opacity="0.2" d="M435.289 59.2249H407.47V72.7764H435.289V59.2249Z" fill="#6C63FF"/>
<path opacity="0.2" d="M381.79 44.6696H353.97V58.2211H381.79V44.6696Z" fill="#6C63FF"/>
<path opacity="0.2" d="M471.134 74.784H443.314V88.3355H471.134V74.784Z" fill="#6C63FF"/>
<path opacity="0.2" d="M437.429 75.7878H409.61V89.3393H437.429V75.7878Z" fill="#6C63FF"/>
<path opacity="0.2" d="M401.585 60.2287H373.765V73.7802H401.585V60.2287Z" fill="#6C63FF"/>
<path opacity="0.2" d="M469.529 179.18H441.709V192.732H469.529V179.18Z" fill="#6C63FF"/>
<path opacity="0.2" d="M435.824 180.184H408.005V193.736H435.824V180.184Z" fill="#6C63FF"/>
<path d="M69.9508 138.526C69.9508 138.526 109.161 175.311 87.0279 229.873C64.8951 284.435 124.965 375.245 124.965 375.245C124.965 375.245 124.323 375.155 123.129 374.959C42.6018 361.623 2.58939 275.22 47.39 211.051C64.0177 187.166 77.6815 159.174 69.9508 138.526Z" fill="#6C63FF"/>
<path d="M69.9508 138.526C69.9508 138.526 92.0837 183.617 69.9508 220.397C47.818 257.177 66.1577 360.429 124.97 375.245" stroke="#535461" stroke-width="2" stroke-miterlimit="10"/>
<path d="M0.112366 287.301C0.112366 287.301 44.8542 280.616 48.9308 318.233C53.0075 355.851 134.969 361.066 134.969 361.066C134.969 361.066 134.434 361.407 133.434 362.025C65.7618 403.683 1.07536 388.571 10.8284 333.235C14.4503 312.662 14.1507 291.999 0.112366 287.301Z" fill="#6C63FF"/>
<path opacity="0.2" d="M0.112366 287.301C0.112366 287.301 44.8542 280.616 48.9308 318.233C53.0075 355.851 134.969 361.066 134.969 361.066C134.969 361.066 134.434 361.407 133.434 362.025C65.7618 403.683 1.07536 388.571 10.8284 333.235C14.4503 312.662 14.1507 291.999 0.112366 287.301Z" fill="#F5F5F5"/>
<path d="M0.112366 287.301C0.112366 287.301 34.839 294.453 31.9875 324.076C29.1359 353.698 83.5612 389.228 134.969 361.066" stroke="#535461" stroke-width="2" stroke-miterlimit="10"/>
<path opacity="0.2" d="M28.1569 142.541H0.337036V156.093H28.1569V142.541Z" fill="#6C63FF"/>
<path opacity="0.2" d="M47.9518 158.1H20.132V171.652H47.9518V158.1Z" fill="#6C63FF"/>
<path opacity="0.2" d="M198.286 0H170.466V13.5515H198.286V0Z" fill="#6C63FF"/>
<path opacity="0.2" d="M417.635 249.949H389.815V263.501H417.635V249.949Z" fill="#6C63FF"/>
<path opacity="0.2" d="M50.0917 174.663H22.2719V188.215H50.0917V174.663Z" fill="#6C63FF"/>
<path opacity="0.2" d="M218.081 15.5591H190.261V29.1105H218.081V15.5591Z" fill="#6C63FF"/>
<path opacity="0.2" d="M116.431 107.408H88.6116V120.959H116.431V107.408Z" fill="#6C63FF"/>
<path opacity="0.2" d="M136.226 122.967H108.406V136.518H136.226V122.967Z" fill="#6C63FF"/>
<path opacity="0.2" d="M189.191 114.435H161.371V127.986H189.191V114.435Z" fill="#6C63FF"/>
<path opacity="0.2" d="M138.366 139.53H110.546V153.081H138.366V139.53Z" fill="#6C63FF"/>
<path opacity="0.2" d="M455.084 249.949H427.264V263.501H455.084V249.949Z" fill="#6C63FF"/>
<path d="M385.545 196.3C383.744 186.896 382.639 177.385 382.239 167.837C381.884 159.974 378.944 152.407 373.823 146.172C368.703 139.938 361.652 135.342 353.638 133.015C350.717 132.172 347.502 131.384 343.949 130.676C312.813 124.473 303.354 129.888 302.279 130.601C301.368 129.048 300.576 127.436 299.909 125.778C299.855 125.607 299.807 125.436 299.753 125.276C305.916 119.111 309.67 111.169 310.405 102.745C315.6 97.8064 318.633 91.8438 318.633 85.4244C318.633 79.9034 316.386 74.7237 312.454 70.2417V61.5186C312.454 51.4592 308.195 41.8118 300.613 34.6987C293.031 27.5857 282.747 23.5896 272.024 23.5896H268.745C263.436 23.5896 258.178 24.5706 253.273 26.4767C248.368 28.3829 243.911 31.1767 240.157 34.6987C236.403 38.2208 233.425 42.402 231.393 47.0038C229.361 51.6056 228.315 56.5377 228.315 61.5186V70.9193C224.747 75.2407 222.725 80.1744 222.725 85.4143C222.725 91.6982 225.635 97.5404 230.632 102.419C231.315 111.151 235.241 119.382 241.728 125.677C241.947 127.103 242.172 128.633 242.391 130.25L186.698 141.287C186.698 141.287 165.223 142.115 151.388 168.891C139.688 191.572 116.405 249.844 109.509 267.19C108.262 270.332 107.556 272.133 107.556 272.133C107.556 272.133 107.786 271.918 108.219 271.546L107.556 273.238C107.556 273.238 107.893 272.916 108.535 272.389C107.561 279.647 107.422 292.109 117.555 293.66C126.051 294.96 147.943 295.497 164.479 295.713H165.624C176.586 295.848 184.927 295.848 184.927 295.848V295.713H362.781V294.001C362.783 292.449 362.45 290.913 361.802 289.484L362.048 289.203C363 290.382 363.633 291.76 363.894 293.218C363.874 293.36 363.845 293.501 363.809 293.64L363.916 293.384C363.957 293.84 363.921 294.299 363.809 294.744C363.809 294.744 386.626 239.59 386.38 206.655C386.446 203.186 386.166 199.72 385.545 196.3ZM243.317 137.703C243.022 136.13 242.832 134.54 242.749 132.945C242.749 132.945 242.749 132.915 242.749 132.9C242.947 134.451 243.14 136.057 243.317 137.703ZM174.184 256.173V269.318L165.41 271.079L174.184 256.173Z" fill="url(#paint0_linear)"/>
<path d="M269.483 28.8947C280.206 28.8947 290.489 32.8908 298.071 40.0039C305.653 47.1169 309.913 56.7643 309.913 66.8237V83.0052H229.053V66.8237C229.053 56.7643 233.313 47.1169 240.895 40.0039C248.477 32.8908 258.761 28.8947 269.483 28.8947Z" fill="#E14B5A"/>
<path d="M269.767 118.018C295.219 118.018 315.851 104.718 315.851 88.3104C315.851 71.9032 295.219 58.6025 269.767 58.6025C244.315 58.6025 223.682 71.9032 223.682 88.3104C223.682 104.718 244.315 118.018 269.767 118.018Z" fill="#E14B5A"/>
<path d="M240.224 117.09C240.224 117.09 249.854 164.304 240.224 177.037C230.594 189.771 269.649 194.81 269.649 194.81L310.073 181.017L315.728 147.063C315.728 147.063 291.118 134.064 296.217 107.804L240.224 117.09Z" fill="#F7C4A7"/>
<path d="M359.539 276.244C359.539 276.244 362.086 286.588 348.229 288.445C340.048 289.574 331.727 289.481 323.577 288.169L320.522 262.186H352.756L359.539 276.244Z" fill="#F7C4A7"/>
<path d="M114.864 263.004C114.864 263.004 108.743 286.337 122.6 288.445C136.456 290.553 187.335 290.568 187.335 290.568V262.964L164.298 267.581L142.673 248.127L114.864 263.004Z" fill="#F7C4A7"/>
<path opacity="0.1" d="M243.199 132.343L189.052 143.083C189.052 143.083 168.412 143.881 155.122 169.609C141.833 195.337 112.991 268.816 112.991 268.816C112.991 268.816 137.601 245.472 166.432 270.407L185.66 237.783L181.417 289.509H330.403V265.102C330.403 265.102 361.503 280.751 359.245 289.504C359.245 289.504 385.861 225.17 380.11 195.934C378.379 186.896 377.317 177.756 376.932 168.58C376.592 161.023 373.768 153.749 368.846 147.758C363.925 141.767 357.147 137.352 349.444 135.118C346.64 134.31 343.559 133.552 340.135 132.875C308.185 126.51 300.01 132.875 300.01 132.875C300.01 132.875 293.82 151.766 293.933 160.329C294.072 171.336 277.251 178.633 277.251 178.633C277.251 178.633 252.369 173.062 251.24 168.555C250.111 164.048 241.209 137.648 243.199 132.343Z" fill="black"/>
<path d="M243.199 131.284L189.052 142.024C189.052 142.024 168.412 142.822 155.122 168.55C141.833 194.278 112.986 267.767 112.986 267.767C112.986 267.767 137.596 244.423 166.427 269.358L185.655 236.734L181.412 288.445H330.403V264.043C330.403 264.043 361.503 279.692 359.245 288.445C359.245 288.445 385.861 224.111 380.11 194.875C378.379 185.837 377.317 176.697 376.932 167.521C376.592 159.964 373.768 152.69 368.846 146.699C363.925 140.708 357.147 136.293 349.444 134.059C346.641 133.251 343.559 132.493 340.135 131.816C308.185 125.451 300.01 131.816 300.01 131.816C300.01 131.816 293.82 150.707 293.933 159.27C294.072 170.277 277.251 177.574 277.251 177.574C277.251 177.574 252.369 172.003 251.24 167.496C250.111 162.989 241.209 136.589 243.199 131.284Z" fill="#2AAE6B" fill-opacity="0.97"/>
<path opacity="0.1" d="M298.528 129.03C296.254 122.989 295.744 116.487 297.052 110.198L241.059 119.479C241.059 119.479 241.867 123.449 242.782 129.396C246.399 132.918 250.743 135.713 255.548 137.611C260.353 139.508 265.52 140.469 270.733 140.435C275.947 140.401 281.098 139.372 285.875 137.411C290.651 135.451 294.953 132.599 298.518 129.03H298.528Z" fill="black"/>
<path d="M308.078 101.972C308.034 111.438 304.027 120.507 296.92 127.226C289.813 133.945 280.177 137.775 270.088 137.89C259.999 138.004 250.267 134.395 242.989 127.839C235.711 121.283 231.471 112.307 231.183 102.846C231.183 102.554 231.183 102.263 231.183 101.972C231.181 95.2175 233.2 88.598 237.011 82.8669C240.822 77.1358 246.271 72.5232 252.738 69.5541C253.89 69.0255 255.074 68.5503 256.29 68.1287C262.616 65.9472 269.439 65.352 276.085 66.4022C284.603 67.7628 292.383 71.777 298.169 77.7966C303.956 83.8162 307.411 91.4897 307.976 99.5781C308.044 100.371 308.078 101.169 308.078 101.972Z" fill="#F7C4A7"/>
<g opacity="0.1">
<path opacity="0.1" d="M256.231 68.977L256.285 68.9468C255.069 69.3684 253.885 69.8436 252.732 70.3723C246.265 73.3414 240.816 77.9539 237.006 83.685C233.195 89.4161 231.176 96.0357 231.177 102.79C231.177 103.081 231.177 103.373 231.177 103.664C232.373 103.633 233.549 103.368 234.628 102.886C244.001 98.7801 249.608 86.2224 251.834 77.4642C252.636 74.3273 253.391 70.7939 256.231 68.977Z" fill="black"/>
<path opacity="0.1" d="M285.662 69.9858C282.618 68.6741 279.404 67.7442 276.101 67.2203C278.81 67.8049 281.228 69.2304 282.965 71.2656C283.816 72.3517 284.523 73.5317 285.068 74.779C279.95 72.6799 274.408 71.6488 268.824 71.7571C263.24 71.8654 257.748 73.1106 252.727 75.4064C255.14 80.3702 262.625 83.0755 267.621 84.8874C273.093 86.8682 278.621 88.6801 284.206 90.323L279.263 86.5587L290.428 88.225C290.549 86.1404 290.284 84.0519 289.647 82.0516C291.787 83.6677 294.623 84.2098 296.945 85.5649C301.294 88.1397 303.108 93.0935 305.478 97.3848C306.104 98.5191 306.842 99.6785 307.971 100.396C307.515 93.9128 305.201 87.6651 301.274 82.3126C297.348 76.9601 291.954 72.7014 285.662 69.9858Z" fill="black"/>
</g>
<path d="M256.231 68.1588L256.285 68.1287C255.069 68.5503 253.885 69.0255 252.732 69.5541C246.265 72.5232 240.816 77.1358 237.006 82.8669C233.195 88.598 231.176 95.2175 231.177 101.972C231.177 102.263 231.177 102.554 231.177 102.846C232.373 102.815 233.549 102.55 234.628 102.068C244.001 97.962 249.608 85.4043 251.834 76.6461C252.636 73.5292 253.391 69.9808 256.231 68.1588Z" fill="#632652"/>
<path d="M285.661 69.1727C282.618 67.861 279.403 66.9311 276.101 66.4072C278.809 66.9918 281.228 68.4173 282.965 70.4525C283.816 71.5386 284.522 72.7185 285.068 73.9659C279.95 71.8667 274.408 70.8357 268.824 70.944C263.24 71.0523 257.748 72.2975 252.727 74.5933C255.14 79.5571 262.625 82.2624 267.621 84.0743C273.093 86.0551 278.621 87.867 284.206 89.5099L279.263 85.7456L290.428 87.4119C290.548 85.3273 290.284 83.2388 289.647 81.2385C291.787 82.8546 294.623 83.3967 296.945 84.7518C301.294 87.3266 303.108 92.2804 305.478 96.5717C306.104 97.706 306.842 98.8654 307.971 99.5832C307.514 93.0997 305.201 86.852 301.274 81.4995C297.348 76.147 291.954 71.8883 285.661 69.1727Z" fill="#632652"/>
<path opacity="0.1" d="M226.791 96.0247C226.791 96.0247 266.38 49.8493 312.181 96.0247L308.222 85.6804C308.222 85.6804 286.732 56.2386 271.468 62.5927C256.205 68.9468 241.214 73.469 241.214 73.469L226.791 96.0247Z" fill="black"/>
<path d="M226.791 95.2066C226.791 95.2066 266.38 49.0312 312.181 95.2066L308.222 84.8623C308.222 84.8623 286.732 55.4205 271.468 61.7746C256.205 68.1287 241.214 72.6509 241.214 72.6509L226.791 95.2066Z" fill="#E14B5A"/>
<path opacity="0.1" d="M194.273 194.679C194.273 194.679 185.794 215.9 197.665 234.997C209.537 254.095 187.206 262.055 187.206 262.055" fill="black"/>
<path opacity="0.1" d="M331.687 175.582C331.687 175.582 346.389 193.088 336.775 208.738C327.161 224.387 327.728 262.055 327.728 262.055" fill="black"/>
<path d="M181.268 277.705H344.693C348.293 277.705 351.745 279.046 354.291 281.434C356.836 283.822 358.266 287.061 358.266 290.438H167.7C167.7 287.062 169.129 283.824 171.674 281.436C174.218 279.048 177.669 277.706 181.268 277.705Z" fill="#535461"/>
<path d="M197.895 190.167H328.071C330.811 190.167 333.524 190.673 336.055 191.657C338.587 192.641 340.887 194.083 342.824 195.9C344.762 197.718 346.299 199.876 347.347 202.251C348.396 204.626 348.936 207.171 348.936 209.741V280.621H177.03V209.741C177.03 204.55 179.229 199.571 183.142 195.9C187.055 192.229 192.362 190.167 197.895 190.167Z" fill="#535461"/>
<path d="M262.839 248.925C268.461 248.925 273.02 244.649 273.02 239.374C273.02 234.099 268.461 229.823 262.839 229.823C257.216 229.823 252.658 234.099 252.658 239.374C252.658 244.649 257.216 248.925 262.839 248.925Z" fill="white"/>
<path opacity="0.1" d="M229.053 74.3825C229.053 74.3825 267.958 37.904 309.918 73.7149" stroke="black" stroke-miterlimit="10"/>
<path d="M319.746 72.0587H315.841V92.8325H319.746V72.0587Z" fill="#6A5C99"/>
<path d="M310.63 85.4997C314.2 85.4997 317.623 86.8301 320.148 89.1983C322.672 91.5665 324.09 94.7785 324.09 98.1276V98.9407C324.09 102.29 322.672 105.502 320.148 107.87C317.623 110.238 314.2 111.569 310.63 111.569V85.4997Z" fill="#FFD037"/>
<path d="M314.102 87.1309C314.102 85.5564 312.741 84.2801 311.063 84.2801C309.385 84.2801 308.024 85.5564 308.024 87.1309V109.943C308.024 111.517 309.385 112.793 311.063 112.793C312.741 112.793 314.102 111.517 314.102 109.943V87.1309Z" fill="#6A5C99"/>
<path d="M218.824 93.2391H222.73V72.4652H218.824V93.2391Z" fill="#6A5C99"/>
<path d="M227.941 111.975C224.371 111.975 220.947 110.645 218.423 108.277C215.898 105.908 214.48 102.696 214.48 99.3473V98.5342C214.48 96.8759 214.828 95.2338 215.505 93.7017C216.181 92.1696 217.173 90.7775 218.423 89.6049C219.673 88.4323 221.157 87.5021 222.79 86.8675C224.423 86.2329 226.173 85.9062 227.941 85.9062V111.975Z" fill="#FFD037"/>
<path d="M224.469 110.344C224.469 111.919 225.829 113.195 227.507 113.195C229.186 113.195 230.546 111.919 230.546 110.344V87.5324C230.546 85.958 229.186 84.6816 227.507 84.6816C225.829 84.6816 224.469 85.958 224.469 87.5324V110.344Z" fill="#6A5C99"/>
<path d="M315.381 49.8543C310.089 39.5351 298.566 27.0577 273.726 26.059V26.0288H273.426L264.625 26.4203V26.4605C239.951 27.5245 228.481 39.9567 223.206 50.2408C219.693 57.2125 217.828 64.8143 217.738 72.5254L220.777 72.4551L223.816 72.3899C223.947 65.5248 225.63 58.764 228.754 52.5546C235.452 39.6456 247.778 32.7845 265.385 32.1471L273.169 31.7405C290.787 32.3729 303.118 39.244 309.811 52.148C312.94 58.3597 314.627 65.1241 314.76 71.9934L317.799 72.0586L320.837 72.1289C320.75 64.422 318.889 56.8237 315.381 49.8543Z" fill="#FFD037"/>
<path d="M454.207 290.604H39.7396V395H454.207V290.604Z" fill="#D6D6E3"/>
<path opacity="0.1" d="M454.207 297.63H39.7396V311.182H454.207V297.63Z" fill="black"/>
<path d="M482 289.098H11.9358V302.649H482V289.098Z" fill="#D6D6E3"/>
</g>
<defs>
<linearGradient id="paint0_linear" x1="246.971" y1="295.874" x2="246.971" y2="23.5896" gradientUnits="userSpaceOnUse">
<stop stop-color="#808080" stop-opacity="0.25"/>
<stop offset="0.54" stop-color="#808080" stop-opacity="0.12"/>
<stop offset="1" stop-color="#808080" stop-opacity="0.1"/>
</linearGradient>
<clipPath id="clip0">
<rect width="482" height="395" fill="white"/>
</clipPath>
</defs>
</svg>
