<svg width="45" height="45" viewBox="0 0 45 45" fill="none" xmlns="http://www.w3.org/2000/svg">
<g clip-path="url(#clip0)">
<path d="M16.2308 36.1816C15.9179 36.2399 15.7812 36.3868 15.8204 36.6209C15.8594 36.8552 16.0352 36.9335 16.3477 36.8552C16.6605 36.7772 16.7971 36.6402 16.7578 36.4451C16.719 36.2304 16.5432 36.1423 16.2308 36.1816Z" fill="black"/>
<path d="M14.5607 36.4162C14.2482 36.4162 14.092 36.5231 14.092 36.7383C14.092 36.9922 14.2581 37.0993 14.59 37.0603C14.9026 37.0603 15.0589 36.9529 15.0589 36.7383C15.0589 36.4848 14.8928 36.3769 14.5607 36.4162Z" fill="black"/>
<path d="M12.2756 36.3277C12.1976 36.5427 12.3247 36.6888 12.6564 36.7673C12.9494 36.884 13.135 36.8256 13.213 36.5914C13.2717 36.3768 13.1447 36.221 12.8322 36.1227C12.5391 36.0448 12.3537 36.1122 12.2756 36.3277Z" fill="black"/>
<path d="M42.5243 2.47536C40.8739 0.825223 38.8871 0 36.5623 0H8.43745C6.11344 0 4.12591 0.825223 2.47536 2.47536C0.825223 4.12581 0 6.11334 0 8.43745V36.5628C0 38.887 0.825223 40.8743 2.47536 42.5244C4.12581 44.1749 6.11344 45.0001 8.43745 45.0001H14.9999C15.4293 45.0001 15.7518 44.9853 15.9666 44.9566C16.1812 44.927 16.3959 44.8 16.6109 44.5752C16.826 44.3508 16.9331 44.0235 16.9331 43.594C16.9331 43.5357 16.9279 42.871 16.9183 41.6015C16.9083 40.3317 16.9035 39.3259 16.9035 38.5836L16.2297 38.7009C15.8 38.7789 15.258 38.8133 14.6036 38.8034C13.9496 38.7936 13.2707 38.7254 12.5677 38.5984C11.8642 38.4713 11.2102 38.1784 10.6047 37.7198C9.99944 37.2604 9.5698 36.66 9.31583 35.918L9.02276 35.2438C8.82749 34.795 8.52005 34.2967 8.10005 33.7503C7.68005 33.2032 7.25533 32.832 6.82569 32.6367L6.62056 32.4902C6.48398 32.3926 6.35705 32.2749 6.23976 32.1383C6.12268 32.0014 6.03484 31.8645 5.97625 31.7282C5.91766 31.5912 5.96629 31.4788 6.12268 31.3907C6.27906 31.303 6.56197 31.2594 6.97232 31.2594L7.55804 31.3472C7.9488 31.4252 8.43191 31.6593 9.00839 32.0502C9.58447 32.4407 10.058 32.9485 10.4292 33.5733C10.8786 34.3743 11.4201 34.9842 12.0552 35.4042C12.6898 35.8246 13.3296 36.0346 13.974 36.0346C14.6184 36.0346 15.175 35.9858 15.6439 35.8885C16.1124 35.7906 16.5519 35.6437 16.9622 35.4485C17.138 34.14 17.6166 33.1336 18.3976 32.4306C17.2844 32.3133 16.2835 32.1377 15.3946 31.9031C14.5062 31.6686 13.5881 31.288 12.6409 30.7604C11.6934 30.233 10.9074 29.5791 10.2823 28.7974C9.65743 28.0157 9.14456 26.9904 8.74447 25.7213C8.34417 24.4514 8.14397 22.9864 8.14397 21.3264C8.14397 18.9633 8.91573 16.9512 10.4586 15.2913C9.73582 13.514 9.80406 11.522 10.6636 9.3148C11.23 9.13892 12.07 9.27088 13.1831 9.71038C14.2965 10.1502 15.1117 10.5263 15.6295 10.8383C16.1473 11.1505 16.5621 11.4144 16.8747 11.6295C18.6915 11.1216 20.5663 10.8678 22.4998 10.8678C24.4331 10.8678 26.3083 11.1216 28.1252 11.6295L29.2385 10.9264C30.0005 10.4574 30.8988 10.0278 31.934 9.63731C32.9692 9.24677 33.7601 9.13923 34.3072 9.31511C35.1858 11.5223 35.2644 13.5143 34.541 15.2915C36.084 16.9517 36.8559 18.9636 36.8559 21.3267C36.8559 22.987 36.6557 24.457 36.2554 25.7359C35.8554 27.0152 35.3382 28.041 34.7029 28.8124C34.0683 29.584 33.2772 30.2329 32.33 30.7606C31.3827 31.2878 30.4647 31.6691 29.5759 31.9029C28.6871 32.1375 27.6863 32.3138 26.5731 32.4311C27.588 33.3097 28.0958 34.696 28.0958 36.5909V43.5931C28.0958 43.9252 28.1442 44.1936 28.2419 44.3987C28.3402 44.6037 28.4962 44.7449 28.7109 44.8236C28.9266 44.9016 29.1161 44.9503 29.2826 44.9697C29.449 44.9893 29.6878 44.9992 30.0004 44.9992H36.5629C38.8869 44.9992 40.8745 44.174 42.5242 42.5235C44.1747 40.8731 44.9999 38.8854 44.9999 36.5614V8.43745C44.9997 6.11334 44.1745 4.1255 42.5243 2.47536Z" fill="black"/>
<path d="M8.90619 32.7539C8.76961 32.8512 8.78911 33.0075 8.96489 33.2224C9.16047 33.4175 9.31654 33.447 9.43383 33.3101C9.57041 33.2128 9.55092 33.0565 9.37483 32.8412C9.17966 32.6658 9.02348 32.6363 8.90619 32.7539Z" fill="black"/>
<path d="M7.93967 32.0215C7.88118 32.1585 7.94952 32.2757 8.14479 32.373C8.30087 32.471 8.42821 32.4517 8.52559 32.3147C8.58408 32.1778 8.51574 32.0605 8.32047 31.9625C8.12519 31.9038 7.99826 31.9235 7.93967 32.0215Z" fill="black"/>
<path d="M9.81463 33.8966C9.63865 33.9939 9.63865 34.1702 9.81463 34.4238C9.99041 34.678 10.1561 34.7462 10.3126 34.6288C10.4885 34.4919 10.4885 34.3064 10.3126 34.0719C10.1565 33.8187 9.99041 33.7593 9.81463 33.8966Z" fill="black"/>
<path d="M10.8403 35.2145C10.6644 35.3711 10.7032 35.5559 10.9574 35.7715C11.1915 36.0054 11.3869 36.0348 11.5432 35.8586C11.6995 35.7027 11.6605 35.5173 11.426 35.3025C11.1919 35.0685 10.9965 35.0389 10.8403 35.2145Z" fill="black"/>
</g>
<defs>
<clipPath id="clip0">
<rect width="45" height="45" fill="white"/>
</clipPath>
</defs>
</svg>
