<svg width="45" height="45" viewBox="0 0 45 45" fill="none" xmlns="http://www.w3.org/2000/svg">
<g clip-path="url(#clip0)">
<path d="M2.81199 3.06187C-0.724261 6.735 -0.000511408 10.6369 -0.000511408 22.4906C-0.000511408 32.3344 -1.71801 42.2025 7.27074 44.5256C10.0776 45.2475 34.9476 45.2475 37.7507 44.5219C41.4932 43.5562 44.5382 40.5206 44.9545 35.2275C45.0126 34.4887 45.0126 10.5056 44.9526 9.75187C44.5101 4.11375 41.0395 0.864371 36.4664 0.206245C35.4182 0.0543705 35.2082 0.00937044 29.8307 -4.55976e-06C10.7564 0.00937044 6.57511 -0.840005 2.81199 3.06187Z" fill="url(#paint0_linear)"/>
<path d="M22.4949 5.88563C15.6868 5.88563 9.2218 5.28 6.75243 11.6175C5.73243 14.235 5.88055 17.6344 5.88055 22.5019C5.88055 26.7731 5.74368 30.7875 6.75243 33.3844C9.21617 39.7256 15.7337 39.1181 22.4912 39.1181C29.0105 39.1181 35.7324 39.7969 38.2318 33.3844C39.2537 30.7406 39.1037 27.3919 39.1037 22.5019C39.1037 16.0106 39.4618 11.82 36.3137 8.67375C33.1262 5.48625 28.8155 5.88563 22.4874 5.88563H22.4949ZM21.0062 8.88C35.2074 8.8575 37.0149 7.27875 36.0174 29.2106C35.663 36.9675 29.7568 36.1162 22.4968 36.1162C9.2593 36.1162 8.87867 35.7375 8.87867 22.4944C8.87867 9.0975 9.92867 8.8875 21.0062 8.87625V8.88ZM31.3637 11.6381C30.263 11.6381 29.3705 12.5306 29.3705 13.6312C29.3705 14.7319 30.263 15.6244 31.3637 15.6244C32.4643 15.6244 33.3568 14.7319 33.3568 13.6312C33.3568 12.5306 32.4643 11.6381 31.3637 11.6381ZM22.4949 13.9687C17.783 13.9687 13.9637 17.79 13.9637 22.5019C13.9637 27.2137 17.783 31.0331 22.4949 31.0331C27.2068 31.0331 31.0243 27.2137 31.0243 22.5019C31.0243 17.79 27.2068 13.9687 22.4949 13.9687ZM22.4949 16.9631C29.8168 16.9631 29.8262 28.0406 22.4949 28.0406C15.1749 28.0406 15.1637 16.9631 22.4949 16.9631Z" fill="white"/>
</g>
<defs>
<linearGradient id="paint0_linear" x1="2.89828" y1="42.1258" x2="44.721" y2="5.92871" gradientUnits="userSpaceOnUse">
<stop stop-color="#FFDD55"/>
<stop offset="0.5" stop-color="#FF543E"/>
<stop offset="1" stop-color="#C837AB"/>
</linearGradient>
<clipPath id="clip0">
<rect width="45" height="45" fill="white"/>
</clipPath>
</defs>
</svg>
