<svg width="88" height="66" viewBox="0 0 88 66" fill="none" xmlns="http://www.w3.org/2000/svg">
<path d="M67.8563 28.7269L31.9799 1.81964C28.7451 -0.606502 23.1579 -0.606502 20.2172 1.81964C16.9825 4.24579 16.9825 8.21558 20.2172 10.6417L49.9182 33.1379L20.2173 55.4136C16.9826 57.8397 16.9826 61.8096 20.2173 64.2357C21.6877 65.3384 24.0402 66 26.0985 66C28.1569 66 30.5097 65.3385 31.9799 64.2355L67.8563 37.5488C69.3266 36.446 70.2089 34.6817 70.2089 33.1378C70.2089 31.594 69.3266 29.8297 67.8563 28.7269ZM63.7393 34.4612L28.1571 61.148C27.2749 61.8095 25.5106 61.8095 24.6283 61.148C23.7461 60.4864 23.7461 59.1629 24.6283 58.5014L56.3877 34.6818C57.564 33.7996 57.564 32.4764 56.3877 31.5941L24.3342 7.77459C23.452 6.89236 23.452 5.78957 24.3342 5.12802C24.9224 4.6869 25.5106 4.46647 26.0987 4.46647C26.6869 4.46647 27.275 4.6869 27.8632 5.12802L63.7395 32.0353C64.3277 32.4764 64.6216 32.9175 64.6216 33.3586C64.3275 33.5789 64.0334 34.2407 63.7393 34.4612Z" fill="#33C01C" fill-opacity=".90"/>
</svg>
