<svg width="324" height="259" viewBox="0 0 324 259" fill="none" xmlns="http://www.w3.org/2000/svg">
<path d="M1.37988 190.81V198.37C1.37988 200.55 4.43988 202.31 5.89988 202.72C7.35988 203.13 194 258.53 201.44 258.33C208.88 258.13 211.55 257.33 213.14 256.26C214.73 255.19 316 197.58 318.67 195.92C321.34 194.26 321.52 193.21 321.62 191.92C321.89 188.35 322.82 180.32 322.82 180.32L1.37988 190.81Z" fill="white"/>
<path d="M201.4 258.79C194.87 258.79 78.4599 224.66 9.53992 204.28L5.76992 203.17C4.07992 202.69 0.919922 200.79 0.919922 198.37V190.81C0.91981 190.691 0.965521 190.577 1.04751 190.492C1.1295 190.406 1.24142 190.355 1.35992 190.35L322.8 179.84C322.868 179.832 322.936 179.842 322.999 179.868C323.062 179.894 323.118 179.936 323.16 179.99C323.205 180.04 323.238 180.099 323.257 180.163C323.276 180.227 323.28 180.294 323.27 180.36C323.27 180.44 322.34 188.36 322.08 191.93C321.97 193.41 321.68 194.59 318.92 196.31C317.54 197.17 290.1 212.83 263.56 227.96C239.27 241.82 214.16 256.15 213.39 256.64C211.88 257.64 209.39 258.57 201.45 258.79H201.4ZM1.83992 191.26V198.37C1.83992 200.18 4.51992 201.85 6.01992 202.28L9.79992 203.39C126.92 238 196.69 257.87 201.38 257.87C209.09 257.65 211.45 256.78 212.85 255.87C213.64 255.36 237.65 241.66 263.06 227.17C289.59 212.03 317.06 196.38 318.39 195.53C320.97 193.92 321.04 192.97 321.12 191.87C321.34 188.87 322.05 182.63 322.26 180.78L1.83992 191.26Z" fill="#D1D3D4"/>
<path d="M110 142L3.34998 188.78C1.06998 189.78 1.43998 192.42 3.93998 193.01L198.35 242.67C202.823 243.735 207.531 243.142 211.6 241L321.48 182.59C323.6 181.44 322.96 178.88 320.48 178.43L112.1 141.72C111.388 141.613 110.66 141.711 110 142Z" fill="white"/>
<path d="M202.83 243.66C201.284 243.659 199.744 243.478 198.24 243.12L3.82998 193.46C3.21696 193.355 2.65189 193.061 2.21296 192.62C1.77402 192.18 1.48293 191.613 1.37997 191C1.35383 190.427 1.51281 189.861 1.83339 189.386C2.15397 188.91 2.61911 188.551 3.15997 188.36L109.8 141.54C110.549 141.216 111.377 141.122 112.18 141.27L320.52 178C321.156 178.058 321.756 178.317 322.235 178.739C322.713 179.162 323.044 179.726 323.18 180.35C323.248 180.892 323.141 181.441 322.875 181.918C322.609 182.395 322.197 182.774 321.7 183L211.81 241.45C209.044 242.915 205.96 243.674 202.83 243.66ZM111.44 142.12C111.002 142.116 110.569 142.208 110.17 142.39L3.52997 189.2C3.16715 189.316 2.85149 189.546 2.6299 189.856C2.4083 190.166 2.29259 190.539 2.29997 190.92C2.37323 191.348 2.58356 191.74 2.89923 192.037C3.21489 192.335 3.61878 192.522 4.04997 192.57L198.46 242.23C202.818 243.28 207.409 242.711 211.38 240.63L321.26 182.22C321.584 182.077 321.854 181.836 322.034 181.531C322.213 181.226 322.292 180.872 322.26 180.52C322.141 180.089 321.894 179.705 321.551 179.419C321.207 179.133 320.785 178.959 320.34 178.92L112 142.18C111.816 142.141 111.628 142.121 111.44 142.12Z" fill="#D1D3D4"/>
<path d="M298.27 181.7L200.22 232.42L31.3499 192.06L118.43 151.47L298.27 181.7Z" fill="white"/>
<path d="M200.22 232.88H200.11L31.2399 192.5C31.1467 192.479 31.0625 192.429 30.9996 192.357C30.9367 192.285 30.8983 192.195 30.89 192.1C30.8816 192.005 30.9031 191.909 30.9515 191.827C30.9999 191.744 31.0727 191.679 31.16 191.64L118.24 151.05C118.328 151.025 118.422 151.025 118.51 151.05L298.35 181.29C298.446 181.304 298.534 181.349 298.603 181.417C298.671 181.486 298.716 181.574 298.73 181.67C298.745 181.765 298.73 181.863 298.687 181.949C298.644 182.035 298.575 182.105 298.49 182.15L200.43 232.87C200.361 232.887 200.29 232.89 200.22 232.88ZM32.7399 191.88L200.16 231.88L296.84 181.88L118.5 151.88L32.7399 191.88Z" fill="#D1D3D4"/>
<path d="M190.46 32.35C190.02 32.07 189.35 31.82 189.05 32.24C188.75 32.66 189.05 33.09 189.34 33.43C190.709 35.1605 192.228 36.7668 193.88 38.23C194.098 38.4814 194.408 38.636 194.74 38.66C195.26 38.66 195.54 37.98 195.47 37.45C195.12 34.89 192.46 33.67 190.46 32.35Z" fill="white"/>
<path d="M194.7 39.11C194.272 39.0779 193.872 38.8849 193.58 38.57C191.903 37.0918 190.364 35.4652 188.98 33.71C188.31 32.87 188.45 32.3 188.68 31.98C189.08 31.43 189.87 31.42 190.68 31.98L191.63 32.59C193.48 33.73 195.57 35.02 195.89 37.4C195.921 37.6291 195.906 37.862 195.846 38.0852C195.786 38.3084 195.682 38.5174 195.54 38.7C195.44 38.8211 195.317 38.9208 195.178 38.993C195.039 39.0652 194.886 39.1084 194.73 39.12L194.7 39.11ZM189.53 32.47C189.494 32.457 189.455 32.457 189.42 32.47C189.42 32.54 189.42 32.79 189.7 33.11C191.049 34.8205 192.548 36.4069 194.18 37.85C194.327 37.9972 194.51 38.1039 194.71 38.16C194.71 38.16 194.79 38.16 194.87 38.07C194.989 37.8941 195.039 37.6804 195.01 37.47C194.75 35.52 192.94 34.4 191.18 33.31L190.18 32.7C189.987 32.5688 189.763 32.4895 189.53 32.47Z" fill="#231F20"/>
<path d="M207.35 49.16L204.71 46.28C204.71 46.28 204.82 42.22 204.29 41.37C203.76 40.52 194.54 34.47 194.62 34.7C194.7 34.93 195.23 42.6 195.23 42.6L205.05 54.6L207.35 49.16Z" fill="white"/>
<path d="M205.05 55C204.983 54.9989 204.917 54.9832 204.856 54.9538C204.796 54.9244 204.742 54.8822 204.7 54.83L194.88 42.83C194.821 42.7557 194.786 42.6649 194.78 42.57C194.57 39.57 194.24 35.09 194.18 34.74C194.145 34.6379 194.151 34.5259 194.198 34.4286C194.245 34.3312 194.328 34.2562 194.43 34.22C194.69 34.1 194.81 34.04 199.57 37.22C202.68 39.33 204.4 40.61 204.67 41.04C205.21 41.89 205.19 45.04 205.17 46.04L207.69 48.78C207.749 48.8454 207.788 48.9264 207.802 49.0133C207.816 49.1001 207.805 49.1892 207.77 49.27L205.47 54.67C205.44 54.7426 205.393 54.8065 205.331 54.8555C205.27 54.9045 205.197 54.937 205.12 54.95L205.05 55ZM195.68 42.4L204.93 53.67L206.82 49.23L204.37 46.57C204.291 46.4822 204.248 46.3679 204.25 46.25C204.3 44.62 204.25 42.1 203.9 41.6C203.55 41.1 197.3 36.82 195.16 35.5C195.25 36.48 195.4 38.43 195.68 42.42V42.4Z" fill="#231F20"/>
<path d="M229.21 42.6L220.21 60.6L207.89 46.89L201.89 56.1C201.89 56.1 222.98 85.4 227.58 83.1C232.18 80.8 241 59.63 241 59.63L229.21 42.6Z" fill="#1CC06D"/>
<path d="M245.07 108.8L223.07 175.26C223.07 175.26 201.43 172.34 201.13 171.44C200.83 170.54 214.75 167.31 214.75 167.31L232.38 103.19" fill="white"/>
<path d="M223.11 175.76H223C201 172.76 200.78 171.97 200.66 171.61C200.616 171.446 200.634 171.272 200.71 171.12C201.28 170.12 209.37 168.07 214.35 166.9L231.9 103.06C231.936 102.927 232.023 102.814 232.142 102.746C232.261 102.678 232.402 102.659 232.535 102.695C232.668 102.731 232.781 102.818 232.849 102.937C232.917 103.056 232.936 103.197 232.9 103.33L215.26 167.45C215.239 167.537 215.194 167.617 215.13 167.68C215.067 167.744 214.987 167.789 214.9 167.81C210.574 168.736 206.306 169.918 202.12 171.35C204.88 172.13 215.65 173.75 222.75 174.72L244.59 108.65C244.631 108.524 244.721 108.42 244.839 108.36C244.957 108.3 245.094 108.289 245.22 108.33C245.344 108.373 245.447 108.463 245.507 108.581C245.566 108.698 245.578 108.834 245.54 108.96L223.54 175.43C223.507 175.52 223.449 175.598 223.372 175.657C223.296 175.715 223.205 175.751 223.11 175.76Z" fill="#231F20"/>
<path d="M268.94 103.8L273.51 178.57C273.51 178.57 251.77 183.29 251.68 182.73C251.59 182.17 263.4 173.73 263.4 173.73L254.52 104.73" fill="white"/>
<path d="M251.83 183.24C251.685 183.259 251.538 183.231 251.41 183.16C251.293 183.073 251.214 182.944 251.19 182.8C251.14 182.44 251.07 181.94 262.87 173.54L254 104.79C253.991 104.724 253.996 104.658 254.013 104.594C254.03 104.53 254.06 104.47 254.1 104.417C254.141 104.365 254.191 104.321 254.248 104.288C254.306 104.255 254.369 104.234 254.435 104.225C254.501 104.216 254.567 104.221 254.631 104.238C254.695 104.255 254.755 104.285 254.807 104.325C254.86 104.366 254.904 104.416 254.937 104.474C254.97 104.531 254.991 104.594 255 104.66L263.88 173.71C263.89 173.8 263.875 173.891 263.839 173.973C263.802 174.056 263.743 174.127 263.67 174.18C260.2 176.65 254.93 180.5 252.91 182.18C256.29 181.7 266.28 179.63 272.97 178.18L268.42 103.83C268.414 103.699 268.461 103.571 268.548 103.474C268.636 103.377 268.759 103.318 268.89 103.31C268.955 103.303 269.021 103.31 269.084 103.329C269.147 103.349 269.205 103.382 269.255 103.425C269.304 103.468 269.345 103.521 269.373 103.58C269.402 103.64 269.417 103.704 269.42 103.77L274 178.54C274.01 178.659 273.975 178.778 273.903 178.874C273.832 178.97 273.727 179.036 273.61 179.06C257 182.68 252.91 183.24 251.83 183.24Z" fill="#231F20"/>
<path d="M210.2 167L213.13 171.48L224.59 172.83L223.46 177.22C223.46 177.22 198.23 174.07 197.65 171.76C197.07 169.45 210.2 167 210.2 167Z" fill="#231F20"/>
<path d="M239.93 34.78C239.93 34.78 232.01 36.67 229.62 41.58C227.23 46.49 230.09 72.77 230.09 72.77L265.26 74.28C265.26 74.28 268.86 54.91 267.1 46.61C265.34 38.31 258.3 27.24 239.93 34.78Z" fill="#1CC06D"/>
<path d="M240 31.17L240.25 38.83C240.25 38.83 241.19 43.08 245.8 41.59C247.164 41.1418 248.41 40.3948 249.448 39.4035C250.486 38.4121 251.29 37.2015 251.8 35.86L250.75 22.62C249.88 22.17 249.214 21.4045 248.89 20.48C248.621 19.7969 248.469 19.0735 248.44 18.34C248.44 18.06 248.44 16.4 248.7 16.28C247.834 16.6086 246.902 16.723 245.983 16.6133C245.063 16.5036 244.184 16.1731 243.42 15.65C242.592 15.0238 241.861 14.2791 241.25 13.44C240.759 12.9539 240.47 12.3003 240.44 11.61C239.16 12.8633 237.94 14.1733 236.78 15.54C236.134 16.2647 235.577 17.0636 235.12 17.92C234.532 19.5171 234.353 21.236 234.6 22.92C234.696 24.8533 234.964 26.7742 235.4 28.66C236.29 32.21 240 31.17 240 31.17Z" fill="white"/>
<path d="M244 42.36C243.279 42.3721 242.568 42.1926 241.94 41.84C240.889 41.1787 240.136 40.1355 239.84 38.93L239.59 31.72C238.6 31.8748 237.587 31.7065 236.7 31.24C236.254 30.9649 235.869 30.601 235.57 30.1709C235.271 29.7408 235.063 29.2537 234.96 28.74C234.514 26.8286 234.243 24.8805 234.15 22.92C233.896 21.1671 234.088 19.3785 234.71 17.72C235.181 16.83 235.758 16.0005 236.43 15.25C237.59 13.87 238.83 12.54 240.12 11.25C240.186 11.1846 240.27 11.1417 240.362 11.1273C240.453 11.113 240.547 11.1279 240.63 11.17C240.715 11.2077 240.787 11.2716 240.833 11.3525C240.88 11.4334 240.9 11.5271 240.89 11.62C240.941 12.1906 241.196 12.7234 241.61 13.12C242.192 13.9269 242.89 14.6445 243.68 15.25C244.384 15.724 245.192 16.0237 246.035 16.1246C246.878 16.2254 247.733 16.1244 248.53 15.83C248.586 15.8075 248.645 15.7964 248.705 15.7973C248.765 15.7983 248.825 15.8113 248.88 15.8355C248.935 15.8597 248.984 15.8947 249.025 15.9384C249.067 15.9821 249.099 16.0337 249.12 16.09C249.157 16.1766 249.166 16.273 249.144 16.3648C249.122 16.4566 249.072 16.5391 249 16.6C248.894 17.1567 248.861 17.7247 248.9 18.29C248.918 18.9755 249.057 19.6526 249.31 20.29C249.6 21.0995 250.176 21.7752 250.93 22.19C251.007 22.2212 251.074 22.2732 251.124 22.3403C251.173 22.4074 251.203 22.4869 251.21 22.57L252.21 35.8C252.225 35.8591 252.225 35.9209 252.21 35.98C251.691 37.3842 250.864 38.6542 249.789 39.6961C248.714 40.738 247.419 41.5253 246 42C245.357 42.2269 244.682 42.3485 244 42.36ZM240.74 38.81C240.859 39.323 241.093 39.8025 241.423 40.2127C241.753 40.623 242.172 40.9533 242.648 41.1792C243.124 41.4051 243.644 41.5207 244.171 41.5174C244.698 41.514 245.217 41.3919 245.69 41.16C246.963 40.7275 248.127 40.0244 249.102 39.0991C250.078 38.1739 250.841 37.0484 251.34 35.8L250.34 22.92C249.489 22.389 248.838 21.5906 248.49 20.65C248.199 19.9164 248.037 19.1384 248.01 18.35C247.975 17.9008 247.971 17.4497 248 17C247.17 17.1829 246.312 17.1938 245.477 17.0321C244.643 16.8705 243.851 16.5396 243.15 16.06C242.284 15.4056 241.519 14.6273 240.88 13.75C240.575 13.3964 240.325 12.9985 240.14 12.57C239.093 13.63 238.093 14.73 237.14 15.87C236.517 16.5609 235.983 17.3269 235.55 18.15C234.994 19.6645 234.829 21.2948 235.07 22.89C235.16 24.7968 235.425 26.6913 235.86 28.55C235.933 28.9433 236.088 29.317 236.313 29.6475C236.539 29.978 236.83 30.2581 237.17 30.47C238.025 30.8838 238.997 30.9864 239.92 30.76C239.986 30.7438 240.055 30.7417 240.122 30.7538C240.189 30.7659 240.253 30.7918 240.31 30.83C240.365 30.8729 240.409 30.9275 240.44 30.9897C240.471 31.052 240.488 31.1204 240.49 31.19L240.75 38.84L240.74 38.81Z" fill="#231F20"/>
<path d="M248 22.07C248.094 21.4983 248.375 20.9741 248.8 20.58C249.209 20.226 249.676 19.9452 250.18 19.75C250.444 19.6146 250.734 19.5395 251.03 19.53C251.236 19.5478 251.436 19.6055 251.62 19.7C252.09 19.8861 252.473 20.2434 252.69 20.7C252.827 21.0704 252.874 21.4677 252.83 21.86C252.807 22.2905 252.733 22.7169 252.61 23.13C252.322 23.9493 251.722 24.6215 250.94 25C250.156 25.3691 249.26 25.4193 248.44 25.14" fill="white"/>
<path d="M249.52 25.68C249.104 25.6794 248.692 25.6084 248.3 25.47C248.202 25.4318 248.123 25.3576 248.078 25.2628C248.034 25.1679 248.027 25.0596 248.06 24.96C248.096 24.8608 248.17 24.7799 248.265 24.7349C248.361 24.6899 248.47 24.6846 248.57 24.72C249.287 24.9715 250.075 24.9283 250.76 24.6C251.434 24.2744 251.957 23.7013 252.22 23C252.339 22.6208 252.406 22.2272 252.42 21.83C252.465 21.4927 252.427 21.1495 252.31 20.83C252.12 20.4846 251.816 20.216 251.45 20.07C251.311 19.9943 251.158 19.9499 251 19.94C250.766 19.9527 250.538 20.014 250.33 20.12C249.865 20.2971 249.436 20.5543 249.06 20.88C248.698 21.2155 248.458 21.6626 248.38 22.15C248.35 22.2408 248.289 22.3179 248.207 22.3674C248.125 22.4169 248.028 22.4355 247.934 22.4197C247.84 22.404 247.754 22.3551 247.693 22.2817C247.632 22.2084 247.599 22.1156 247.6 22.02C247.706 21.3602 248.03 20.7548 248.52 20.3C248.958 19.9129 249.463 19.6081 250.01 19.4C250.319 19.2386 250.661 19.1497 251.01 19.14C251.272 19.1574 251.527 19.2289 251.76 19.35C252.294 19.573 252.733 19.9764 253 20.49C253.167 20.9192 253.225 21.3829 253.17 21.84C253.154 22.3056 253.073 22.7667 252.93 23.21C252.688 23.9323 252.224 24.56 251.605 25.0034C250.985 25.4469 250.242 25.6837 249.48 25.68H249.52Z" fill="#231F20"/>
<path d="M240.22 34.93C242.097 34.8809 243.884 34.1193 245.22 32.8C245.766 32.2472 246.186 31.5831 246.452 30.8531C246.718 30.1231 246.823 29.3444 246.76 28.57C246.76 28.57 243.12 31.57 240 31.17L240.22 34.93Z" fill="#231F20"/>
<path d="M240.22 35.37C240.164 35.3713 240.107 35.3615 240.055 35.3411C240.002 35.3207 239.954 35.2902 239.913 35.2512C239.872 35.2122 239.839 35.1655 239.817 35.1138C239.794 35.0621 239.781 35.0065 239.78 34.95L239.59 31.19C239.585 31.1263 239.595 31.0624 239.62 31.0034C239.644 30.9444 239.682 30.8919 239.73 30.85C239.776 30.8058 239.831 30.7721 239.892 30.7514C239.952 30.7307 240.016 30.7234 240.08 30.73C242.99 31.1 246.47 28.26 246.51 28.23C246.569 28.182 246.64 28.1503 246.716 28.138C246.791 28.1258 246.868 28.1333 246.94 28.16C247.011 28.187 247.073 28.2314 247.122 28.2891C247.171 28.3468 247.205 28.4159 247.22 28.49C247.3 29.33 247.194 30.1773 246.911 30.9721C246.627 31.7668 246.173 32.4898 245.58 33.09C244.157 34.5172 242.235 35.3348 240.22 35.37ZM240.49 31.64L240.64 34.46C242.262 34.3333 243.782 33.6227 244.92 32.46C245.711 31.6177 246.215 30.5465 246.36 29.4C244.685 30.6623 242.689 31.4281 240.6 31.61L240.49 31.64Z" fill="#231F20"/>
<path d="M240.44 19.9C240.44 19.9 238.13 23.67 238.74 24.29C239.35 24.91 240.97 24.42 240.97 24.42" fill="white"/>
<path d="M239.76 25C239.273 25.0349 238.791 24.8769 238.42 24.56C237.72 23.84 238.93 21.48 240.07 19.63C240.1 19.5797 240.139 19.5358 240.186 19.5009C240.233 19.4661 240.287 19.4409 240.343 19.4269C240.4 19.413 240.459 19.4105 240.517 19.4196C240.575 19.4287 240.63 19.4492 240.68 19.48C240.778 19.5436 240.847 19.6428 240.873 19.7567C240.899 19.8705 240.88 19.99 240.82 20.09C239.82 21.79 238.97 23.61 239.08 23.98C239.34 24.22 240.29 24.12 240.84 23.98C240.896 23.9632 240.954 23.9576 241.012 23.9636C241.07 23.9696 241.126 23.9871 241.178 24.015C241.229 24.0429 241.274 24.0807 241.31 24.1262C241.347 24.1717 241.374 24.224 241.39 24.28C241.424 24.3914 241.413 24.5119 241.359 24.615C241.304 24.7181 241.211 24.7954 241.1 24.83C240.662 24.9445 240.212 25.0016 239.76 25Z" fill="#231F20"/>
<path d="M245.138 20.0311C245.22 19.5634 245.018 19.1368 244.686 19.0784C244.355 19.02 244.019 19.3519 243.937 19.8197C243.854 20.2875 244.057 20.714 244.388 20.7724C244.72 20.8308 245.056 20.4989 245.138 20.0311Z" fill="#231F20"/>
<path d="M237.653 21.1771C237.735 20.7093 237.533 20.2827 237.201 20.2244C236.869 20.166 236.534 20.4979 236.451 20.9656C236.369 21.4334 236.571 21.86 236.903 21.9183C237.235 21.9767 237.571 21.6449 237.653 21.1771Z" fill="#231F20"/>
<path d="M238.07 26.38C238.07 26.38 240.41 29.56 244.17 26.26L238.07 26.38Z" fill="white"/>
<path d="M240.86 28.2H240.44C239.365 28.0592 238.386 27.5072 237.71 26.66C237.643 26.564 237.615 26.4455 237.634 26.3297C237.653 26.2138 237.716 26.1099 237.81 26.04C237.906 25.9739 238.023 25.9464 238.138 25.9631C238.253 25.9798 238.357 26.0394 238.43 26.13C238.958 26.7836 239.717 27.2095 240.55 27.32C241.169 27.3326 241.785 27.2174 242.358 26.9817C242.931 26.746 243.449 26.3948 243.88 25.95C243.962 25.8682 244.074 25.8222 244.19 25.8222C244.306 25.8222 244.418 25.8682 244.5 25.95C244.582 26.0341 244.629 26.1472 244.629 26.265C244.629 26.3828 244.582 26.4959 244.5 26.58C243.527 27.5487 242.231 28.1254 240.86 28.2Z" fill="#231F20"/>
<path d="M261.71 74C261.71 74 270.2 83.44 272.56 93.85C277.56 115.75 276.15 158.46 276.15 158.46L212.65 147.73L228.55 72.26L261.71 74Z" fill="#231F20"/>
<path d="M275.54 179.58L274.88 175.07L261.59 178.74L259 175.32C259 175.32 249.28 182.38 250.6 183.9C251.92 185.42 266.33 182.65 275.54 179.58Z" fill="#231F20"/>
<path d="M268 94.45C268.16 94.91 269.69 98.32 269.46 100.74C269.23 103.16 268.19 108.1 268.88 108.21C269.57 108.32 271.07 108.45 271.53 102.92C271.53 102.92 272.53 113.85 274.06 111.55C275.59 109.25 273.6 103.38 273.6 103.38C273.6 103.38 275.33 111.32 276.36 110.75C277.39 110.18 275.9 103.27 275.9 103.27C275.9 103.27 277.05 110.86 278.32 110.06C279.59 109.26 278.2 102.58 278.2 102.58C278.2 102.58 279.2 111.32 280.62 109.71C282.04 108.1 277.86 92.71 277.86 92.71" fill="white"/>
<path d="M273.67 112.33H273.49C272.49 112.09 271.88 109.14 271.49 106.25C271.327 107.057 270.918 107.794 270.32 108.36C270.114 108.519 269.875 108.63 269.621 108.687C269.368 108.744 269.104 108.745 268.85 108.69C267.99 108.54 268.11 107.26 268.69 103.34C268.84 102.34 268.98 101.42 269.04 100.71C269.23 98.71 268.11 95.9 267.74 94.97C267.68 94.8 267.63 94.68 267.61 94.61C267.572 94.4946 267.581 94.3689 267.635 94.2602C267.69 94.1515 267.785 94.0688 267.9 94.03C267.957 94.0113 268.016 94.004 268.075 94.0085C268.135 94.013 268.193 94.0292 268.246 94.0561C268.299 94.0831 268.346 94.1203 268.384 94.1656C268.423 94.2109 268.452 94.2634 268.47 94.32C268.47 94.38 268.54 94.49 268.59 94.63C269.02 95.72 270.16 98.63 269.95 100.8C269.88 101.53 269.74 102.48 269.6 103.47C269.323 104.9 269.179 106.353 269.17 107.81C269.275 107.823 269.381 107.815 269.482 107.785C269.584 107.756 269.678 107.707 269.76 107.64C270.23 107.27 270.84 106.16 271.11 102.9C271.122 102.787 271.176 102.682 271.261 102.607C271.346 102.531 271.456 102.489 271.57 102.49C271.683 102.49 271.792 102.531 271.875 102.607C271.958 102.683 272.01 102.788 272.02 102.9C272.37 106.55 273.1 110.68 273.68 111.38C273.677 111.36 273.677 111.34 273.68 111.32C274.32 110.32 274.23 108.46 273.94 106.73C273.61 105.51 273.33 104.3 273.15 103.5C273.128 103.385 273.15 103.266 273.211 103.166C273.272 103.066 273.368 102.993 273.48 102.96C273.593 102.929 273.713 102.943 273.816 102.999C273.919 103.055 273.995 103.148 274.03 103.26C274.369 104.311 274.636 105.383 274.83 106.47C275.124 107.778 275.588 109.042 276.21 110.23C276.337 108.893 276.263 107.545 275.99 106.23C275.74 105.12 275.56 104.03 275.45 103.31C275.44 103.252 275.442 103.192 275.455 103.134C275.468 103.076 275.493 103.021 275.527 102.973C275.561 102.925 275.605 102.884 275.655 102.852C275.706 102.821 275.762 102.8 275.82 102.79C275.936 102.769 276.056 102.794 276.155 102.859C276.254 102.924 276.324 103.025 276.35 103.14C276.56 104.14 276.76 105.14 276.91 106.14C277.092 107.359 277.502 108.533 278.12 109.6C278.42 109.29 278.47 107.94 278.3 106.17C278.05 104.93 277.87 103.63 277.75 102.6C277.746 102.488 277.783 102.379 277.853 102.292C277.924 102.206 278.024 102.148 278.134 102.129C278.244 102.111 278.358 102.133 278.453 102.192C278.548 102.251 278.618 102.343 278.65 102.45C278.79 103.16 279.06 104.55 279.21 105.99C279.338 107.171 279.676 108.319 280.21 109.38C280.93 108.19 279.33 100.1 277.37 92.77C277.339 92.6533 277.356 92.5293 277.415 92.4245C277.475 92.3198 277.574 92.2427 277.69 92.21C277.808 92.1796 277.933 92.1973 278.038 92.2592C278.143 92.321 278.219 92.422 278.25 92.54C279.25 96.21 282.34 108.31 280.92 109.98C280.818 110.121 280.675 110.228 280.51 110.285C280.346 110.342 280.168 110.347 280 110.3C279.68 110.2 279.39 109.82 279.13 109.3C279.082 109.75 278.859 110.162 278.51 110.45C278.397 110.523 278.267 110.567 278.133 110.578C277.998 110.588 277.863 110.565 277.74 110.51C277.465 110.342 277.243 110.099 277.1 109.81C277.03 110.49 276.86 110.97 276.53 111.16C276.432 111.207 276.324 111.231 276.215 111.231C276.106 111.231 275.998 111.207 275.9 111.16C275.472 110.84 275.151 110.397 274.98 109.89C274.941 110.562 274.739 111.214 274.39 111.79C274.325 111.933 274.225 112.057 274.099 112.152C273.973 112.246 273.826 112.307 273.67 112.33Z" fill="#231F20"/>
<path d="M265.14 40.67L283.05 92.3L265.8 97.13C265.8 97.13 257.74 59.4 257.51 56.13C257.28 52.86 265.14 40.67 265.14 40.67Z" fill="#1CC06D"/>
<path d="M266 40.05C265.894 40.0464 265.792 40.0077 265.71 39.94C265.623 39.863 265.57 39.7555 265.561 39.64C265.551 39.5245 265.587 39.4099 265.66 39.32C267.37 37.32 266.99 34.32 265.74 32.32C264.212 30.1867 262.054 28.5852 259.57 27.74C258.022 26.9729 256.287 26.6674 254.57 26.86C254.475 26.8754 254.378 26.8593 254.293 26.8141C254.208 26.769 254.14 26.6973 254.1 26.61C254.058 26.5242 254.045 26.4271 254.063 26.3333C254.081 26.2395 254.129 26.1541 254.2 26.09C257.48 23.2 258.95 18.84 257.87 15.25C257.287 13.6092 256.306 12.1388 255.014 10.9711C253.723 9.80335 252.161 8.97484 250.47 8.56C247.004 7.75499 243.375 8.03068 240.07 9.34999C239.997 9.37854 239.918 9.38711 239.84 9.37481C239.763 9.3625 239.69 9.32977 239.63 9.28C238.848 8.6272 237.931 8.15644 236.945 7.9018C235.958 7.64716 234.928 7.615 233.928 7.80767C232.927 8.00034 231.983 8.413 231.162 9.01579C230.34 9.61857 229.664 10.3964 229.18 11.2929C228.697 12.1895 228.419 13.1823 228.366 14.1995C228.314 15.2168 228.488 16.2329 228.877 17.1745C229.265 18.116 229.858 18.9594 230.613 19.6435C231.368 20.3276 232.265 20.8354 233.24 21.13C233.354 21.1647 233.449 21.243 233.506 21.348C233.562 21.453 233.574 21.576 233.54 21.69C233.503 21.8021 233.424 21.8953 233.319 21.9495C233.215 22.0037 233.093 22.0147 232.98 21.98C231.51 21.5353 230.205 20.6633 229.232 19.4748C228.259 18.2864 227.662 16.8353 227.516 15.3063C227.37 13.7772 227.682 12.2394 228.413 10.8884C229.144 9.53749 230.26 8.43455 231.62 7.72C232.946 7.05013 234.432 6.76268 235.912 6.88984C237.392 7.01701 238.808 7.55377 240 8.44C243.412 7.12778 247.14 6.86999 250.7 7.7C252.537 8.14787 254.233 9.0501 255.631 10.3239C257.028 11.5976 258.084 13.2021 258.7 14.99C259.77 18.56 258.55 22.81 255.7 25.89C257.158 25.9475 258.591 26.2871 259.92 26.89C263.05 28.17 265.21 29.78 266.5 31.81C267.93 34.07 268.34 37.56 266.36 39.88C266.317 39.9335 266.262 39.9765 266.199 40.006C266.137 40.0354 266.069 40.0504 266 40.05Z" fill="#231F20"/>
<path d="M251 19.53C251 19.53 250.59 9.34998 245.18 7.73998C246.964 7.51595 248.774 7.64163 250.51 8.10998C250.51 8.10998 254.07 14.75 251 19.53Z" fill="#231F20"/>
<path d="M251 20H250.88C250.79 19.9745 250.71 19.9211 250.653 19.8473C250.595 19.7736 250.563 19.6835 250.56 19.59C250.56 19.49 250.1 9.69999 245.06 8.19999C244.964 8.17119 244.881 8.11132 244.823 8.02984C244.765 7.94835 244.736 7.84989 244.74 7.74999C244.75 7.64796 244.794 7.5522 244.864 7.47792C244.935 7.40364 245.029 7.3551 245.13 7.33999C246.981 7.11007 248.859 7.24253 250.66 7.72999C250.763 7.76834 250.848 7.84304 250.9 7.93999C251.05 8.21999 254.52 14.87 251.37 19.81C251.328 19.8691 251.273 19.9172 251.208 19.9503C251.144 19.9834 251.072 20.0004 251 20ZM246.88 8.09999C249.99 10.25 250.98 15.35 251.3 17.95C252.72 14.04 250.64 9.39999 250.2 8.49999C249.126 8.19796 248.015 8.05312 246.9 8.06999L246.88 8.09999Z" fill="#231F20"/>
<path d="M229 70.88H228.9C228.843 70.867 228.79 70.843 228.743 70.8093C228.695 70.7756 228.655 70.7329 228.625 70.6837C228.594 70.6344 228.573 70.5796 228.564 70.5223C228.555 70.465 228.557 70.4065 228.57 70.35L234.32 45.27C234.333 45.2134 234.357 45.16 234.391 45.1127C234.424 45.0655 234.467 45.0254 234.516 44.9947C234.565 44.964 234.62 44.9434 234.678 44.934C234.735 44.9246 234.793 44.9267 234.85 44.94C234.965 44.9663 235.064 45.0365 235.128 45.1356C235.192 45.2347 235.214 45.3547 235.19 45.47L229.43 70.55C229.405 70.6451 229.35 70.7293 229.272 70.7891C229.194 70.8489 229.098 70.8809 229 70.88Z" fill="#231F20"/>
<path d="M260.66 73C260.558 73.0003 260.458 72.9658 260.379 72.9022C260.299 72.8385 260.243 72.7496 260.22 72.65L255.16 47.49C255.148 47.4328 255.148 47.3739 255.16 47.3167C255.171 47.2595 255.194 47.2051 255.226 47.1567C255.259 47.1083 255.301 47.0669 255.349 47.0349C255.398 47.0028 255.453 46.9807 255.51 46.97C255.567 46.9584 255.626 46.9582 255.683 46.9696C255.74 46.981 255.795 47.0036 255.843 47.0362C255.892 47.0687 255.933 47.1106 255.965 47.1593C255.997 47.208 256.019 47.2627 256.03 47.32L261.09 72.47C261.114 72.5852 261.092 72.7053 261.028 72.8044C260.964 72.9034 260.865 72.9737 260.75 73H260.66Z" fill="#231F20"/>
<path d="M224.46 64.82C224.4 64.8222 224.341 64.8118 224.286 64.7894C224.231 64.767 224.181 64.7331 224.14 64.69L207.57 47.2C207.53 47.158 207.498 47.1085 207.477 47.0543C207.457 47.0002 207.446 46.9424 207.448 46.8844C207.449 46.8263 207.462 46.7691 207.486 46.7161C207.509 46.663 207.543 46.615 207.585 46.575C207.627 46.5349 207.676 46.5035 207.731 46.4826C207.785 46.4617 207.842 46.4516 207.9 46.453C207.958 46.4544 208.016 46.4672 208.069 46.4907C208.122 46.5142 208.17 46.548 208.21 46.59L224.78 64.08C224.822 64.1201 224.855 64.1682 224.877 64.2215C224.9 64.2748 224.912 64.3321 224.912 64.39C224.912 64.4479 224.9 64.5052 224.877 64.5585C224.855 64.6117 224.822 64.6599 224.78 64.7C224.738 64.7413 224.688 64.7733 224.633 64.794C224.577 64.8147 224.519 64.8235 224.46 64.82Z" fill="#231F20"/>
<path d="M204.62 45.06H195.1L185.56 24.43H195.07L204.62 45.06Z" fill="#231F20"/>
<path d="M204.71 46.28C204.71 46.28 205.05 40.7 204.71 40.28C204.37 39.86 201.21 36.08 200.92 36.89C200.783 38.1772 201.023 39.4763 201.61 40.63C202.07 41.43 203.51 43.63 203.51 43.63" fill="white"/>
<path d="M204.71 46.74C204.589 46.7298 204.476 46.673 204.396 46.5817C204.316 46.4903 204.274 46.3714 204.28 46.25C204.456 44.3184 204.489 42.3765 204.38 40.44C203.496 39.291 202.49 38.2415 201.38 37.31C201.4 38.3503 201.646 39.3738 202.1 40.31C202.54 41.09 203.96 43.25 203.98 43.31C204.013 43.3597 204.037 43.4156 204.048 43.4744C204.06 43.5331 204.059 43.5936 204.047 43.6523C204.035 43.711 204.012 43.7667 203.978 43.8161C203.944 43.8655 203.9 43.9076 203.85 43.94C203.747 44.0055 203.623 44.0285 203.504 44.0043C203.384 43.98 203.279 43.9104 203.21 43.81C203.21 43.72 201.76 41.6 201.3 40.81C200.84 40.02 200.22 37.71 200.58 36.69C200.617 36.5803 200.685 36.4834 200.775 36.4108C200.866 36.3382 200.975 36.2928 201.09 36.28C202.2 36.15 205.17 39.96 205.19 40C205.43 40.39 205.44 42.51 205.19 46.31C205.187 46.37 205.173 46.4289 205.147 46.4832C205.122 46.5375 205.085 46.5861 205.041 46.6262C204.996 46.6663 204.944 46.697 204.887 46.7165C204.83 46.7361 204.77 46.744 204.71 46.74Z" fill="#231F20"/>
<path d="M191.22 38C191.27 37.6793 191.414 37.3806 191.633 37.1406C191.851 36.9007 192.135 36.7301 192.45 36.65C192.776 36.6248 193.103 36.68 193.403 36.8107C193.703 36.9415 193.966 37.1438 194.17 37.4C195.31 38.6 196.48 42.16 194.34 43.02C192.2 43.88 190.92 39.51 191.22 38Z" fill="white"/>
<path d="M193.74 43.59C193.271 43.5863 192.82 43.4122 192.47 43.1C191.13 42 190.52 39.19 190.78 37.9C190.845 37.4891 191.031 37.1069 191.314 36.8022C191.597 36.4976 191.965 36.2844 192.37 36.19C192.771 36.1473 193.177 36.2065 193.549 36.3621C193.921 36.5176 194.248 36.7646 194.5 37.08C195.045 37.7127 195.452 38.4522 195.695 39.2512C195.937 40.0502 196.011 40.891 195.91 41.72C195.844 42.1017 195.681 42.46 195.436 42.7597C195.19 43.0594 194.871 43.2903 194.51 43.43C194.266 43.5338 194.005 43.5881 193.74 43.59ZM192.67 37.08H192.53C192.307 37.1489 192.108 37.2793 191.956 37.4562C191.804 37.6331 191.705 37.8493 191.67 38.08C191.601 38.8556 191.688 39.6372 191.925 40.3789C192.162 41.1206 192.544 41.8077 193.05 42.4C193.195 42.5416 193.38 42.6355 193.58 42.6695C193.78 42.7034 193.986 42.6757 194.17 42.59C194.392 42.5033 194.588 42.3598 194.737 42.1737C194.886 41.9877 194.984 41.7657 195.02 41.53C195.088 40.846 195.017 40.1554 194.813 39.4992C194.608 38.843 194.274 38.2345 193.83 37.71C193.535 37.3638 193.121 37.1393 192.67 37.08Z" fill="#231F20"/>
<path d="M227 40.91C226.923 40.9098 226.847 40.8894 226.781 40.8508C226.714 40.8122 226.659 40.7567 226.62 40.69C225.89 39.4154 225.461 37.991 225.366 36.5253C225.27 35.0597 225.511 33.5917 226.07 32.2333C226.628 30.8749 227.49 29.6622 228.589 28.6876C229.688 27.713 230.995 27.0024 232.41 26.61C232.524 26.5817 232.644 26.5981 232.747 26.6557C232.849 26.7134 232.925 26.8079 232.96 26.92C232.988 27.0339 232.972 27.1543 232.914 27.2566C232.857 27.3588 232.762 27.4352 232.65 27.47C231.365 27.8262 230.179 28.4709 229.181 29.3551C228.183 30.2393 227.4 31.3395 226.892 32.5721C226.384 33.8046 226.163 35.137 226.248 36.4675C226.333 37.7981 226.72 39.0917 227.38 40.25C227.419 40.3168 227.439 40.3926 227.439 40.4697C227.439 40.5469 227.419 40.6227 227.38 40.6895C227.342 40.7564 227.286 40.812 227.22 40.8506C227.153 40.8893 227.077 40.9098 227 40.91Z" fill="#231F20"/>
<path d="M229.52 89.12C229.457 89.1304 229.393 89.1304 229.33 89.12C229.269 89.0959 229.213 89.0598 229.166 89.0138C229.12 88.9678 229.082 88.9128 229.057 88.8522C229.032 88.7915 229.019 88.7265 229.02 88.6608C229.02 88.5952 229.034 88.5303 229.06 88.47L234.58 75.27C234.623 75.1667 234.7 75.081 234.798 75.0266C234.896 74.9722 235.009 74.9523 235.12 74.97C235.231 74.9895 235.332 75.0452 235.408 75.1284C235.484 75.2117 235.531 75.3177 235.54 75.43L236.15 83.43C236.155 83.4952 236.148 83.5608 236.127 83.623C236.107 83.6851 236.075 83.7426 236.032 83.792C235.989 83.8414 235.936 83.8817 235.878 83.9106C235.819 83.9394 235.755 83.9562 235.69 83.96C235.559 83.9683 235.43 83.9247 235.331 83.8386C235.232 83.7525 235.17 83.6309 235.16 83.5L234.7 77.58L230 88.81C229.96 88.9037 229.893 88.9833 229.807 89.0385C229.722 89.0938 229.622 89.1222 229.52 89.12Z" fill="white"/>
<path d="M195.48 90.23C195.48 90.23 196.64 63.33 197.15 62.92C197.66 62.51 214.93 64.83 214.93 64.83L211.11 90.5L195.48 90.23Z" fill="#231F20"/>
<path d="M167.8 210.43C167.8 210.43 167.5 216.73 170.16 217.85C176.16 220.38 196.97 208.68 194.35 205.53C191.73 202.38 184.83 204.22 184.83 204.22" fill="white"/>
<path d="M172.2 218.68C171.436 218.705 170.675 218.579 169.96 218.31C167.07 217.09 167.27 211.08 167.3 210.4C167.301 210.334 167.316 210.27 167.343 210.21C167.37 210.15 167.409 210.096 167.458 210.052C167.507 210.008 167.564 209.975 167.626 209.954C167.689 209.933 167.755 209.924 167.82 209.93C167.886 209.933 167.95 209.948 168.01 209.976C168.07 210.003 168.123 210.042 168.168 210.09C168.212 210.139 168.247 210.195 168.27 210.257C168.292 210.319 168.303 210.384 168.3 210.45C168.22 212.11 168.44 216.58 170.3 217.39C175.07 219.39 190.3 211.71 193.5 207.33C193.85 206.85 194.21 206.21 193.91 205.85C191.53 202.99 184.97 204.69 184.91 204.71C184.777 204.744 184.637 204.725 184.518 204.655C184.4 204.586 184.314 204.473 184.28 204.34C184.246 204.207 184.265 204.067 184.335 203.948C184.404 203.83 184.517 203.744 184.65 203.71C184.95 203.63 191.89 201.83 194.65 205.18C195.05 205.66 195.3 206.51 194.27 207.89C191.29 212.06 178.7 218.68 172.2 218.68Z" fill="#231F20"/>
<path d="M137.41 204.84C137.41 204.84 134.09 215.32 139.33 215.67C147.7 216.22 165.88 204.92 161.16 202.04C156.44 199.16 143.43 202.22 143.43 202.22" fill="white"/>
<path d="M140 216.19C139.77 216.19 139.55 216.19 139.33 216.19C138.825 216.176 138.332 216.042 137.89 215.799C137.448 215.555 137.071 215.209 136.79 214.79C134.79 211.79 136.88 205 136.97 204.71C137.011 204.584 137.101 204.48 137.219 204.42C137.337 204.36 137.474 204.349 137.6 204.39C137.663 204.409 137.722 204.441 137.772 204.483C137.823 204.526 137.864 204.578 137.894 204.637C137.924 204.696 137.942 204.76 137.946 204.826C137.951 204.892 137.942 204.958 137.92 205.02C137.92 205.08 135.86 211.65 137.62 214.23C137.814 214.528 138.078 214.774 138.387 214.948C138.697 215.122 139.045 215.219 139.4 215.23C145.12 215.61 159.9 208.51 161.4 203.82C161.502 203.588 161.513 203.326 161.43 203.086C161.346 202.847 161.175 202.648 160.95 202.53C156.46 199.79 143.72 202.73 143.6 202.76C143.534 202.775 143.466 202.777 143.4 202.766C143.333 202.755 143.27 202.731 143.213 202.695C143.156 202.659 143.106 202.612 143.067 202.558C143.028 202.503 143 202.441 142.985 202.375C142.97 202.309 142.968 202.241 142.979 202.175C142.99 202.108 143.014 202.045 143.05 201.988C143.086 201.931 143.132 201.881 143.187 201.842C143.242 201.803 143.304 201.775 143.37 201.76C143.91 201.63 156.64 198.69 161.47 201.64C161.885 201.876 162.202 202.253 162.363 202.702C162.524 203.152 162.52 203.644 162.35 204.09C160.92 208.41 147.48 216.18 140 216.19Z" fill="#231F20"/>
<path d="M133 93.92C133 93.92 125.31 116.98 130.55 118.37C135.79 119.76 146.27 112.43 146.27 112.43L143 90.6L133 93.92Z" fill="white"/>
<path d="M132.06 119C131.527 119.005 130.996 118.941 130.48 118.81C130.155 118.717 129.854 118.557 129.595 118.34C129.337 118.123 129.127 117.854 128.98 117.55C126.35 112.67 132.35 94.55 132.61 93.77C132.629 93.7009 132.666 93.638 132.717 93.5872C132.768 93.5364 132.831 93.4995 132.9 93.48L142.85 90.16C142.909 90.1301 142.974 90.1146 143.04 90.1146C143.106 90.1146 143.171 90.1301 143.23 90.16C143.288 90.1935 143.338 90.2397 143.376 90.295C143.414 90.3504 143.439 90.4136 143.45 90.48L146.77 112.32C146.781 112.404 146.769 112.489 146.735 112.566C146.702 112.643 146.648 112.71 146.58 112.76C146.18 113.09 137.65 119 132.06 119ZM133.4 94.27C132.72 96.36 127.49 112.85 129.79 117.12C129.877 117.312 130.004 117.483 130.162 117.621C130.321 117.759 130.508 117.861 130.71 117.92C135.27 119.14 144.26 113.26 145.82 112.21L142.63 91.21L133.4 94.27Z" fill="#231F20"/>
<path d="M138.28 71.91C138.28 71.91 131.47 88.85 130.42 96.19L139.68 96.37L138.28 71.91Z" fill="#1CC06D"/>
<path d="M179.68 116.63L184.83 204.22C184.83 204.22 185.27 206.58 177.23 209.38C169.19 212.18 167.8 210.43 167.8 210.43C167.8 210.43 163.43 170.25 161.16 146.67L153.16 204.84C153.16 204.84 147.57 212.17 137.44 204.84L140.58 115.93L179.68 116.63Z" fill="#231F20"/>
<path d="M166.79 68.37L166.53 58.81C166.53 58.81 170.46 61.04 171.53 56.45C172.6 51.86 169.53 42.7 169.53 42.7L163.63 43.22C163.82 45.5048 163.877 47.7986 163.8 50.09C163.56 52.996 162.556 55.787 160.89 58.18C159.54 59.98 157.35 59.47 155.12 59.47L154.72 67.33L166.79 68.37Z" fill="white"/>
<path d="M166.79 68.83L154.74 67.83C154.622 67.8198 154.513 67.7637 154.437 67.6739C154.36 67.5841 154.322 67.4678 154.33 67.35L154.72 59.49C154.725 59.3724 154.776 59.2615 154.862 59.1811C154.948 59.1007 155.062 59.0572 155.18 59.06H156.42C158.14 59.14 159.63 59.2 160.58 57.93C162.208 55.5864 163.172 52.8465 163.37 50C163.44 49.39 163.37 44.12 163.25 43.4C163.219 43.3369 163.199 43.2694 163.19 43.2C163.187 43.0829 163.229 42.9691 163.307 42.8817C163.385 42.7944 163.493 42.7401 163.61 42.73L169.51 42.2C169.611 42.194 169.712 42.2209 169.797 42.2768C169.881 42.3327 169.946 42.4145 169.98 42.51C170.1 42.89 172.98 51.86 171.98 56.51C171.956 57.0876 171.789 57.6502 171.494 58.1472C171.198 58.6443 170.784 59.0602 170.289 59.3577C169.793 59.6551 169.231 59.8247 168.653 59.8513C168.076 59.8779 167.501 59.7606 166.98 59.51L167.22 68.35C167.221 68.4804 167.171 68.606 167.08 68.7C167.001 68.7757 166.899 68.8216 166.79 68.83ZM155.22 66.91L166.32 67.91L166.08 58.85C166.077 58.7696 166.095 58.6898 166.134 58.6192C166.173 58.5487 166.23 58.4902 166.3 58.45C166.37 58.4086 166.449 58.3868 166.53 58.3868C166.611 58.3868 166.69 58.4086 166.76 58.45C167.175 58.682 167.632 58.8282 168.104 58.8797C168.577 58.9313 169.055 58.8871 169.51 58.75C169.936 58.5055 170.299 58.1647 170.57 57.755C170.841 57.3452 171.012 56.8777 171.07 56.39C171.96 52.48 169.75 44.92 169.22 43.22L164.16 43.67C164.38 45.52 164.28 50.13 164.28 50.18C164.043 53.172 163.007 56.0455 161.28 58.5C160 60.11 158.16 60 156.34 60C156.09 60 155.83 60 155.57 60L155.22 66.91Z" fill="#231F20"/>
<path d="M182.47 118.72C182.47 118.72 180.55 81.72 172.82 69.16C167.37 60.3 146.75 60.43 139.15 69.6C131.55 78.77 136.36 122.22 136.36 122.22C136.36 122.22 172.78 133.4 182.47 118.72Z" fill="#1CC06D"/>
<path d="M152.18 60.4C152.117 60.4142 152.053 60.4142 151.99 60.4C149.728 59.3765 147.828 57.6928 146.54 55.57C145.898 54.4848 145.522 53.2633 145.442 52.0051C145.362 50.747 145.581 49.4877 146.08 48.33C146.41 47.673 146.798 47.0472 147.24 46.46C147.786 45.7466 148.227 44.9586 148.55 44.12C148.79 43.1937 148.878 42.2345 148.81 41.28C148.782 40.4674 148.829 39.654 148.95 38.85C149.158 37.857 149.562 36.9153 150.137 36.0793C150.712 35.2434 151.447 34.5298 152.3 33.98C153.979 32.906 155.901 32.2731 157.89 32.14C158.21 32.14 158.52 32.09 158.89 32.08C160.957 32.065 162.965 31.3886 164.62 30.15C165.757 29.3941 166.996 28.8048 168.3 28.4C169.263 28.1713 170.263 28.1409 171.238 28.3107C172.214 28.4805 173.144 28.8469 173.973 29.3877C174.803 29.9284 175.513 30.6322 176.062 31.4562C176.611 32.2802 176.986 33.2072 177.166 34.1809C177.345 35.1545 177.324 36.1544 177.105 37.1198C176.886 38.0853 176.472 38.996 175.89 39.7966C175.307 40.5972 174.568 41.271 173.717 41.777C172.866 42.283 171.921 42.6107 170.94 42.74C170.824 42.7514 170.707 42.717 170.616 42.6442C170.525 42.5714 170.465 42.4659 170.45 42.35C170.442 42.2919 170.445 42.2328 170.46 42.1762C170.476 42.1195 170.503 42.0666 170.539 42.0207C170.576 41.9749 170.621 41.9369 170.673 41.9093C170.725 41.8816 170.782 41.8649 170.84 41.86C171.692 41.7345 172.51 41.4386 173.245 40.99C173.98 40.5414 174.617 39.9493 175.118 39.2491C175.619 38.5489 175.974 37.7549 176.161 36.9145C176.349 36.0742 176.365 35.2046 176.209 34.3578C176.053 33.5109 175.728 32.7042 175.254 31.9857C174.779 31.2673 174.165 30.6517 173.447 30.176C172.73 29.7002 171.923 29.3738 171.077 29.2165C170.23 29.0591 169.361 29.0739 168.52 29.26C167.274 29.6212 166.088 30.1637 165 30.87C163.826 31.6551 162.538 32.2523 161.18 32.64C160.42 32.801 159.647 32.8946 158.87 32.92L158 33C156.159 33.12 154.378 33.7012 152.82 34.69C152.061 35.173 151.404 35.8016 150.89 36.5397C150.375 37.2778 150.011 38.1106 149.82 38.99C149.704 39.7374 149.664 40.4946 149.7 41.25C149.766 42.2999 149.661 43.3536 149.39 44.37C149.058 45.2854 148.59 46.1452 148 46.92C147.589 47.4704 147.228 48.056 146.92 48.67C146.482 49.7009 146.294 50.8204 146.371 51.9376C146.447 53.0549 146.786 54.1383 147.36 55.1C148.561 57.061 150.324 58.6151 152.42 59.56C152.472 59.5856 152.518 59.6211 152.556 59.6646C152.595 59.7081 152.624 59.7587 152.642 59.8135C152.661 59.8683 152.669 59.9263 152.665 59.984C152.661 60.0417 152.646 60.0981 152.62 60.15C152.582 60.2328 152.52 60.3017 152.441 60.3466C152.362 60.3915 152.27 60.4102 152.18 60.4Z" fill="#231F20"/>
<path d="M164.67 50.94C164.301 49.9957 163.674 49.1744 162.86 48.57C162.448 48.2802 161.953 48.1322 161.45 48.1484C160.947 48.1647 160.462 48.3442 160.07 48.66C159.815 48.9346 159.632 49.2689 159.54 49.6324C159.447 49.9958 159.447 50.3766 159.54 50.74C159.712 51.4759 160.054 52.1611 160.54 52.74C161.394 53.9349 162.683 54.7466 164.13 55" fill="white"/>
<path d="M164.13 55.46C163.348 55.3317 162.6 55.0479 161.931 54.6253C161.261 54.2028 160.682 53.6501 160.23 53C159.689 52.3769 159.299 51.6379 159.09 50.84C158.979 50.3999 158.982 49.939 159.097 49.5001C159.213 49.0613 159.437 48.6587 159.75 48.33C160.219 47.9459 160.801 47.7246 161.407 47.6994C162.013 47.6741 162.61 47.8463 163.11 48.19C164.003 48.8398 164.696 49.7266 165.11 50.75C165.158 50.8617 165.161 50.9876 165.118 51.1014C165.075 51.2151 164.99 51.3078 164.88 51.36C164.77 51.4075 164.645 51.4101 164.533 51.3671C164.421 51.3242 164.33 51.239 164.28 51.13C163.927 50.2845 163.354 49.549 162.62 49C162.298 48.7605 161.907 48.6312 161.505 48.6312C161.103 48.6312 160.712 48.7605 160.39 49C160.189 49.221 160.047 49.4884 159.975 49.7782C159.904 50.068 159.905 50.371 159.98 50.66C160.17 51.3231 160.513 51.9326 160.98 52.44C161.749 53.5329 162.909 54.2883 164.22 54.55C164.342 54.5566 164.456 54.6114 164.538 54.7024C164.619 54.7934 164.662 54.913 164.655 55.035C164.648 55.157 164.594 55.2714 164.503 55.3529C164.412 55.4345 164.292 55.4766 164.17 55.47L164.13 55.46Z" fill="#231F20"/>
<path d="M174.7 88.07C174.7 88.07 174.96 95.67 176.79 95.54C178.62 95.41 193 84.4 193 84.4C193 84.4 194.05 76.8 195.23 76.54C196.41 76.28 196.15 82.16 196.14 82.3C196.14 81.84 199.14 78.71 199.89 77.73C201.123 75.7524 202.616 73.9496 204.33 72.37C204.83 72.72 204.74 73.48 204.58 74.07C204.059 75.9065 203.324 77.6753 202.39 79.34C202.663 78.6568 203.06 78.0297 203.56 77.49C203.688 77.303 203.865 77.1542 204.071 77.0591C204.277 76.9641 204.504 76.9264 204.73 76.95C204.875 77.01 205.006 77.0984 205.116 77.2101C205.226 77.3217 205.312 77.4543 205.37 77.6C206.92 80.71 203.98 85.4 202.17 87.81C198.24 93.05 182.78 110.16 173.35 112.26C163.92 114.36 160.77 94.36 160.77 94.36" fill="white"/>
<path d="M172 112.87C170.684 112.864 169.402 112.452 168.33 111.69C162.48 107.69 160.42 94.97 160.33 94.43C160.32 94.3708 160.322 94.3102 160.336 94.2518C160.35 94.1934 160.375 94.1384 160.41 94.0899C160.446 94.0415 160.491 94.0006 160.542 93.9697C160.593 93.9388 160.651 93.9185 160.71 93.91C160.769 93.9 160.83 93.902 160.888 93.9159C160.946 93.9297 161.002 93.955 161.05 93.9904C161.098 94.0258 161.139 94.0706 161.17 94.122C161.201 94.1735 161.221 94.2306 161.23 94.29C161.23 94.41 163.32 107.17 168.84 110.93C169.471 111.384 170.192 111.697 170.955 111.849C171.717 112.001 172.503 111.988 173.26 111.81C182.7 109.72 198.26 92.28 201.81 87.53C203.26 85.61 206.46 80.8 204.97 77.81C204.85 77.57 204.73 77.43 204.61 77.39C204.45 77.39 204.18 77.49 203.91 77.79C203.72 77.9961 203.546 78.2168 203.39 78.45C203.2 78.83 203 79.2 202.79 79.57C202.735 79.6712 202.643 79.7474 202.533 79.7828C202.423 79.8181 202.304 79.81 202.2 79.76C202.093 79.7098 202.01 79.6206 201.967 79.5109C201.924 79.4011 201.925 79.2791 201.97 79.17C202.138 78.7556 202.349 78.36 202.6 77.99C203.237 76.7066 203.756 75.3677 204.15 73.99C204.239 73.6989 204.27 73.393 204.24 73.09C202.93 74.3674 201.767 75.786 200.77 77.32L200.27 78.03C199.98 78.44 199.27 79.18 198.64 79.96C197.92 80.7349 197.251 81.5567 196.64 82.42C196.627 82.5324 196.571 82.6354 196.483 82.7065C196.395 82.7776 196.283 82.8112 196.17 82.8C196.05 82.7923 195.937 82.7376 195.857 82.6479C195.776 82.5581 195.734 82.4404 195.74 82.32C195.84 79.91 195.65 77.55 195.32 77.07C194.78 77.59 193.95 81.26 193.5 84.5C193.493 84.5589 193.475 84.6158 193.446 84.6673C193.416 84.7189 193.377 84.764 193.33 84.8C190.9 86.66 178.71 95.9 176.84 96.03C176.679 96.0378 176.519 96.0135 176.368 95.9586C176.217 95.9036 176.078 95.8191 175.96 95.71C174.51 94.4 174.27 88.71 174.25 88.12C174.266 88.0109 174.321 87.9113 174.405 87.8393C174.488 87.7672 174.595 87.7276 174.705 87.7276C174.815 87.7276 174.922 87.7672 175.005 87.8393C175.089 87.9113 175.144 88.0109 175.16 88.12C175.24 90.39 175.69 94.27 176.57 95.06C176.68 95.15 176.75 95.16 176.77 95.15C178 95.06 187.08 88.45 192.62 84.22C193.04 81.22 193.91 76.45 195.18 76.16C195.299 76.1346 195.423 76.1377 195.541 76.169C195.66 76.2002 195.769 76.2588 195.86 76.34C196.54 76.91 196.68 79.21 196.68 80.89C197 80.51 197.43 80.02 197.99 79.38C198.55 78.74 199.3 77.9 199.57 77.53L200.06 76.83C201.173 75.0766 202.519 73.4821 204.06 72.09C204.137 72.03 204.232 71.9974 204.33 71.9974C204.428 71.9974 204.523 72.03 204.6 72.09C205.01 72.36 205.41 72.97 205.04 74.29C204.821 75.0699 204.56 75.8376 204.26 76.59C204.463 76.5332 204.677 76.5332 204.88 76.59C205.087 76.6626 205.276 76.7787 205.435 76.9305C205.594 77.0822 205.718 77.2662 205.8 77.47C207.45 80.79 204.48 85.59 202.55 88.15C198.95 92.96 183.15 110.62 173.47 112.78C172.985 112.864 172.492 112.894 172 112.87Z" fill="#231F20"/>
<path d="M157.76 95.15C157.675 95.1483 157.592 95.1241 157.52 95.08C157.458 95.042 157.406 94.9893 157.37 94.9264C157.333 94.8636 157.313 94.7927 157.31 94.72L156.79 76.72C156.787 76.6619 156.796 76.6038 156.817 76.5493C156.837 76.4948 156.868 76.445 156.909 76.4029C156.949 76.3609 156.997 76.3274 157.051 76.3045C157.104 76.2817 157.162 76.2699 157.22 76.27C157.279 76.2658 157.337 76.2739 157.392 76.2937C157.448 76.3136 157.498 76.3448 157.54 76.3853C157.583 76.4258 157.616 76.4747 157.638 76.5289C157.661 76.5831 157.672 76.6414 157.67 76.7L158.18 94L174.26 87.17C174.365 87.1414 174.477 87.1517 174.574 87.199C174.672 87.2463 174.75 87.3275 174.792 87.4275C174.835 87.5275 174.84 87.6395 174.807 87.7429C174.773 87.8463 174.703 87.9341 174.61 87.99L157.93 95.06C157.882 95.1041 157.823 95.1351 157.76 95.15Z" fill="#231F20"/>
<path d="M159.07 145.07C158.984 145.07 158.899 145.049 158.823 145.007C158.748 144.965 158.685 144.904 158.64 144.83C158.43 144.48 153.64 136.27 152.98 129.6C152.973 129.536 152.979 129.47 152.997 129.408C153.016 129.346 153.046 129.288 153.087 129.238C153.128 129.188 153.179 129.146 153.236 129.116C153.293 129.085 153.355 129.066 153.42 129.06C153.485 129.05 153.552 129.054 153.616 129.071C153.68 129.088 153.739 129.119 153.791 129.16C153.843 129.201 153.885 129.253 153.916 129.311C153.947 129.37 153.965 129.434 153.97 129.5C154.65 135.95 159.45 144.24 159.5 144.32C159.563 144.435 159.579 144.569 159.546 144.696C159.512 144.823 159.431 144.931 159.32 145C159.245 145.046 159.158 145.071 159.07 145.07Z" fill="white"/>
<path d="M171.31 54.14C171.31 54.14 170.03 55.73 168.59 54.61L171.31 54.14Z" fill="white"/>
<path d="M169.66 55.47C169.166 55.461 168.69 55.2847 168.31 54.97C168.258 54.9341 168.215 54.888 168.182 54.8347C168.149 54.7813 168.127 54.7217 168.118 54.6597C168.109 54.5976 168.112 54.5343 168.129 54.4737C168.145 54.413 168.173 54.3564 168.212 54.3072C168.251 54.258 168.3 54.2173 168.355 54.1876C168.41 54.1578 168.471 54.1398 168.534 54.1344C168.596 54.129 168.659 54.1365 168.719 54.1564C168.778 54.1763 168.833 54.2081 168.88 54.25C169.042 54.3611 169.224 54.4389 169.416 54.4789C169.608 54.5189 169.806 54.5204 169.999 54.4832C170.191 54.4459 170.374 54.3708 170.538 54.2621C170.701 54.1534 170.841 54.0133 170.95 53.85C170.988 53.8025 171.035 53.7629 171.088 53.7336C171.141 53.7044 171.2 53.6859 171.26 53.6794C171.321 53.6729 171.382 53.6785 171.44 53.6957C171.498 53.713 171.553 53.7416 171.6 53.78C171.691 53.8577 171.749 53.9672 171.762 54.0861C171.775 54.205 171.742 54.3244 171.67 54.42C171.429 54.7279 171.125 54.9808 170.778 55.1618C170.432 55.3429 170.05 55.448 169.66 55.47Z" fill="#231F20"/>
<path d="M74.6298 140.05L74.0898 184.11C74.0898 184.11 95.6198 187.75 96.1698 186.99C96.7198 186.23 84.3898 178.99 84.3898 178.99L86.1199 142.68" fill="white"/>
<path d="M95.3299 187.54C93.3299 187.54 88.1799 187 73.9999 184.61C73.8834 184.589 73.7783 184.527 73.7032 184.435C73.6281 184.344 73.588 184.228 73.5899 184.11L74.1299 140.05C74.1299 139.917 74.1826 139.79 74.2764 139.696C74.3701 139.603 74.4973 139.55 74.6299 139.55C74.7626 139.555 74.8883 139.611 74.9813 139.706C75.0743 139.8 75.1275 139.927 75.1299 140.06L74.5899 183.69C81.6599 184.88 92.4199 186.53 95.2799 186.6C91.7072 183.993 87.9841 181.599 84.1299 179.43C84.0517 179.383 83.9879 179.315 83.9456 179.234C83.9033 179.152 83.884 179.061 83.8899 178.97L85.6199 142.67C85.6225 142.603 85.6383 142.538 85.6664 142.478C85.6946 142.417 85.7345 142.363 85.7839 142.318C85.8333 142.274 85.8911 142.239 85.9539 142.217C86.0168 142.195 86.0834 142.186 86.1499 142.19C86.2152 142.193 86.2793 142.208 86.3384 142.236C86.3976 142.263 86.4506 142.303 86.4944 142.351C86.5382 142.399 86.5718 142.456 86.5934 142.518C86.6149 142.579 86.624 142.645 86.6199 142.71L84.8999 178.71C89.3099 181.3 96.4299 185.64 96.6699 186.78C96.6981 186.95 96.6625 187.125 96.5699 187.27C96.4999 187.39 96.3799 187.54 95.3299 187.54Z" fill="#231F20"/>
<path d="M88.8599 180.1L84.7199 183.51L73.3799 181.4L73.1499 185.92C73.1499 185.92 98.1499 190.41 99.4199 188.37C100.69 186.33 88.8599 180.1 88.8599 180.1Z" fill="#231F20"/>
<path d="M95.9399 143.17L96.5699 184.73C96.5699 184.73 118.1 188.37 118.65 187.61C119.2 186.85 106.87 179.61 106.87 179.61L109.69 141.61" fill="white"/>
<path d="M117.81 188.16C115.81 188.16 110.67 187.62 96.48 185.22C96.3652 185.203 96.2604 185.145 96.185 185.057C96.1097 184.969 96.0688 184.856 96.07 184.74L95.44 143.18C95.4387 143.113 95.4507 143.047 95.4752 142.986C95.4997 142.924 95.5363 142.867 95.5829 142.82C95.6295 142.772 95.685 142.735 95.7464 142.709C95.8077 142.683 95.8735 142.67 95.94 142.67C96.0052 142.669 96.07 142.68 96.1306 142.704C96.1912 142.728 96.2464 142.764 96.293 142.81C96.3396 142.856 96.3766 142.91 96.4018 142.97C96.4271 143.03 96.4401 143.095 96.44 143.16L97.06 184.31C104.13 185.5 114.89 187.15 117.76 187.22C114.187 184.613 110.464 182.219 106.61 180.05C106.53 180.002 106.465 179.932 106.423 179.849C106.381 179.766 106.362 179.673 106.37 179.58L109.19 141.53C109.194 141.465 109.211 141.401 109.239 141.342C109.268 141.283 109.309 141.231 109.358 141.188C109.407 141.145 109.465 141.113 109.527 141.093C109.589 141.072 109.655 141.065 109.72 141.07C109.787 141.074 109.852 141.091 109.912 141.12C109.972 141.15 110.025 141.191 110.069 141.241C110.113 141.291 110.146 141.35 110.167 141.413C110.188 141.477 110.195 141.544 110.19 141.61L107.39 179.34C111.8 181.93 118.91 186.26 119.15 187.41C119.177 187.58 119.142 187.754 119.05 187.9C119 188 118.86 188.16 117.81 188.16Z" fill="#231F20"/>
<path d="M111.34 180.72L107.2 184.13L95.8599 182L95.6299 186.52C95.6299 186.52 120.63 191.01 121.9 188.97C123.17 186.93 111.34 180.72 111.34 180.72Z" fill="#231F20"/>
<path d="M68.16 78.26C64.33 104.13 70.31 164.26 70.31 164.26L88.68 163.86L94 106.44L94.32 163.77L110.32 164.49C110.32 164.49 117.03 124.41 116.07 100.77C115.11 77.13 110.32 74.19 110.32 74.19L68.16 78.26Z" fill="#231F20"/>
<path d="M87.4798 33.05C87.4798 33.05 75.3198 32.99 69.8098 40.42C64.2998 47.85 64.0598 52.15 64.0598 52.15L75.0598 55.62L73.6198 77.9L111.47 75.15L110.75 55.27L117.69 52.87C117.69 52.87 113.86 35.39 98.0498 34.19C82.2398 32.99 87.4798 33.05 87.4798 33.05Z" fill="#1CC06D"/>
<path d="M98.7 27.93L98.28 35.54C98.28 35.54 97.34 39.79 92.73 38.3C91.3674 37.8499 90.122 37.1022 89.0842 36.1112C88.0465 35.1201 87.2423 33.9104 86.73 32.57C86.73 32.57 88.1 13.98 88.22 12.63C88.98 13.03 91.15 14 91.99 13.72C92.83 13.44 93.1 10.86 93.24 10.03C93.8916 11.1586 94.3099 12.4066 94.47 13.7L97.63 13.96C98.0996 12.8565 98.3411 11.6693 98.34 10.47C98.9684 11.5268 99.3448 12.7142 99.44 13.94C100.33 13.99 103.68 13.63 104.2 14.38C104.95 15.5 105.11 22.9 102.94 25.38C100.77 27.86 98.7 27.93 98.7 27.93Z" fill="white"/>
<path d="M94.5599 39.07C93.8793 39.0649 93.204 38.9501 92.5599 38.73C91.1331 38.2639 89.8295 37.4825 88.7458 36.4438C87.6621 35.4051 86.8261 34.1358 86.2999 32.73C86.2851 32.6709 86.2851 32.6091 86.2999 32.55C86.2999 31.79 87.6699 13.95 87.7899 12.61C87.7955 12.5344 87.8206 12.4615 87.8626 12.3985C87.9047 12.3354 87.9623 12.2842 88.0299 12.25C88.0964 12.2158 88.1701 12.1979 88.2449 12.1979C88.3197 12.1979 88.3934 12.2158 88.4599 12.25C89.4599 12.8 91.2999 13.48 91.8599 13.3C92.0299 13.24 92.3699 12.78 92.7499 10.3L92.8099 9.95C92.8237 9.85671 92.8665 9.77011 92.9322 9.70244C92.9979 9.63477 93.0831 9.58944 93.176 9.57286C93.2688 9.55629 93.3645 9.5693 93.4496 9.61005C93.5346 9.65081 93.6047 9.71725 93.6499 9.8C94.2714 10.8749 94.6916 12.0542 94.8899 13.28L97.3499 13.48C97.7161 12.5223 97.9026 11.5053 97.8999 10.48C97.898 10.3792 97.9293 10.2805 97.9889 10.1992C98.0485 10.1179 98.1332 10.0585 98.2299 10.03C98.3277 10.0045 98.431 10.0111 98.5247 10.0489C98.6183 10.0868 98.6973 10.1538 98.7499 10.24C99.3449 11.2338 99.7263 12.3406 99.8699 13.49H100.48C102.48 13.42 104.11 13.43 104.59 14.15C105.48 15.46 105.59 23.09 103.3 25.7C102.249 27.0284 100.779 27.9623 99.1299 28.35C99.1299 29.01 98.9899 30.79 98.7299 35.58C98.445 36.8197 97.6834 37.8974 96.6099 38.58C95.9815 38.9205 95.2744 39.0895 94.5599 39.07ZM87.2299 32.5C87.7237 33.751 88.484 34.8793 89.458 35.8067C90.432 36.7341 91.5963 37.4382 92.8699 37.87C93.3947 38.0861 93.9595 38.1881 94.5268 38.1691C95.094 38.1502 95.6507 38.0107 96.1599 37.76C96.9916 37.2274 97.5888 36.3977 97.8299 35.44C97.8299 35.44 98.2399 28.03 98.2499 27.91C98.2548 27.7949 98.3028 27.6858 98.3842 27.6043C98.4657 27.5228 98.5748 27.4749 98.6899 27.47C100.26 27.2062 101.67 26.351 102.63 25.08C104.63 22.75 104.44 15.52 103.85 14.64C103.56 14.28 101.27 14.36 100.52 14.38C100.06 14.38 99.6699 14.38 99.4399 14.38C99.3329 14.381 99.2292 14.343 99.1482 14.273C99.0672 14.2031 99.0145 14.106 98.9999 14C98.9495 13.4045 98.8287 12.817 98.6399 12.25C98.5182 12.9095 98.3237 13.5534 98.0599 14.17C98.0212 14.2582 97.9563 14.3323 97.874 14.3824C97.7917 14.4325 97.6961 14.4561 97.5999 14.45L94.4399 14.19C94.3371 14.1778 94.2411 14.132 94.167 14.0597C94.0928 13.9873 94.0446 13.8925 94.0299 13.79C93.9299 13.0233 93.7385 12.2713 93.4599 11.55C93.2099 12.84 92.8499 13.93 92.1499 14.18C91.2699 14.48 89.5499 13.79 88.6299 13.37C88.3799 16.78 87.3199 31.18 87.2299 32.5Z" fill="#231F20"/>
<path d="M88.9998 18.06C88.9037 17.4913 88.6267 16.9687 88.2098 16.57C87.7977 16.2206 87.3317 15.9403 86.8299 15.74C86.5663 15.6046 86.276 15.5295 85.9799 15.52C85.7706 15.5365 85.5667 15.5943 85.3798 15.69C84.9133 15.8782 84.5348 16.2352 84.3198 16.69C84.1783 17.0592 84.1302 17.4577 84.1798 17.85C84.1928 18.2816 84.2669 18.7092 84.3999 19.12C84.6856 19.9431 85.2862 20.6192 86.0698 21C86.8532 21.3701 87.75 21.4203 88.5698 21.14" fill="white"/>
<path d="M87.4799 21.67C86.7145 21.6792 85.9659 21.4463 85.3409 21.0044C84.7159 20.5626 84.2465 19.9346 83.9999 19.21C83.8579 18.763 83.7771 18.2987 83.7599 17.83C83.7083 17.3721 83.7701 16.9084 83.9399 16.48C84.2061 15.9599 84.6494 15.552 85.1899 15.33C85.4651 15.1823 85.7743 15.1092 86.0865 15.118C86.3988 15.1267 86.7033 15.2171 86.9699 15.38C87.5153 15.5906 88.0196 15.8952 88.4599 16.28C88.9459 16.7376 89.269 17.3417 89.3799 18C89.3945 18.1044 89.3685 18.2104 89.307 18.2961C89.2455 18.3818 89.1535 18.4405 89.0499 18.46C88.998 18.4686 88.9449 18.4668 88.8937 18.4549C88.8425 18.443 88.7942 18.421 88.7514 18.3904C88.7087 18.3597 88.6725 18.3209 88.6447 18.2763C88.617 18.2316 88.5984 18.1819 88.5899 18.13C88.5092 17.6433 88.2702 17.1969 87.9099 16.86C87.5338 16.5401 87.1082 16.2834 86.6499 16.1C86.4415 15.994 86.2133 15.9327 85.9799 15.92C85.8217 15.9271 85.6675 15.9717 85.5299 16.05C85.1609 16.1955 84.8536 16.4639 84.6599 16.81C84.5435 17.1297 84.5058 17.4727 84.5499 17.81C84.5673 18.2044 84.6379 18.5946 84.7599 18.97C84.8812 19.3261 85.072 19.6545 85.3212 19.9362C85.5705 20.2179 85.8733 20.4473 86.2119 20.611C86.5505 20.7748 86.9183 20.8696 87.2939 20.89C87.6695 20.9104 88.0455 20.8561 88.3999 20.73C88.4994 20.6972 88.6078 20.7038 88.7026 20.7485C88.7975 20.7931 88.8717 20.8724 88.9099 20.97C88.9288 21.0192 88.9376 21.0716 88.9357 21.1243C88.9338 21.1769 88.9212 21.2286 88.8988 21.2763C88.8764 21.3239 88.8445 21.3666 88.8052 21.4016C88.7658 21.4366 88.7198 21.4633 88.6699 21.48C88.2865 21.609 87.8843 21.6732 87.4799 21.67Z" fill="#231F20"/>
<path d="M98.3999 30.92C98.3999 30.92 95.2299 31.65 93.3099 29.5C92.7644 28.9494 92.345 28.2869 92.0809 27.5582C91.8167 26.8296 91.714 26.0522 91.7799 25.28C91.7799 25.28 95.5499 28.47 98.6699 28.08L98.3999 30.92Z" fill="#231F20"/>
<path d="M97.13 31.49C96.3615 31.5144 95.5964 31.3765 94.8848 31.0853C94.1732 30.7941 93.5309 30.3561 93 29.8C92.4097 29.1978 91.9573 28.4746 91.6742 27.6803C91.391 26.8861 91.2838 26.0398 91.36 25.2C91.3752 25.1244 91.41 25.0541 91.4608 24.9962C91.5117 24.9383 91.577 24.8948 91.65 24.87C91.7212 24.8412 91.799 24.8325 91.8748 24.8449C91.9506 24.8572 92.0216 24.8901 92.08 24.94C92.08 24.94 95.75 27.99 98.64 27.64C98.705 27.6345 98.7705 27.6423 98.8324 27.6629C98.8943 27.6835 98.9513 27.7166 99 27.76C99.0468 27.8067 99.0827 27.8633 99.1052 27.9255C99.1276 27.9877 99.1361 28.0541 99.13 28.12L98.84 31C98.8328 31.0919 98.7957 31.1788 98.7343 31.2475C98.6728 31.3162 98.5905 31.3627 98.5 31.38C98.0493 31.4709 97.5894 31.5078 97.13 31.49ZM92.21 26.17C92.3574 27.296 92.8581 28.3464 93.64 29.17C94.2078 29.7255 94.8982 30.1398 95.6556 30.3795C96.4129 30.6192 97.2159 30.6776 98 30.55L98.19 28.55C95.86 28.58 93.39 27 92.21 26.17Z" fill="#231F20"/>
<path d="M98.1198 16.61C98.1198 16.61 100.43 20.38 99.8199 21C99.2099 21.62 97.5898 21.12 97.5898 21.12" fill="white"/>
<path d="M98.8 21.75C98.3465 21.7418 97.896 21.6746 97.46 21.55C97.3472 21.5155 97.2528 21.4377 97.1975 21.3336C97.1422 21.2295 97.1305 21.1077 97.1649 20.995C97.1994 20.8823 97.2773 20.7879 97.3814 20.7326C97.4854 20.6772 97.6072 20.6655 97.72 20.7C98.27 20.86 99.2199 20.97 99.5099 20.7C99.1518 19.3223 98.5526 18.0188 97.74 16.85C97.7092 16.8003 97.6887 16.7449 97.6795 16.6871C97.6704 16.6293 97.6729 16.5703 97.6869 16.5135C97.7009 16.4567 97.726 16.4033 97.7609 16.3563C97.7958 16.3093 97.8396 16.2698 97.89 16.24C97.9389 16.2095 97.9935 16.1891 98.0505 16.1801C98.1076 16.1711 98.1658 16.1737 98.2218 16.1877C98.2778 16.2017 98.3304 16.2268 98.3764 16.2616C98.4225 16.2963 98.4611 16.34 98.49 16.39C99.63 18.24 100.85 20.6 100.14 21.32C99.7668 21.6333 99.2857 21.7877 98.8 21.75Z" fill="#231F20"/>
<path d="M94.1613 17.4992C94.4931 17.4409 94.6953 17.0143 94.613 16.5465C94.5307 16.0788 94.195 15.7469 93.8632 15.8053C93.5314 15.8636 93.3292 16.2902 93.4115 16.758C93.4938 17.2257 93.8295 17.5576 94.1613 17.4992Z" fill="#231F20"/>
<path d="M101.647 18.6438C101.979 18.5854 102.181 18.1589 102.099 17.6911C102.017 17.2233 101.681 16.8914 101.349 16.9498C101.017 17.0082 100.815 17.4348 100.897 17.9025C100.98 18.3703 101.315 18.7022 101.647 18.6438Z" fill="#231F20"/>
<path d="M100.49 23.09C100.49 23.09 98.1499 26.27 94.3899 22.97L100.49 23.09Z" fill="white"/>
<path d="M97.6999 24.91C96.3435 24.8312 95.0628 24.2585 94.0999 23.3C94.0197 23.2212 93.9727 23.1146 93.9686 23.0023C93.9644 22.8899 94.0035 22.7802 94.0777 22.6957C94.152 22.6113 94.2557 22.5584 94.3677 22.548C94.4797 22.5377 94.5914 22.5706 94.6799 22.64C95.1104 23.0823 95.6273 23.4312 96.1985 23.6652C96.7696 23.8991 97.3828 24.0131 97.9999 24C98.8271 23.8877 99.5811 23.4661 100.11 22.82C100.144 22.7723 100.187 22.7318 100.236 22.7009C100.286 22.6699 100.341 22.6492 100.399 22.6399C100.457 22.6306 100.516 22.6329 100.572 22.6466C100.629 22.6604 100.683 22.6853 100.73 22.72C100.824 22.7899 100.887 22.8939 100.906 23.0097C100.925 23.1255 100.897 23.244 100.83 23.34C100.151 24.184 99.1735 24.7352 98.0999 24.88L97.6999 24.91Z" fill="#231F20"/>
<path d="M84.0998 26.53H79.8898C79.8298 26.5292 79.7706 26.5164 79.7157 26.4923C79.6607 26.4683 79.6111 26.4335 79.5698 26.39C79.53 26.3454 79.4997 26.2931 79.4808 26.2363C79.4619 26.1796 79.4548 26.1196 79.4598 26.06L80.2898 13.31C80.4798 10.46 80.7998 7.45 82.4498 4.66C83.3045 2.99776 84.7222 1.69346 86.4498 0.980001C87.3602 0.62137 88.3627 0.569914 89.305 0.83346C90.2473 1.09701 91.0776 1.66113 91.6698 2.44C91.7312 2.53878 91.7519 2.65746 91.7276 2.77118C91.7034 2.88489 91.6361 2.98481 91.5398 3.05C91.4913 3.08165 91.437 3.1034 91.38 3.114C91.323 3.1246 91.2645 3.12383 91.2078 3.11175C91.1511 3.09967 91.0974 3.07652 91.0497 3.04361C91.002 3.0107 90.9612 2.9687 90.9298 2.92C90.4453 2.30977 89.7769 1.87214 89.0238 1.67216C88.2707 1.47218 87.4732 1.52052 86.7498 1.81C85.2146 2.45735 83.9574 3.62607 83.1998 5.11C81.8834 7.66423 81.1976 10.4965 81.1998 13.37L80.3998 25.65H84.1398C84.2565 25.65 84.3684 25.6964 84.451 25.7789C84.5335 25.8614 84.5798 25.9733 84.5798 26.09C84.5798 26.2067 84.5335 26.3186 84.451 26.4011C84.3684 26.4836 84.2565 26.53 84.1398 26.53H84.0998Z" fill="#231F20"/>
<path d="M105.7 30.54C104.436 30.5404 103.174 30.4602 101.92 30.3C101.803 30.2854 101.697 30.2251 101.625 30.1322C101.553 30.0394 101.52 29.9217 101.535 29.805C101.55 29.6883 101.61 29.5822 101.703 29.51C101.796 29.4378 101.913 29.4054 102.03 29.42C103.98 29.6698 105.95 29.7201 107.91 29.57C108.736 25.8795 109.284 22.1324 109.55 18.36C109.864 15.3507 109.681 12.3102 109.01 9.35999C108.335 6.43927 106.586 3.87951 104.11 2.18999C101.76 0.709993 96.03 0.989991 93.53 2.70999C93.4359 2.78027 93.3176 2.81028 93.2014 2.7934C93.0851 2.77652 92.9803 2.71414 92.91 2.61999C92.8397 2.52584 92.8097 2.40763 92.8266 2.29135C92.8435 2.17508 92.9059 2.07027 93 1.99999C95.53 0.249992 101.71 -0.330009 104.56 1.45999C107.222 3.26903 109.103 6.01494 109.83 9.14999C110.531 12.2009 110.723 15.3464 110.4 18.46C110.129 22.3826 109.551 26.2779 108.67 30.11C108.652 30.2021 108.604 30.2856 108.534 30.3472C108.463 30.4088 108.374 30.445 108.28 30.45C107.427 30.51 106.567 30.54 105.7 30.54Z" fill="#231F20"/>
<path d="M129.69 67.96H95.4399L100.23 44.01H134.48L129.69 67.96Z" fill="#231F20"/>
<path d="M129.53 67.8H78.1099V70.32H129.53V67.8Z" fill="#231F20"/>
<path d="M126.82 67.74H97.1199C96.9873 67.74 96.8601 67.6873 96.7663 67.5935C96.6726 67.4998 96.6199 67.3726 96.6199 67.24C96.6199 67.1074 96.6726 66.9802 96.7663 66.8864C96.8601 66.7927 96.9873 66.74 97.1199 66.74H126.82C126.951 66.7426 127.075 66.7964 127.167 66.8899C127.259 66.9834 127.31 67.1091 127.31 67.24C127.311 67.3052 127.3 67.37 127.275 67.4306C127.251 67.4912 127.216 67.5464 127.17 67.593C127.124 67.6395 127.07 67.6765 127.01 67.7018C126.95 67.727 126.885 67.74 126.82 67.74Z" fill="white"/>
<path d="M64.06 52.15C64.06 52.15 58.71 79.62 63.06 83.29C67.41 86.96 106.18 78.18 106.18 78.18L107.3 70.51L75.68 69.88L76.56 55.98" fill="white"/>
<path d="M67.8998 84.65C63.8998 84.65 63.1098 83.96 62.7298 83.65C60.8198 82.02 60.3998 76.18 61.4698 66.3C62.2598 59.04 63.5998 52.14 63.6098 52.08C63.6341 51.9602 63.704 51.8546 63.8048 51.7855C63.9057 51.7165 64.0294 51.6894 64.1498 51.71C64.2691 51.7341 64.3738 51.8045 64.4413 51.9057C64.5088 52.0069 64.5334 52.1307 64.5098 52.25C63.0398 59.82 59.9498 80.08 63.3198 82.95C66.6898 85.82 94.7698 80.28 105.73 77.81L106.73 70.97L75.6298 70.34C75.5057 70.3388 75.387 70.2884 75.2998 70.2C75.2221 70.1038 75.1797 69.9837 75.1798 69.86L76.0598 56C76.0623 55.9391 76.0771 55.8793 76.1034 55.8243C76.1297 55.7693 76.1668 55.7202 76.2127 55.6799C76.2585 55.6397 76.312 55.6093 76.37 55.5904C76.4279 55.5714 76.4891 55.5645 76.5498 55.57C76.6076 55.5687 76.6651 55.5787 76.719 55.5996C76.7729 55.6205 76.8221 55.6518 76.8639 55.6918C76.9057 55.7317 76.9392 55.7795 76.9626 55.8324C76.9859 55.8852 76.9985 55.9422 76.9998 56L76.1498 69.42L107.3 70.05C107.363 70.05 107.426 70.0644 107.483 70.0921C107.54 70.1198 107.591 70.1601 107.63 70.21C107.674 70.2581 107.706 70.3154 107.725 70.3776C107.744 70.4399 107.749 70.5056 107.74 70.57L106.62 78.24C106.604 78.3293 106.563 78.412 106.501 78.4779C106.438 78.5437 106.358 78.5896 106.27 78.61C106.17 78.61 96.4398 80.83 86.2698 82.55C76.8198 84.17 71.2398 84.65 67.8998 84.65Z" fill="#231F20"/>
<path d="M103.58 70.47C103.58 70.47 115.4 68.84 115.24 69.56C115.08 70.28 111.33 72 111.33 72C111.33 72 119.33 69.29 120.11 70C120.89 70.71 117.87 72.87 115.24 74.31C110.75 76.9884 105.687 78.5617 100.47 78.9" fill="white"/>
<path d="M100.47 79.32C100.348 79.32 100.231 79.2715 100.145 79.1853C100.058 79.099 100.01 78.982 100.01 78.86C100.01 78.738 100.058 78.621 100.145 78.5347C100.231 78.4485 100.348 78.4 100.47 78.4C105.577 78.0755 110.534 76.5398 114.93 73.92H115.04C118.11 72.24 119.8 70.71 119.8 70.3C119.24 70.1 115.03 71.23 111.49 72.43C111.435 72.4517 111.376 72.4623 111.317 72.4612C111.257 72.4601 111.199 72.4473 111.145 72.4237C111.09 72.4 111.041 72.3658 111 72.3232C110.959 72.2805 110.927 72.2302 110.905 72.175C110.861 72.0636 110.864 71.9394 110.911 71.8297C110.959 71.72 111.049 71.6338 111.16 71.59C112.272 71.1023 113.345 70.5306 114.37 69.88C112.63 69.88 107.94 70.38 103.67 70.98C103.609 70.9913 103.546 70.9901 103.486 70.9765C103.425 70.963 103.368 70.9374 103.318 70.9012C103.268 70.865 103.225 70.819 103.193 70.766C103.161 70.713 103.14 70.6541 103.131 70.5927C103.122 70.5313 103.126 70.4688 103.142 70.409C103.158 70.3491 103.186 70.293 103.224 70.2442C103.262 70.1954 103.31 70.1548 103.364 70.1249C103.419 70.0949 103.478 70.0763 103.54 70.07C114.9 68.5 115.39 69.07 115.54 69.24C115.593 69.3052 115.632 69.3806 115.654 69.4614C115.676 69.5423 115.682 69.6269 115.67 69.71C115.59 69.9322 115.452 70.1289 115.27 70.28C117.73 69.59 119.86 69.18 120.4 69.67C120.502 69.7619 120.58 69.8774 120.627 70.0064C120.674 70.1354 120.689 70.274 120.67 70.41C120.5 71.89 116.28 74.26 115.44 74.72L115.33 74.78C110.812 77.4686 105.717 79.0388 100.47 79.36V79.32Z" fill="#231F20"/>
<path d="M94.6398 107.42C94.6004 107.43 94.5592 107.43 94.5198 107.42C94.4557 107.406 94.3952 107.379 94.3419 107.341C94.2886 107.303 94.2437 107.254 94.21 107.198C94.1763 107.142 94.1544 107.079 94.1458 107.014C94.1371 106.949 94.1419 106.883 94.1598 106.82L97.8298 92.29C97.8461 92.2262 97.8749 92.1663 97.9144 92.1137C97.9539 92.0611 98.0034 92.0168 98.0601 91.9834C98.1167 91.9499 98.1794 91.928 98.2446 91.9188C98.3098 91.9097 98.3761 91.9135 98.4398 91.93C98.565 91.9652 98.672 92.047 98.7389 92.1585C98.8058 92.27 98.8276 92.4029 98.7998 92.53L95.1198 107C95.1031 107.116 95.0455 107.222 94.9575 107.299C94.8695 107.376 94.7568 107.419 94.6398 107.42Z" fill="white"/>
<path d="M131.64 52C131.126 51.5354 130.479 51.245 129.79 51.17C129.692 51.1576 129.593 51.1654 129.498 51.1929C129.404 51.2205 129.316 51.2671 129.24 51.33C128.98 51.6 129.17 52.05 129.38 52.33C130 53.33 130.66 54.22 131.38 55.12C130.658 54.5169 129.811 54.0829 128.9 53.85C128.578 53.7278 128.222 53.7278 127.9 53.85C127.698 53.9839 127.547 54.1825 127.473 54.4132C127.398 54.644 127.404 54.8932 127.49 55.12C127.67 55.5701 127.955 55.971 128.32 56.29L129.86 57.87C129.213 57.3282 128.426 56.9814 127.59 56.87C127.417 56.8291 127.237 56.8285 127.063 56.8684C126.89 56.9083 126.728 56.9875 126.59 57.1C126.21 57.52 126.59 58.19 126.95 58.6C127.419 59.0825 127.967 59.4816 128.57 59.78L127.34 59.26C127.139 59.1394 126.902 59.0934 126.67 59.13C126.16 59.26 126.14 59.98 126.29 60.48C126.434 61.1299 126.749 61.7295 127.202 62.2166C127.656 62.7037 128.232 63.0605 128.87 63.25C129.367 63.3032 129.871 63.2543 130.349 63.1064C130.827 62.9586 131.269 62.7148 131.65 62.39C132.457 61.7848 133.111 61 133.561 60.0978C134.012 59.1956 134.246 58.2009 134.245 57.1925C134.244 56.1841 134.008 55.1898 133.556 54.2885C133.104 53.3872 132.448 52.6036 131.64 52Z" fill="white"/>
<path d="M129.36 63.81C129.18 63.8248 129 63.8248 128.82 63.81C128.101 63.6032 127.451 63.2074 126.938 62.6639C126.424 62.1204 126.066 61.4491 125.9 60.72C125.743 60.248 125.768 59.7346 125.97 59.28C126.086 59.078 126.265 58.9199 126.48 58.83C126.241 58.6395 126.076 58.372 126.012 58.0732C125.948 57.7744 125.99 57.4627 126.131 57.1914C126.271 56.92 126.501 56.7057 126.782 56.5851C127.063 56.4645 127.376 56.445 127.67 56.53H127.89C127.524 56.1896 127.244 55.7684 127.07 55.3C126.954 54.9706 126.954 54.6114 127.071 54.2821C127.187 53.9529 127.413 53.6733 127.71 53.49C128.126 53.3361 128.584 53.3361 129 53.49C129.238 53.5482 129.472 53.6216 129.7 53.71L128.99 52.71C128.43 51.83 128.7 51.32 128.92 51.1C129.04 50.9917 129.181 50.9092 129.334 50.8576C129.487 50.806 129.649 50.7864 129.81 50.8C130.593 50.882 131.331 51.2072 131.92 51.73C132.815 52.4073 133.54 53.2844 134.037 54.2913C134.533 55.2983 134.788 56.4073 134.78 57.53C134.749 58.5651 134.483 59.5795 134.001 60.4962C133.519 61.4129 132.835 62.2076 132 62.82C131.247 63.4206 130.322 63.7672 129.36 63.81ZM126.86 59.63C126.808 59.7534 126.781 59.886 126.781 60.02C126.781 60.154 126.808 60.2866 126.86 60.41C126.974 60.9688 127.231 61.4885 127.606 61.918C127.981 62.3475 128.462 62.6721 129 62.86C129.88 62.9336 130.753 62.6568 131.43 62.09C132.173 61.5507 132.781 60.8466 133.206 60.0329C133.631 59.2191 133.862 58.3179 133.88 57.4C133.883 56.4181 133.659 55.4489 133.223 54.569C132.787 53.689 132.153 52.9225 131.37 52.33C130.926 51.9305 130.372 51.6728 129.78 51.59C129.714 51.5746 129.646 51.5746 129.58 51.59C129.598 51.7615 129.663 51.9245 129.77 52.06C130.39 53.06 131.05 53.94 131.77 54.82C131.836 54.9101 131.867 55.0212 131.858 55.1325C131.848 55.2439 131.798 55.3479 131.717 55.4251C131.636 55.5023 131.53 55.5474 131.418 55.552C131.306 55.5565 131.197 55.5203 131.11 55.45C130.446 54.8897 129.663 54.4894 128.82 54.28C128.609 54.2076 128.381 54.2076 128.17 54.28C127.96 54.38 127.9 54.74 127.98 55C128.145 55.3841 128.394 55.726 128.71 56L130.24 57.58C130.322 57.6624 130.368 57.7738 130.368 57.89C130.368 58.0061 130.322 58.1176 130.24 58.2C130.156 58.2795 130.045 58.3238 129.93 58.3238C129.815 58.3238 129.704 58.2795 129.62 58.2C129.045 57.7326 128.354 57.4316 127.62 57.33C127.522 57.3058 127.421 57.3013 127.321 57.3167C127.221 57.3322 127.126 57.3673 127.04 57.42C126.9 57.58 127.11 58.01 127.38 58.29C127.813 58.738 128.32 59.1069 128.88 59.38C128.987 59.4318 129.07 59.5241 129.109 59.6366C129.148 59.749 129.142 59.8726 129.09 59.98C129.067 60.0345 129.034 60.0839 128.991 60.1252C128.949 60.1665 128.899 60.1988 128.844 60.2203C128.789 60.2417 128.73 60.2519 128.671 60.2501C128.612 60.2484 128.554 60.2347 128.5 60.21L127.27 59.69C127.138 59.6447 126.999 59.6243 126.86 59.63Z" fill="#231F20"/>
<path d="M76.44 54.84C76.3197 54.8322 76.2073 54.7776 76.1269 54.6879C76.0465 54.5981 76.0045 54.4804 76.01 54.36L76.62 43C76.6157 42.9346 76.6253 42.869 76.6484 42.8077C76.6714 42.7464 76.7073 42.6906 76.7536 42.6443C76.8 42.598 76.8557 42.562 76.917 42.539C76.9783 42.5159 77.0439 42.5062 77.1092 42.5105C77.1746 42.5148 77.2383 42.533 77.2961 42.564C77.3539 42.5949 77.4044 42.6378 77.4442 42.6898C77.484 42.7419 77.5123 42.8018 77.5271 42.8656C77.5419 42.9295 77.5429 42.9957 77.53 43.06L76.89 54.39C76.8914 54.4495 76.8807 54.5086 76.8585 54.5638C76.8364 54.619 76.8033 54.6692 76.7612 54.7112C76.7192 54.7533 76.669 54.7864 76.6138 54.8085C76.5586 54.8306 76.4995 54.8413 76.44 54.84Z" fill="#231F20"/>
<path d="M250.57 213C250.485 213.001 250.401 212.979 250.329 212.934C250.256 212.89 250.198 212.826 250.16 212.75C250.103 212.643 250.092 212.517 250.127 212.401C250.163 212.285 250.243 212.187 250.35 212.13L277.66 197.77C277.77 197.714 277.898 197.703 278.016 197.741C278.134 197.778 278.232 197.86 278.29 197.97C278.343 198.079 278.352 198.205 278.315 198.32C278.278 198.436 278.197 198.533 278.09 198.59L250.78 212.9C250.718 212.948 250.646 212.982 250.57 213Z" fill="#D1D3D4"/>
<path d="M62.3899 171.35C65.8196 171.35 68.5999 170.361 68.5999 169.14C68.5999 167.919 65.8196 166.93 62.3899 166.93C58.9602 166.93 56.1799 167.919 56.1799 169.14C56.1799 170.361 58.9602 171.35 62.3899 171.35Z" fill="#E6E7E8"/>
<path d="M203.3 256.51C203.183 256.51 203.07 256.466 202.985 256.386C202.899 256.306 202.848 256.197 202.84 256.08L202.04 245.52C202.031 245.398 202.07 245.277 202.15 245.184C202.23 245.092 202.343 245.034 202.465 245.025C202.587 245.016 202.708 245.055 202.8 245.135C202.893 245.215 202.951 245.328 202.96 245.45L203.76 256.01C203.765 256.071 203.758 256.133 203.74 256.191C203.721 256.25 203.691 256.304 203.651 256.351C203.61 256.397 203.561 256.436 203.506 256.463C203.451 256.49 203.391 256.506 203.33 256.51H203.3Z" fill="#D1D3D4"/>
</svg>
