<svg width="312" height="196" viewBox="0 0 312 196" fill="none" xmlns="http://www.w3.org/2000/svg">
<path d="M286.06 9.84H186.39V66.66H286.06V9.84Z" fill="white"/>
<path d="M286.05 67.16H186.39C186.257 67.16 186.13 67.1073 186.036 67.0135C185.943 66.9198 185.89 66.7926 185.89 66.66V9.84C185.89 9.70739 185.943 9.58021 186.036 9.48644C186.13 9.39267 186.257 9.34 186.39 9.34H286.05C286.182 9.34 286.31 9.39267 286.403 9.48644C286.497 9.58021 286.55 9.70739 286.55 9.84V66.66C286.55 66.7926 286.497 66.9198 286.403 67.0135C286.31 67.1073 286.182 67.16 286.05 67.16ZM186.89 66.16H285.55V10.34H186.89V66.16Z" fill="#231F20"/>
<path d="M218.81 18.13H196.63V58.23H218.81V18.13Z" fill="white"/>
<path d="M218.81 58.73H196.63C196.497 58.73 196.37 58.6773 196.276 58.5836C196.183 58.4898 196.13 58.3626 196.13 58.23V18.13C196.13 17.9974 196.183 17.8702 196.276 17.7765C196.37 17.6827 196.497 17.63 196.63 17.63H218.81C218.942 17.63 219.07 17.6827 219.163 17.7765C219.257 17.8702 219.31 17.9974 219.31 18.13V58.23C219.307 58.3618 219.254 58.4875 219.161 58.5807C219.067 58.6739 218.942 58.7275 218.81 58.73ZM197.13 57.73H218.31V18.63H197.13V57.73Z" fill="#E6E7E8"/>
<path d="M248.35 18.13H226.17V58.23H248.35V18.13Z" fill="white"/>
<path d="M248.35 58.73H226.17C226.037 58.73 225.91 58.6773 225.816 58.5836C225.723 58.4898 225.67 58.3626 225.67 58.23V18.13C225.67 17.9974 225.723 17.8702 225.816 17.7765C225.91 17.6827 226.037 17.63 226.17 17.63H248.35C248.483 17.63 248.61 17.6827 248.703 17.7765C248.797 17.8702 248.85 17.9974 248.85 18.13V58.23C248.847 58.3618 248.794 58.4875 248.701 58.5807C248.607 58.6739 248.482 58.7275 248.35 58.73ZM226.67 57.73H247.85V18.63H226.67V57.73Z" fill="#E6E7E8"/>
<path d="M277.89 18.13H255.71V58.23H277.89V18.13Z" fill="white"/>
<path d="M277.89 58.73H255.71C255.578 58.7275 255.452 58.6739 255.359 58.5807C255.266 58.4875 255.213 58.3618 255.21 58.23V18.13C255.21 17.9974 255.263 17.8702 255.356 17.7765C255.45 17.6827 255.577 17.63 255.71 17.63H277.89C278.023 17.63 278.15 17.6827 278.244 17.7765C278.337 17.8702 278.39 17.9974 278.39 18.13V58.23C278.39 58.3626 278.337 58.4898 278.244 58.5836C278.15 58.6773 278.023 58.73 277.89 58.73ZM256.21 57.73H277.39V18.63H256.21V57.73Z" fill="#E6E7E8"/>
<path d="M218.81 32.94H196.63C196.522 32.94 196.416 32.9049 196.33 32.84C196.243 32.7751 196.18 32.6839 196.15 32.58C196.12 32.4765 196.124 32.3661 196.162 32.2651C196.2 32.1642 196.269 32.0782 196.36 32.02L206.79 25.29L196.36 18.55C196.304 18.5154 196.255 18.4699 196.217 18.4161C196.179 18.3623 196.152 18.3013 196.138 18.2369C196.124 18.1725 196.123 18.1059 196.136 18.0411C196.148 17.9764 196.173 17.9148 196.21 17.86C196.282 17.7488 196.395 17.6705 196.524 17.6424C196.653 17.6143 196.788 17.6386 196.9 17.71L207.72 24.71L218.53 17.71C218.643 17.6381 218.78 17.6135 218.911 17.6415C219.042 17.6696 219.156 17.7481 219.23 17.86C219.301 17.9714 219.326 18.1067 219.298 18.236C219.269 18.3654 219.191 18.4783 219.08 18.55L208.64 25.29L219.08 32C219.17 32.0585 219.24 32.1447 219.277 32.2458C219.315 32.3468 219.319 32.4573 219.288 32.5608C219.258 32.6643 219.195 32.7551 219.109 32.8199C219.023 32.8846 218.918 32.9197 218.81 32.92V32.94ZM198.33 31.94H217.11L207.72 25.88L198.33 31.94Z" fill="#E6E7E8"/>
<path d="M214.83 37.08H200.52C200.387 37.08 200.26 37.0273 200.166 36.9336C200.073 36.8398 200.02 36.7126 200.02 36.58C200.02 36.4474 200.073 36.3202 200.166 36.2265C200.26 36.1327 200.387 36.08 200.52 36.08H214.83C214.963 36.08 215.09 36.1327 215.184 36.2265C215.277 36.3202 215.33 36.4474 215.33 36.58C215.33 36.7126 215.277 36.8398 215.184 36.9336C215.09 37.0273 214.963 37.08 214.83 37.08Z" fill="#E6E7E8"/>
<path d="M214.83 42.36H200.52C200.387 42.36 200.26 42.3073 200.166 42.2135C200.073 42.1198 200.02 41.9926 200.02 41.86C200.02 41.7274 200.073 41.6002 200.166 41.5064C200.26 41.4127 200.387 41.36 200.52 41.36H214.83C214.963 41.36 215.09 41.4127 215.184 41.5064C215.277 41.6002 215.33 41.7274 215.33 41.86C215.33 41.9926 215.277 42.1198 215.184 42.2135C215.09 42.3073 214.963 42.36 214.83 42.36Z" fill="#E6E7E8"/>
<path d="M214.83 47.63H200.52C200.387 47.63 200.26 47.5773 200.166 47.4836C200.073 47.3898 200.02 47.2626 200.02 47.13C200.02 46.9974 200.073 46.8702 200.166 46.7765C200.26 46.6827 200.387 46.63 200.52 46.63H214.83C214.963 46.63 215.09 46.6827 215.184 46.7765C215.277 46.8702 215.33 46.9974 215.33 47.13C215.33 47.2626 215.277 47.3898 215.184 47.4836C215.09 47.5773 214.963 47.63 214.83 47.63Z" fill="#E6E7E8"/>
<path d="M214.83 52.9H200.52C200.387 52.9 200.26 52.8473 200.166 52.7535C200.073 52.6598 200.02 52.5326 200.02 52.4C200.02 52.2674 200.073 52.1402 200.166 52.0464C200.26 51.9527 200.387 51.9 200.52 51.9H214.83C214.963 51.9 215.09 51.9527 215.184 52.0464C215.277 52.1402 215.33 52.2674 215.33 52.4C215.33 52.5326 215.277 52.6598 215.184 52.7535C215.09 52.8473 214.963 52.9 214.83 52.9Z" fill="#E6E7E8"/>
<path d="M248.35 58.73H226.17C226.062 58.73 225.957 58.6949 225.87 58.63C225.783 58.5651 225.72 58.4739 225.69 58.37C225.66 58.2665 225.664 58.156 225.702 58.0551C225.74 57.9542 225.809 57.8682 225.9 57.81L236.34 51.07L225.9 44.34C225.788 44.2664 225.71 44.1517 225.682 44.0207C225.653 43.8898 225.678 43.753 225.75 43.64C225.785 43.5847 225.832 43.537 225.886 43.4999C225.94 43.4627 226.001 43.4369 226.065 43.4238C226.13 43.4108 226.196 43.4108 226.26 43.4239C226.325 43.4369 226.386 43.4628 226.44 43.5L226.8 43.72C226.837 43.6289 226.901 43.5513 226.983 43.4977C227.065 43.4441 227.162 43.4169 227.26 43.42H248.35C248.457 43.4193 248.561 43.453 248.648 43.516C248.734 43.579 248.798 43.668 248.83 43.77C248.861 43.875 248.857 43.987 248.819 44.0897C248.781 44.1923 248.711 44.2801 248.62 44.34L238.18 51.07L248.62 57.81C248.711 57.8682 248.78 57.9542 248.818 58.0551C248.856 58.156 248.86 58.2665 248.83 58.37C248.8 58.4739 248.737 58.5651 248.65 58.63C248.563 58.6949 248.458 58.73 248.35 58.73ZM227.87 57.73H246.65L237.26 51.67L227.87 57.73ZM227.87 44.42L237.26 50.48L246.65 44.42H227.87Z" fill="#E6E7E8"/>
<path d="M243.08 22.9H230.65C230.517 22.9 230.39 22.8473 230.296 22.7535C230.203 22.6598 230.15 22.5326 230.15 22.4C230.15 22.2674 230.203 22.1402 230.296 22.0464C230.39 21.9527 230.517 21.9 230.65 21.9H243.08C243.213 21.9 243.34 21.9527 243.433 22.0464C243.527 22.1402 243.58 22.2674 243.58 22.4C243.577 22.5318 243.524 22.6575 243.431 22.7507C243.337 22.8439 243.212 22.8974 243.08 22.9Z" fill="#E6E7E8"/>
<path d="M243.08 27.67H230.65C230.517 27.67 230.39 27.6173 230.296 27.5235C230.203 27.4298 230.15 27.3026 230.15 27.17C230.15 27.0374 230.203 26.9102 230.296 26.8164C230.39 26.7227 230.517 26.67 230.65 26.67H243.08C243.213 26.67 243.34 26.7227 243.433 26.8164C243.527 26.9102 243.58 27.0374 243.58 27.17C243.577 27.3018 243.524 27.4275 243.431 27.5207C243.337 27.6139 243.212 27.6674 243.08 27.67Z" fill="#E6E7E8"/>
<path d="M240.31 32.44H230.65C230.517 32.44 230.39 32.3873 230.296 32.2936C230.203 32.1998 230.15 32.0726 230.15 31.94C230.15 31.8074 230.203 31.6802 230.296 31.5864C230.39 31.4927 230.517 31.44 230.65 31.44H240.31C240.443 31.44 240.57 31.4927 240.663 31.5864C240.757 31.6802 240.81 31.8074 240.81 31.94C240.81 32.0726 240.757 32.1998 240.663 32.2936C240.57 32.3873 240.443 32.44 240.31 32.44Z" fill="#E6E7E8"/>
<path d="M241.7 41.35C241.177 41.352 240.665 41.1986 240.23 40.9092C239.794 40.6199 239.454 40.2077 239.253 39.7249C239.052 39.2421 238.999 38.7105 239.1 38.1974C239.202 37.6844 239.453 37.2131 239.823 36.8432C240.193 36.4734 240.664 36.2218 241.177 36.1203C241.691 36.0187 242.222 36.0718 242.705 36.2729C243.188 36.4739 243.6 36.8139 243.889 37.2495C244.179 37.6852 244.332 38.197 244.33 38.72C244.327 39.4167 244.049 40.0841 243.557 40.5768C243.064 41.0694 242.397 41.3474 241.7 41.35ZM241.7 37.08C241.375 37.078 241.057 37.1725 240.786 37.3515C240.515 37.5305 240.303 37.7859 240.178 38.0854C240.052 38.3849 240.018 38.715 240.08 39.0338C240.142 39.3525 240.298 39.6457 240.527 39.8761C240.756 40.1064 241.048 40.2636 241.366 40.3277C241.685 40.3918 242.015 40.3599 242.315 40.2361C242.616 40.1123 242.872 39.9021 243.053 39.6322C243.234 39.3622 243.33 39.0448 243.33 38.72C243.33 38.2868 243.159 37.8711 242.853 37.5639C242.548 37.2566 242.133 37.0826 241.7 37.08Z" fill="#E6E7E8"/>
<path d="M272.77 39.22H261.22C260.886 39.2414 260.551 39.194 260.235 39.0808C259.92 38.9676 259.632 38.791 259.387 38.5619C259.143 38.3327 258.948 38.056 258.815 37.7486C258.682 37.4413 258.614 37.1099 258.614 36.775C258.614 36.4401 258.682 36.1087 258.815 35.8014C258.948 35.4941 259.143 35.2173 259.387 34.9881C259.632 34.759 259.92 34.5824 260.235 34.4692C260.551 34.356 260.886 34.3086 261.22 34.33H272.77C273.391 34.3698 273.974 34.6447 274.4 35.0988C274.826 35.553 275.064 36.1523 275.064 36.775C275.064 37.3977 274.826 37.997 274.4 38.4512C273.974 38.9054 273.391 39.1802 272.77 39.22ZM261.22 35.33C261.02 35.3134 260.819 35.3384 260.629 35.4034C260.44 35.4685 260.265 35.5722 260.118 35.708C259.97 35.8438 259.852 36.0088 259.772 36.1924C259.691 36.3761 259.65 36.5745 259.65 36.775C259.65 36.9756 259.691 37.1739 259.772 37.3576C259.852 37.5413 259.97 37.7062 260.118 37.842C260.265 37.9778 260.44 38.0815 260.629 38.1466C260.819 38.2117 261.02 38.2367 261.22 38.22H272.77C273.132 38.1898 273.47 38.0245 273.717 37.7569C273.963 37.4892 274.1 37.1387 274.1 36.775C274.1 36.4113 273.963 36.0608 273.717 35.7932C273.47 35.5255 273.132 35.3602 272.77 35.33H261.22Z" fill="#E6E7E8"/>
<path d="M274.71 31.81H259.27C259.137 31.81 259.01 31.7573 258.916 31.6636C258.823 31.5698 258.77 31.4426 258.77 31.31V21.39C258.77 21.2574 258.823 21.1302 258.916 21.0365C259.01 20.9427 259.137 20.89 259.27 20.89H274.71C274.843 20.89 274.97 20.9427 275.064 21.0365C275.157 21.1302 275.21 21.2574 275.21 21.39V31.31C275.21 31.4426 275.157 31.5698 275.064 31.6636C274.97 31.7573 274.843 31.81 274.71 31.81ZM259.77 30.81H274.21V21.89H259.77V30.81Z" fill="#E6E7E8"/>
<path d="M259.27 31.81C259.187 31.809 259.105 31.7875 259.031 31.7474C258.958 31.7072 258.896 31.6498 258.85 31.58C258.779 31.4685 258.754 31.3333 258.782 31.204C258.811 31.0746 258.889 30.9617 259 30.89L274.44 21C274.551 20.9366 274.683 20.9182 274.807 20.9487C274.931 20.9792 275.039 21.0562 275.108 21.1639C275.178 21.2716 275.203 21.4018 275.179 21.5275C275.155 21.6533 275.084 21.7652 274.98 21.84L259.54 31.76C259.457 31.8044 259.363 31.8219 259.27 31.81Z" fill="#E6E7E8"/>
<path d="M274.71 31.81C274.614 31.8129 274.519 31.7849 274.44 31.73L259 21.81C258.941 21.7764 258.889 21.7311 258.848 21.6769C258.808 21.6227 258.778 21.5607 258.762 21.4948C258.746 21.4289 258.743 21.3603 258.754 21.2934C258.766 21.2264 258.79 21.1624 258.827 21.1053C258.864 21.0482 258.912 20.9992 258.968 20.9612C259.024 20.9232 259.088 20.8971 259.154 20.8845C259.221 20.8718 259.29 20.8729 259.356 20.8876C259.422 20.9023 259.485 20.9303 259.54 20.97L275 30.89C275.111 30.9617 275.189 31.0747 275.217 31.204C275.246 31.3333 275.221 31.4686 275.15 31.58C275.104 31.6548 275.039 31.7158 274.962 31.7563C274.884 31.7969 274.797 31.8154 274.71 31.81Z" fill="#E6E7E8"/>
<path d="M274.71 53.93H259.27C259.137 53.93 259.01 53.8773 258.916 53.7836C258.823 53.6898 258.77 53.5626 258.77 53.43V43.51C258.77 43.3774 258.823 43.2502 258.916 43.1565C259.01 43.0627 259.137 43.01 259.27 43.01H274.71C274.843 43.01 274.97 43.0627 275.064 43.1565C275.157 43.2502 275.21 43.3774 275.21 43.51V53.43C275.21 53.5626 275.157 53.6898 275.064 53.7836C274.97 53.8773 274.843 53.93 274.71 53.93ZM259.77 52.93H274.21V44H259.77V52.93Z" fill="#E6E7E8"/>
<path d="M259.27 53.93C259.187 53.929 259.105 53.9075 259.031 53.8674C258.958 53.8272 258.896 53.7698 258.85 53.7C258.813 53.6444 258.788 53.5821 258.775 53.5165C258.763 53.451 258.763 53.3836 258.777 53.3184C258.791 53.2531 258.818 53.1914 258.857 53.1367C258.895 53.082 258.944 53.0355 259 53L274.44 43.08C274.495 43.0403 274.558 43.0123 274.624 42.9976C274.69 42.9829 274.759 42.9818 274.826 42.9945C274.892 43.0071 274.956 43.0332 275.012 43.0712C275.068 43.1092 275.116 43.1582 275.153 43.2153C275.19 43.2724 275.214 43.3364 275.225 43.4034C275.237 43.4703 275.234 43.5389 275.218 43.6048C275.202 43.6707 275.172 43.7327 275.131 43.7869C275.09 43.8411 275.039 43.8864 274.98 43.92L259.54 53.84C259.462 53.8984 259.367 53.93 259.27 53.93Z" fill="#E6E7E8"/>
<path d="M274.71 53.93C274.614 53.9329 274.519 53.9048 274.44 53.85L259 43.93C258.896 43.8552 258.825 43.7433 258.801 43.6175C258.777 43.4918 258.802 43.3616 258.872 43.2539C258.941 43.1462 259.049 43.0692 259.173 43.0387C259.297 43.0082 259.429 43.0265 259.54 43.09L275 53C275.111 53.0717 275.189 53.1846 275.218 53.314C275.246 53.4433 275.221 53.5785 275.15 53.69C275.106 53.7666 275.041 53.8296 274.964 53.872C274.886 53.9143 274.798 53.9344 274.71 53.93Z" fill="#E6E7E8"/>
<path d="M50.3 189L1.15995 108.12C-0.570052 105.23 2.61995 92.34 2.61995 92.34L247.54 102.13C252.1 102.13 257.41 104.82 259.39 108.13L311.26 180.65C311.72 187.93 308.41 192.87 303.85 192.87L62.1399 195C57.5799 195 52.28 192.35 50.3 189Z" fill="#231F20"/>
<path d="M62.15 195.53C57.44 195.53 51.93 192.73 49.87 189.3L0.739954 108.38C-1.05005 105.38 1.79995 93.57 2.12995 92.23C2.15395 92.1153 2.21905 92.0134 2.31299 91.9434C2.40692 91.8734 2.52322 91.8402 2.63995 91.85L247.56 101.64C252.25 101.64 257.75 104.43 259.81 107.87L311.67 180.35C311.719 180.429 311.75 180.518 311.76 180.61C312.04 185 310.95 188.84 308.76 191.14C308.138 191.835 307.376 192.392 306.525 192.774C305.674 193.156 304.753 193.356 303.82 193.36L62.15 195.53ZM2.99995 92.86C2.08995 96.66 0.299952 105.72 1.58995 107.86L50.72 188.77C52.62 191.94 57.7199 194.52 62.1399 194.52L303.85 192.35C304.647 192.345 305.434 192.173 306.161 191.846C306.887 191.519 307.538 191.043 308.07 190.45C310.02 188.37 311 184.86 310.77 180.81L259 108.41C257.08 105.21 252 102.63 247.56 102.63L2.99995 92.86Z" fill="#231F20"/>
<path d="M52.3799 177.56L3.24987 95.56C1.24987 92.25 3.34987 89.56 7.90987 89.56H249.62C254.18 89.56 259.49 92.24 261.47 95.56L310.6 177.56C312.6 180.87 310.5 183.56 305.93 183.56H64.2299C59.6699 183.55 54.3599 180.87 52.3799 177.56Z" fill="white"/>
<path d="M305.93 184.05H64.2299C59.5199 184.05 54.0099 181.25 51.9499 177.82L2.81993 95.82C2.36475 95.195 2.08959 94.4571 2.02436 93.6867C1.95913 92.9162 2.10632 92.1427 2.44993 91.45C3.29993 89.94 5.28993 89.07 7.91993 89.07H249.62C254.33 89.07 259.84 91.87 261.9 95.3L311.03 177.3C311.485 177.925 311.76 178.663 311.826 179.433C311.891 180.204 311.744 180.977 311.4 181.67C310.55 183.18 308.55 184.05 305.93 184.05ZM52.8099 177.3C54.7099 180.47 59.8099 183.05 64.2299 183.05H305.93C308.18 183.05 309.86 182.37 310.53 181.18C310.785 180.641 310.886 180.042 310.823 179.449C310.759 178.857 310.533 178.293 310.17 177.82L261.04 95.82C259.14 92.65 254.04 90.07 249.62 90.07H7.91993C5.66993 90.07 3.98993 90.75 3.31993 91.94C3.06498 92.479 2.96368 93.0778 3.0272 93.6707C3.09072 94.2635 3.31658 94.8273 3.67993 95.3L52.8099 177.3Z" fill="#231F20"/>
<path d="M237.48 94.5L287.88 178.62H89.15L38.75 94.5H237.48Z" fill="white"/>
<path d="M287.88 179.07H89.1398C89.0611 179.072 88.9834 179.052 88.9148 179.013C88.8462 178.975 88.7892 178.918 88.7498 178.85L38.3598 94.74C38.3185 94.6704 38.2966 94.591 38.2966 94.51C38.2966 94.429 38.3185 94.3496 38.3598 94.28C38.4004 94.2098 38.4587 94.1516 38.5289 94.1112C38.5992 94.0708 38.6788 94.0497 38.7598 94.05H237.48C237.559 94.0484 237.636 94.068 237.705 94.1067C237.774 94.1454 237.83 94.2018 237.87 94.27L288.27 178.38C288.311 178.45 288.333 178.529 288.333 178.61C288.333 178.691 288.311 178.77 288.27 178.84C288.231 178.909 288.174 178.967 288.106 179.008C288.037 179.048 287.959 179.07 287.88 179.07ZM89.3998 178.16H287.07L237.22 95H39.5499L89.3998 178.16Z" fill="#231F20"/>
<path d="M56.21 153H47.77C44.77 153 41.38 151.12 40.09 148.81L30.5 131.65C30.1996 131.197 30.0255 130.671 29.9956 130.128C29.9657 129.585 30.0811 129.044 30.33 128.56C30.719 128.024 31.2406 127.599 31.8437 127.325C32.4468 127.052 33.1106 126.94 33.77 127H42.21C45.15 127 48.6 128.88 49.89 131.19L59.47 148.36C59.778 148.81 59.9576 149.336 59.9893 149.88C60.021 150.424 59.9037 150.967 59.65 151.45C59.2598 151.984 58.7377 152.408 58.1347 152.679C57.5317 152.951 56.8685 153.062 56.21 153ZM33.77 127.93C33.271 127.87 32.7648 127.939 32.3006 128.132C31.8363 128.325 31.4297 128.634 31.12 129.03C30.9531 129.375 30.8817 129.758 30.9134 130.14C30.945 130.521 31.0786 130.887 31.3 131.2L40.89 148.37C41.6582 149.493 42.6831 150.416 43.8797 151.063C45.0763 151.71 46.41 152.062 47.77 152.09H56.21C56.7076 152.144 57.2107 152.072 57.6735 151.882C58.1364 151.691 58.5443 151.388 58.86 151C59.0247 150.653 59.0948 150.269 59.0632 149.886C59.0316 149.503 58.8994 149.135 58.68 148.82L49.09 131.65C48.3218 130.527 47.2969 129.604 46.1003 128.957C44.9037 128.31 43.57 127.958 42.21 127.93H33.77Z" fill="#231F20"/>
<path d="M280 149.59C279.918 149.589 279.838 149.567 279.767 149.524C279.697 149.482 279.639 149.422 279.6 149.35L265.2 123.64C265.17 123.588 265.15 123.531 265.142 123.472C265.135 123.412 265.139 123.352 265.155 123.294C265.171 123.237 265.198 123.183 265.235 123.135C265.272 123.088 265.318 123.049 265.37 123.02C265.476 122.963 265.601 122.949 265.717 122.983C265.833 123.017 265.931 123.095 265.99 123.2L280.34 148.91C280.37 148.962 280.39 149.019 280.397 149.078C280.405 149.138 280.401 149.198 280.385 149.256C280.369 149.313 280.342 149.367 280.305 149.415C280.268 149.462 280.222 149.501 280.17 149.53C280.118 149.561 280.06 149.581 280 149.59Z" fill="#231F20"/>
<path d="M283.88 156.64C283.799 156.638 283.72 156.616 283.65 156.576C283.58 156.536 283.522 156.479 283.48 156.41L281.56 153C281.502 152.892 281.488 152.766 281.522 152.648C281.556 152.531 281.634 152.431 281.74 152.37C281.846 152.313 281.971 152.299 282.087 152.333C282.203 152.367 282.301 152.445 282.36 152.55L284.28 156C284.338 156.105 284.353 156.229 284.321 156.345C284.289 156.46 284.214 156.559 284.11 156.62C284.036 156.646 283.957 156.653 283.88 156.64Z" fill="#231F20"/>
<path d="M198.55 171.41L156.78 101.71H214.21L255.98 171.41H198.55Z" fill="white"/>
<path d="M256 171.91H198.55C198.464 171.911 198.379 171.889 198.303 171.847C198.228 171.805 198.165 171.744 198.12 171.67L156.35 102C156.306 101.924 156.283 101.838 156.283 101.75C156.283 101.662 156.306 101.576 156.35 101.5C156.391 101.422 156.453 101.358 156.529 101.313C156.605 101.269 156.692 101.247 156.78 101.25H214.21C214.296 101.249 214.381 101.271 214.457 101.313C214.532 101.355 214.595 101.416 214.64 101.49L256.41 171.2C256.454 171.276 256.477 171.362 256.477 171.45C256.477 171.538 256.454 171.624 256.41 171.7C256.365 171.767 256.304 171.822 256.232 171.859C256.161 171.895 256.081 171.913 256 171.91ZM198.85 170.91H255.1L213.93 102.21H157.66L198.85 170.91Z" fill="#E6E7E8"/>
<path d="M205.22 152.15C205.12 152.148 205.023 152.117 204.94 152.06C204.832 151.985 204.758 151.871 204.734 151.742C204.709 151.613 204.737 151.479 204.81 151.37C210.38 143.21 219.16 130 220.06 127.84C217.2 126.13 188.32 110.47 172.92 102.15C172.861 102.119 172.809 102.078 172.767 102.027C172.724 101.976 172.692 101.917 172.673 101.854C172.653 101.791 172.647 101.724 172.653 101.658C172.659 101.592 172.679 101.528 172.71 101.47C172.775 101.355 172.883 101.27 173.01 101.233C173.136 101.195 173.273 101.209 173.39 101.27C181.22 105.5 220.32 126.64 220.95 127.27C221.34 127.64 221.88 128.15 205.64 151.96C205.59 152.023 205.526 152.073 205.453 152.106C205.38 152.139 205.3 152.154 205.22 152.15Z" fill="#E6E7E8"/>
<path d="M222.78 171.91C222.718 171.924 222.653 171.924 222.59 171.91C222.529 171.885 222.473 171.848 222.426 171.801C222.38 171.754 222.343 171.697 222.319 171.636C222.294 171.574 222.283 171.508 222.285 171.442C222.287 171.375 222.302 171.31 222.33 171.25L227.05 160.25L207 149.1C206.885 149.035 206.8 148.927 206.765 148.799C206.729 148.672 206.745 148.535 206.81 148.42C206.841 148.362 206.884 148.311 206.935 148.27C206.986 148.228 207.045 148.197 207.109 148.179C207.172 148.16 207.238 148.154 207.303 148.161C207.369 148.168 207.432 148.188 207.49 148.22L227.93 159.6C228.036 159.661 228.116 159.759 228.155 159.875C228.193 159.991 228.188 160.117 228.14 160.23L223.23 171.61C223.193 171.699 223.13 171.774 223.05 171.828C222.97 171.881 222.876 171.91 222.78 171.91Z" fill="#E6E7E8"/>
<path d="M227.81 154.24C224 154.24 219.53 151.97 217.81 149.18C217.44 148.661 217.216 148.052 217.163 147.416C217.11 146.781 217.23 146.143 217.51 145.57C218.22 144.32 219.86 143.57 222 143.57C225.82 143.57 230.28 145.85 232 148.64C232.374 149.158 232.599 149.767 232.652 150.403C232.705 151.039 232.583 151.678 232.3 152.25C231.59 153.53 230 154.24 227.81 154.24ZM222 144.6C220.23 144.6 218.91 145.13 218.38 146.06C218.189 146.481 218.115 146.946 218.166 147.405C218.218 147.864 218.391 148.301 218.67 148.67C220.18 151.19 224.27 153.24 227.77 153.24C229.55 153.24 230.86 152.71 231.39 151.79C231.582 151.369 231.656 150.905 231.605 150.445C231.554 149.985 231.38 149.548 231.1 149.18C229.63 146.66 225.54 144.6 222 144.6Z" fill="#E6E7E8"/>
<path d="M185.85 170.11L146 103.52C145.933 103.407 145.914 103.272 145.946 103.145C145.978 103.018 146.058 102.908 146.17 102.84C146.226 102.804 146.289 102.78 146.354 102.769C146.42 102.758 146.487 102.761 146.551 102.777C146.616 102.793 146.677 102.822 146.73 102.862C146.783 102.902 146.827 102.952 146.86 103.01L186.76 169.6L185.85 170.11Z" fill="#E6E7E8"/>
<path d="M175 170.35C174.913 170.352 174.828 170.33 174.753 170.288C174.677 170.246 174.614 170.184 174.57 170.11L134.67 103.52C134.603 103.407 134.584 103.272 134.616 103.145C134.648 103.018 134.728 102.908 134.84 102.84C134.896 102.804 134.959 102.78 135.024 102.769C135.09 102.758 135.157 102.761 135.221 102.777C135.286 102.793 135.347 102.822 135.4 102.862C135.453 102.902 135.497 102.952 135.53 103.01L175.43 169.6C175.495 169.714 175.513 169.85 175.48 169.977C175.446 170.104 175.363 170.213 175.25 170.28C175.175 170.326 175.088 170.351 175 170.35Z" fill="#E6E7E8"/>
<path d="M163.31 170.11L123.41 103.52C123.345 103.406 123.328 103.271 123.361 103.144C123.395 103.018 123.477 102.909 123.589 102.842C123.702 102.776 123.837 102.756 123.964 102.787C124.091 102.818 124.201 102.898 124.27 103.01L164.16 169.6L163.31 170.11Z" fill="#E6E7E8"/>
<path d="M133.4 135.1H101C100.915 135.1 100.832 135.078 100.758 135.035C100.685 134.993 100.623 134.933 100.58 134.86L81.5799 103.08C81.5328 103.005 81.507 102.918 81.5052 102.829C81.5035 102.741 81.5259 102.653 81.57 102.576C81.6142 102.499 81.6784 102.435 81.7559 102.392C81.8334 102.349 81.9212 102.327 82.0099 102.33H114.39C114.476 102.329 114.561 102.351 114.637 102.393C114.712 102.435 114.775 102.496 114.82 102.57L133.82 134.35C133.864 134.426 133.887 134.512 133.887 134.6C133.887 134.688 133.864 134.774 133.82 134.85C133.78 134.926 133.719 134.99 133.645 135.034C133.571 135.078 133.486 135.101 133.4 135.1ZM101.3 134.1H132.52L114.08 103.33H82.8599L101.3 134.1Z" fill="#E6E7E8"/>
<path d="M106.24 126.68C106.136 126.68 106.035 126.648 105.95 126.59C105.896 126.552 105.85 126.504 105.814 126.448C105.779 126.392 105.755 126.33 105.744 126.265C105.733 126.2 105.735 126.133 105.749 126.069C105.764 126.005 105.792 125.944 105.83 125.89L112.55 116.29L91.9799 103.29C91.9229 103.256 91.8734 103.211 91.8343 103.158C91.7952 103.104 91.7674 103.044 91.7524 102.979C91.7375 102.915 91.7357 102.848 91.7473 102.783C91.7589 102.718 91.7836 102.655 91.8199 102.6C91.8916 102.489 92.0045 102.411 92.1339 102.382C92.2632 102.354 92.3984 102.379 92.5099 102.45L113.51 115.77C113.622 115.844 113.701 115.959 113.73 116.09C113.745 116.157 113.745 116.226 113.731 116.293C113.717 116.361 113.69 116.424 113.65 116.48L106.65 126.48C106.602 126.543 106.54 126.595 106.469 126.629C106.398 126.664 106.319 126.682 106.24 126.68Z" fill="#E6E7E8"/>
<path d="M111.28 135.1C111.179 135.095 111.082 135.06 111 135C110.947 134.961 110.902 134.913 110.867 134.856C110.833 134.8 110.81 134.738 110.8 134.673C110.789 134.608 110.792 134.541 110.808 134.477C110.823 134.413 110.851 134.353 110.89 134.3L114.89 128.79L107.64 124.18C107.581 124.146 107.529 124.101 107.489 124.047C107.448 123.993 107.418 123.931 107.402 123.865C107.386 123.799 107.383 123.73 107.395 123.663C107.406 123.596 107.43 123.532 107.467 123.475C107.504 123.418 107.552 123.369 107.608 123.331C107.664 123.293 107.728 123.267 107.794 123.254C107.861 123.242 107.93 123.243 107.996 123.258C108.062 123.272 108.125 123.3 108.18 123.34L115.88 128.23C115.939 128.265 115.99 128.312 116.028 128.369C116.066 128.427 116.091 128.492 116.1 128.56C116.115 128.627 116.115 128.696 116.101 128.763C116.088 128.831 116.06 128.894 116.02 128.95L111.68 134.89C111.634 134.953 111.574 135.005 111.504 135.042C111.435 135.078 111.358 135.098 111.28 135.1Z" fill="#E6E7E8"/>
<path d="M119.23 128.4C118.351 128.391 117.485 128.178 116.703 127.777C115.92 127.376 115.241 126.798 114.72 126.09C114.533 125.826 114.422 125.516 114.399 125.193C114.377 124.871 114.442 124.548 114.59 124.26C114.829 123.915 115.157 123.64 115.538 123.464C115.92 123.288 116.342 123.217 116.76 123.26C117.64 123.267 118.506 123.479 119.289 123.88C120.072 124.281 120.751 124.86 121.27 125.57C121.457 125.834 121.568 126.144 121.591 126.467C121.614 126.789 121.548 127.112 121.4 127.4C121.159 127.743 120.831 128.016 120.45 128.192C120.069 128.368 119.648 128.439 119.23 128.4ZM116.76 124.27C116.521 124.237 116.277 124.263 116.05 124.347C115.823 124.431 115.621 124.569 115.46 124.75C115.408 124.887 115.391 125.035 115.412 125.181C115.433 125.326 115.491 125.463 115.58 125.58C116.013 126.138 116.566 126.591 117.198 126.906C117.83 127.221 118.524 127.39 119.23 127.4C119.47 127.433 119.713 127.407 119.94 127.323C120.167 127.239 120.37 127.101 120.53 126.92C120.583 126.783 120.599 126.635 120.578 126.489C120.557 126.344 120.499 126.207 120.41 126.09C119.978 125.531 119.426 125.077 118.794 124.761C118.162 124.446 117.466 124.278 116.76 124.27Z" fill="#E6E7E8"/>
<path d="M154.78 170.79H122.4C122.314 170.79 122.229 170.769 122.153 170.727C122.078 170.685 122.015 170.624 121.97 170.55L102.97 138.77C102.926 138.694 102.903 138.608 102.903 138.52C102.903 138.432 102.926 138.346 102.97 138.27C103.011 138.192 103.073 138.128 103.149 138.083C103.225 138.039 103.312 138.017 103.4 138.02H135.79C135.875 138.02 135.958 138.042 136.032 138.085C136.105 138.127 136.167 138.187 136.21 138.26L155.21 170.04C155.257 170.115 155.283 170.202 155.285 170.291C155.287 170.379 155.264 170.467 155.22 170.544C155.176 170.621 155.112 170.685 155.034 170.728C154.957 170.771 154.869 170.793 154.78 170.79ZM122.68 169.79H153.9L135.46 139H104.24L122.68 169.79Z" fill="#E6E7E8"/>
<path d="M127.62 162.37C127.516 162.37 127.415 162.338 127.33 162.28C127.223 162.202 127.15 162.085 127.128 161.954C127.106 161.824 127.135 161.689 127.21 161.58L133.93 151.98L113.36 138.98C113.301 138.946 113.249 138.901 113.209 138.847C113.168 138.793 113.138 138.731 113.122 138.665C113.106 138.599 113.103 138.53 113.114 138.463C113.126 138.396 113.15 138.332 113.187 138.275C113.224 138.218 113.272 138.169 113.328 138.131C113.384 138.093 113.448 138.067 113.514 138.054C113.581 138.042 113.65 138.043 113.716 138.058C113.782 138.072 113.845 138.1 113.9 138.14L134.9 151.46C134.958 151.494 135.008 151.54 135.046 151.595C135.084 151.65 135.109 151.714 135.12 151.78C135.135 151.847 135.135 151.916 135.121 151.983C135.108 152.051 135.08 152.114 135.04 152.17L128.04 162.17C127.99 162.234 127.926 162.285 127.854 162.32C127.781 162.354 127.701 162.372 127.62 162.37Z" fill="#E6E7E8"/>
<path d="M132.67 170.79C132.563 170.791 132.459 170.76 132.37 170.7C132.265 170.62 132.194 170.503 132.174 170.372C132.153 170.242 132.184 170.108 132.26 170L136.26 164.49L129 159.88C128.941 159.846 128.89 159.801 128.849 159.747C128.808 159.693 128.778 159.631 128.762 159.565C128.746 159.499 128.743 159.43 128.755 159.363C128.766 159.296 128.79 159.232 128.827 159.175C128.864 159.118 128.912 159.069 128.968 159.031C129.024 158.993 129.088 158.967 129.155 158.954C129.221 158.942 129.29 158.943 129.356 158.958C129.422 158.972 129.485 159 129.54 159.04L137.23 163.93C137.29 163.966 137.341 164.013 137.38 164.07C137.42 164.127 137.447 164.192 137.46 164.26C137.481 164.397 137.449 164.536 137.37 164.65L133.03 170.59C132.987 170.647 132.933 170.694 132.871 170.728C132.809 170.762 132.741 170.784 132.67 170.79Z" fill="#E6E7E8"/>
<path d="M140.62 164.09C139.74 164.086 138.873 163.875 138.089 163.473C137.306 163.072 136.628 162.492 136.11 161.78C135.936 161.52 135.834 161.218 135.814 160.905C135.795 160.592 135.859 160.28 136 160C136.241 159.657 136.569 159.384 136.95 159.208C137.331 159.032 137.752 158.961 138.17 159C139.05 159.004 139.917 159.215 140.701 159.617C141.484 160.018 142.162 160.598 142.68 161.31C142.868 161.573 142.981 161.883 143.006 162.205C143.03 162.528 142.966 162.851 142.82 163.14C142.57 163.479 142.235 163.745 141.848 163.912C141.462 164.079 141.038 164.14 140.62 164.09ZM138.14 160C137.901 159.968 137.657 159.995 137.43 160.078C137.204 160.162 137.001 160.3 136.84 160.48C136.789 160.617 136.774 160.765 136.795 160.91C136.816 161.055 136.872 161.193 136.96 161.31C137.395 161.868 137.95 162.321 138.583 162.636C139.217 162.951 139.913 163.12 140.62 163.13C140.859 163.162 141.103 163.135 141.33 163.052C141.556 162.968 141.759 162.83 141.92 162.65C141.971 162.512 141.986 162.363 141.963 162.218C141.94 162.073 141.881 161.936 141.79 161.82C141.358 161.261 140.806 160.807 140.174 160.491C139.542 160.176 138.846 160.008 138.14 160Z" fill="#E6E7E8"/>
<path d="M86.1099 131.21C85.0482 131.193 84.0065 130.919 83.0745 130.41C82.1425 129.902 81.3482 129.174 80.7599 128.29L72.1699 112.9C71.9471 112.568 71.8184 112.181 71.7973 111.782C71.7762 111.382 71.8634 110.984 72.0499 110.63C72.3305 110.24 72.7076 109.931 73.1441 109.731C73.5807 109.531 74.0616 109.448 74.5399 109.49C75.601 109.509 76.6418 109.785 77.5733 110.293C78.5049 110.802 79.2997 111.528 79.8899 112.41L88.4799 127.8C88.699 128.134 88.8248 128.521 88.8441 128.92C88.8635 129.319 88.7757 129.716 88.5899 130.07C88.3136 130.462 87.9387 130.773 87.5032 130.974C87.0677 131.174 86.587 131.255 86.1099 131.21ZM74.5399 110.49C74.2355 110.453 73.9267 110.493 73.6419 110.607C73.3571 110.72 73.1054 110.904 72.9099 111.14C72.8205 111.345 72.7855 111.57 72.8082 111.792C72.831 112.015 72.9108 112.227 73.0399 112.41L81.6299 127.8C82.1356 128.525 82.8046 129.12 83.5827 129.539C84.3609 129.957 85.2265 130.187 86.1099 130.21C86.4119 130.248 86.7187 130.21 87.0019 130.098C87.2851 129.986 87.5355 129.804 87.7299 129.57C87.8221 129.364 87.8586 129.137 87.8358 128.913C87.813 128.688 87.7317 128.473 87.5999 128.29L78.9999 112.9C78.4961 112.178 77.8304 111.584 77.0559 111.166C76.2814 110.747 75.4198 110.516 74.5399 110.49Z" fill="#E6E7E8"/>
<path d="M107.49 164.09C106.449 164.082 105.424 163.831 104.497 163.357C103.57 162.883 102.766 162.199 102.15 161.36L93.5599 147C93.3405 146.699 93.2093 146.344 93.1811 145.973C93.1528 145.602 93.2286 145.23 93.3999 144.9C93.6825 144.505 94.0643 144.192 94.5068 143.992C94.9492 143.791 95.4367 143.712 95.9199 143.76C96.9613 143.767 97.9867 144.017 98.914 144.491C99.8413 144.965 100.645 145.65 101.26 146.49L109.85 160.83C110.082 161.139 110.219 161.508 110.246 161.893C110.272 162.278 110.187 162.662 110 163C109.712 163.384 109.33 163.687 108.889 163.878C108.449 164.069 107.967 164.142 107.49 164.09ZM103 160.85C103.531 161.535 104.21 162.092 104.985 162.479C105.761 162.867 106.613 163.076 107.48 163.09C107.786 163.129 108.096 163.092 108.384 162.982C108.672 162.872 108.928 162.693 109.13 162.46C109.205 162.28 109.232 162.084 109.207 161.891C109.183 161.698 109.108 161.515 108.99 161.36L100.4 147C99.8695 146.314 99.1912 145.756 98.4156 145.369C97.64 144.981 96.787 144.773 95.9199 144.76C95.6143 144.722 95.304 144.759 95.0163 144.869C94.7286 144.979 94.4723 145.158 94.2699 145.39C94.1991 145.571 94.1757 145.767 94.2019 145.959C94.2282 146.152 94.3032 146.335 94.4199 146.49L103 160.85Z" fill="#E6E7E8"/>
<path d="M269.58 179.12C269.493 179.119 269.407 179.096 269.332 179.052C269.256 179.008 269.194 178.946 269.15 178.87L219.87 95.12C219.805 95.0061 219.788 94.8712 219.821 94.7445C219.855 94.6177 219.937 94.5093 220.049 94.4424C220.162 94.3755 220.297 94.3556 220.424 94.3869C220.551 94.4183 220.661 94.4984 220.73 94.61L270 178.36C270.066 178.476 270.084 178.613 270.051 178.742C270.017 178.871 269.934 178.981 269.82 179.05C269.746 179.091 269.664 179.115 269.58 179.12Z" fill="#E6E7E8"/>
<path d="M235.087 102.999C235.52 102.055 234.549 100.683 232.918 99.9344C231.286 99.1858 229.613 99.3439 229.18 100.288C228.747 101.231 229.718 102.603 231.349 103.352C232.981 104.1 234.654 103.942 235.087 102.999Z" fill="#E6E7E8"/>
<path d="M246.42 127.73C246.333 127.729 246.247 127.706 246.172 127.662C246.096 127.618 246.034 127.556 245.99 127.48L234.55 107C234.485 106.883 234.469 106.746 234.506 106.617C234.542 106.489 234.628 106.38 234.745 106.315C234.862 106.25 234.999 106.234 235.128 106.271C235.256 106.307 235.365 106.393 235.43 106.51L246.86 127C246.925 127.115 246.941 127.252 246.905 127.379C246.87 127.507 246.785 127.615 246.67 127.68C246.591 127.715 246.506 127.732 246.42 127.73Z" fill="#E6E7E8"/>
<path d="M72.4899 129.4L70.4899 128.18L71.1599 127.46L74.3999 129.46L75.0699 130.66H67.2999L66.6099 129.43L72.4899 129.4Z" fill="#E6E7E8"/>
<path d="M71.3399 138L69.1899 134.16H70.0999L74.5999 136.56L75.1199 136.84L75.6799 137.09L76.2399 137.27C76.4174 137.309 76.5983 137.329 76.7799 137.33C76.9577 137.337 77.135 137.307 77.2999 137.24C77.4249 137.197 77.5286 137.107 77.5899 136.99C77.6511 136.877 77.6722 136.747 77.6499 136.62C77.6268 136.458 77.5724 136.302 77.4899 136.16C77.3028 135.839 77.038 135.571 76.7199 135.38C76.3817 135.16 75.9994 135.017 75.5999 134.96L75.3299 134.31C75.936 134.386 76.5171 134.598 77.0299 134.93C77.5099 135.224 77.9087 135.633 78.1899 136.12C78.3211 136.334 78.4094 136.572 78.4499 136.82C78.5072 137.009 78.5072 137.211 78.4499 137.4C78.3673 137.579 78.2213 137.722 78.0399 137.8C77.7888 137.912 77.5147 137.964 77.2399 137.95C76.9433 137.949 76.6478 137.912 76.3599 137.84C76.0664 137.769 75.7788 137.676 75.4999 137.56C75.2199 137.45 74.9399 137.32 74.6599 137.18L73.8299 136.73L70.3399 134.82L72.1099 138H71.3399Z" fill="#E6E7E8"/>
<path d="M77.9999 141.91L78.1699 142.22C78.2718 142.402 78.3924 142.573 78.5299 142.73C78.6738 142.891 78.8386 143.032 79.0199 143.15C79.2031 143.278 79.4056 143.376 79.6199 143.44C79.8527 143.514 80.0956 143.551 80.3399 143.55C80.7599 143.55 81.0299 143.45 81.1499 143.25C81.2699 143.06 81.2299 142.78 81.0299 142.43C80.8807 142.163 80.6761 141.931 80.4299 141.75C80.1551 141.547 79.8518 141.385 79.5299 141.27V140.74C80.0047 140.896 80.4506 141.129 80.8499 141.43C81.1953 141.705 81.4839 142.045 81.6999 142.43C81.8192 142.641 81.9005 142.871 81.9399 143.11C81.9712 143.297 81.9432 143.489 81.8599 143.66C81.7687 143.832 81.6201 143.966 81.4399 144.04C81.1906 144.146 80.9204 144.194 80.6499 144.18C80.4339 144.183 80.2185 144.156 80.0099 144.1C79.7894 144.049 79.5749 143.976 79.3699 143.88C79.1617 143.792 78.9638 143.681 78.7799 143.55C78.6097 143.433 78.4492 143.303 78.2999 143.16C78.3446 143.313 78.3446 143.477 78.2999 143.63C78.2612 143.776 78.1771 143.905 78.0599 144C77.9238 144.109 77.7675 144.191 77.5999 144.24C77.3926 144.303 77.1766 144.334 76.9599 144.33C76.6206 144.324 76.284 144.27 75.9599 144.17C75.315 143.985 74.727 143.641 74.2499 143.17C74.0281 142.946 73.8365 142.694 73.6799 142.42C73.4562 142.077 73.3606 141.666 73.4099 141.26C73.4699 140.93 73.7299 140.68 74.1899 140.52L74.7999 141.17C74.6748 141.195 74.5576 141.25 74.4583 141.33C74.3591 141.41 74.2807 141.513 74.2299 141.63C74.2054 141.779 74.2114 141.93 74.2475 142.077C74.2836 142.223 74.3491 142.36 74.4399 142.48C74.5393 142.66 74.6677 142.822 74.8199 142.96C74.9822 143.119 75.1636 143.256 75.3599 143.37C75.5591 143.49 75.7747 143.581 75.9999 143.64C76.22 143.708 76.4494 143.742 76.6799 143.74C76.9106 143.754 77.1411 143.709 77.3499 143.61C77.4892 143.539 77.5964 143.417 77.6499 143.27C77.6947 143.11 77.6947 142.94 77.6499 142.78C77.5941 142.578 77.5134 142.383 77.4099 142.2L77.2599 141.94L77.9999 141.91Z" fill="#E6E7E8"/>
<path d="M80.7298 150.18L81.2198 151.05H80.4898L79.9998 150.18H78.1598L77.8198 149.56H79.6598L78.1998 147H79.0998L85.4898 149.44L85.9298 150.23L80.7298 150.18ZM84.7998 149.56L79.2198 147.47L80.3898 149.57L84.7998 149.56Z" fill="#E6E7E8"/>
<path d="M64.17 133C64.0798 133.001 63.991 132.978 63.9134 132.932C63.8358 132.886 63.7723 132.82 63.73 132.74L60.67 127.27C60.6087 127.153 60.5952 127.016 60.6325 126.89C60.6699 126.763 60.755 126.655 60.87 126.59C60.9854 126.525 61.1218 126.509 61.2492 126.544C61.3767 126.58 61.4849 126.665 61.55 126.78L64.61 132.26C64.6713 132.377 64.6847 132.514 64.6474 132.64C64.6101 132.767 64.525 132.875 64.41 132.94C64.3363 132.98 64.2537 133 64.17 133Z" fill="#E6E7E8"/>
<path d="M172.23 14.24C170.93 8.98999 167.23 3.83999 161.06 5.79999C160.644 5.98204 160.193 6.06752 159.74 6.04999C159.383 5.98159 159.042 5.84217 158.74 5.63999C152.85 2.42999 144.6 4.90999 139.48 8.71999C134.36 12.53 131.15 18.32 125.59 21.12C122.59 22.61 119.26 23.12 116.02 23.86C112.78 24.6 109.47 25.86 107.28 28.32C105.09 30.78 104.46 34.95 106.7 37.41C108.7 39.57 112.14 39.82 114.16 41.94C113.379 41.8885 112.596 42.0123 111.869 42.3025C111.141 42.5927 110.488 43.0419 109.957 43.6171C109.426 44.1923 109.03 44.8791 108.799 45.6271C108.568 46.3751 108.506 47.1653 108.62 47.94C109.18 50.59 111.7 52.29 114.07 53.61C122.42 58.24 131.74 61.61 141.29 61.38C148.517 61.2829 155.486 58.6737 161 54C166.86 48.79 169.22 43.28 171.42 35.81C173.597 28.8188 173.876 21.3747 172.23 14.24Z" fill="white"/>
<path d="M140.25 61.89C132.09 61.89 123.25 59.25 113.83 54.04C111.35 52.66 108.73 50.87 108.13 48.04C107.977 47.1877 108.03 46.3111 108.283 45.4832C108.537 44.6553 108.985 43.8999 109.59 43.28C110.441 42.3363 111.58 41.7001 112.83 41.47C112.014 40.9615 111.153 40.5264 110.26 40.17C108.796 39.6461 107.46 38.8179 106.34 37.74C103.81 34.99 104.67 30.54 106.91 27.99C109.33 25.23 112.99 24.08 115.91 23.38L118.12 22.89C120.616 22.4519 123.048 21.7063 125.36 20.67C128.52 19.09 130.9 16.52 133.42 13.81C135.168 11.8075 137.096 9.96981 139.18 8.32001C144.38 4.45001 152.79 1.83001 158.98 5.21001C159.233 5.37657 159.514 5.49521 159.81 5.56002C160.129 5.567 160.446 5.50563 160.74 5.38002L160.91 5.32001C161.942 4.95121 163.04 4.80422 164.132 4.88866C165.225 4.97309 166.287 5.28705 167.25 5.81002C169.76 7.22002 171.75 10.25 172.71 14.12C174.364 21.3296 174.074 28.8491 171.87 35.91C169.59 43.65 167.14 49.15 161.31 54.33C155.716 59.0814 148.648 61.7461 141.31 61.87L140.25 61.89ZM113.62 42.4C112.992 42.4187 112.375 42.567 111.807 42.8354C111.239 43.1039 110.733 43.4867 110.32 43.96C109.824 44.4637 109.454 45.0782 109.242 45.7528C109.03 46.4275 108.981 47.1429 109.1 47.84C109.62 50.28 112.03 51.9 114.31 53.17C123.94 58.52 132.98 61.17 141.31 60.88C148.415 60.7587 155.258 58.183 160.68 53.59C166.33 48.59 168.68 43.2 170.95 35.59C173.094 28.6967 173.381 21.3594 171.78 14.32C170.88 10.72 169.07 7.92001 166.78 6.64001C165.935 6.18653 165.005 5.91569 164.049 5.84506C163.092 5.77443 162.132 5.90558 161.23 6.23001L161.07 6.29002C160.677 6.47886 160.241 6.55898 159.806 6.52205C159.372 6.48512 158.955 6.33248 158.6 6.08002C152.98 3.01002 144.9 5.28002 139.79 9.08002C137.757 10.6948 135.876 12.4923 134.17 14.45C131.7 17.11 129.17 19.85 125.83 21.52C123.443 22.5985 120.93 23.3713 118.35 23.82L116.16 24.31C113.39 24.97 109.91 26.06 107.67 28.61C105.67 30.83 104.94 34.68 107.09 37.03C108.121 38 109.344 38.7427 110.68 39.21C112.11 39.7291 113.422 40.528 114.54 41.56C114.614 41.6335 114.662 41.7287 114.678 41.8317C114.695 41.9347 114.677 42.0402 114.629 42.1327C114.581 42.2253 114.505 42.3002 114.412 42.3464C114.318 42.3927 114.213 42.408 114.11 42.39C113.947 42.3822 113.783 42.3855 113.62 42.4Z" fill="#231F20"/>
<path d="M125.69 37.42C128.8 36.22 120.5 34.42 113.04 48.36C107.35 59.04 102.46 78.55 102.46 78.55L69.73 87.1L82.27 98.1C82.27 98.1 117.81 91.35 118.45 89.94C119.09 88.53 125.69 37.42 125.69 37.42Z" fill="white"/>
<path d="M82.2698 98.55C82.1582 98.5495 82.051 98.5066 81.9699 98.43L69.4298 87.43C69.3662 87.376 69.3193 87.305 69.2945 87.2253C69.2697 87.1457 69.2681 87.0606 69.2898 86.98C69.308 86.8999 69.3472 86.8262 69.4035 86.7664C69.4598 86.7066 69.531 86.663 69.6098 86.64L102.08 78.17C102.69 75.8 107.34 58.07 112.64 48.17C118.52 37.17 124.77 35.94 126.11 36.17C126.71 36.29 126.8 36.66 126.82 36.82C126.82 37.17 126.61 37.47 126.11 37.71C125.3 44.03 119.52 88.71 118.87 90.09C118.22 91.47 95.7198 95.97 82.3598 98.51L82.2698 98.55ZM70.6798 87.32L82.4099 97.6C95.6699 95.08 116.89 90.73 118.09 89.66C118.53 88.46 122.61 57.72 125.24 37.36C125.252 37.251 125.306 37.1508 125.39 37.08C125.077 37.1095 124.769 37.1732 124.47 37.27C123.08 37.67 118.19 39.68 113.47 48.58C107.87 59.08 102.98 78.47 102.93 78.66C102.911 78.7404 102.871 78.814 102.812 78.8724C102.754 78.9307 102.68 78.9715 102.6 78.99L70.6798 87.32Z" fill="#231F20"/>
<path d="M172.6 45.07C172.06 44 132.8 28.35 120.21 38C107.62 47.65 113.21 97.25 113.21 97.25L168.27 105.57C168.27 105.57 187.25 74.18 172.6 45.07Z" fill="#1CC06D"/>
<path d="M137.27 43.87C137.27 43.87 126.45 90.65 126.36 91.06C126.27 91.47 139.87 96.56 140.36 95.95C140.85 95.34 151.24 50.56 151.24 50.56L138.8 45.14" fill="#231F20"/>
<path d="M140.23 96.42C137.53 96.42 126.69 91.85 126.57 91.8C126.2 91.61 125.78 91.4 125.88 90.95C125.98 90.5 136.34 45.66 136.78 43.75C136.811 43.6216 136.891 43.5106 137.004 43.4413C137.116 43.372 137.251 43.3499 137.38 43.38C137.508 43.4109 137.619 43.4913 137.689 43.6037C137.758 43.7161 137.78 43.8514 137.75 43.98C137.65 44.43 127.85 86.82 126.92 90.86C128.58 91.76 138.39 95.38 140.07 95.5C140.8 93.32 146.74 67.99 150.7 50.85L138.64 45.6C138.58 45.5737 138.525 45.5358 138.479 45.4884C138.433 45.4411 138.397 45.3851 138.373 45.3238C138.349 45.2625 138.337 45.1971 138.338 45.1312C138.34 45.0654 138.354 45.0004 138.38 44.94C138.406 44.8796 138.444 44.8249 138.492 44.7792C138.539 44.7334 138.595 44.6974 138.656 44.6733C138.717 44.6492 138.783 44.6373 138.849 44.6385C138.915 44.6396 138.98 44.6537 139.04 44.68L151.48 50.1C151.587 50.1463 151.673 50.2291 151.725 50.3335C151.776 50.4379 151.789 50.5572 151.76 50.67C147.89 67.44 141.32 95.67 140.76 96.28C140.607 96.391 140.418 96.4409 140.23 96.42Z" fill="#231F20"/>
<path d="M153.93 42L151 51.33C151 51.33 148.47 55.22 142.66 51.84C136.85 48.46 137.23 43.84 137.23 43.84L143.23 26.61C143.23 26.61 154.6 24.33 156.23 13.85C156.759 16.5505 158.106 19.0228 160.088 20.9316C162.07 22.8404 164.591 24.0932 167.31 24.52C167.31 24.52 164.74 33.52 162.53 38.17C160.32 42.82 153.93 42 153.93 42Z" fill="white"/>
<path d="M147.08 53.71C145.436 53.6527 143.837 53.1554 142.45 52.27C136.45 48.76 136.75 44.03 136.77 43.83C136.76 43.7873 136.76 43.7427 136.77 43.7L142.77 26.47C142.796 26.3878 142.845 26.3145 142.91 26.2581C142.975 26.2016 143.055 26.1642 143.14 26.15C143.25 26.15 154.14 23.81 155.77 13.8C155.789 13.6834 155.848 13.5772 155.938 13.5004C156.028 13.4235 156.142 13.3808 156.26 13.38C156.379 13.3805 156.495 13.4228 156.586 13.4995C156.677 13.5762 156.739 13.6826 156.76 13.8C157.253 16.4045 158.544 18.7912 160.454 20.6295C162.364 22.4677 164.798 23.6666 167.42 24.06C167.489 24.069 167.556 24.0934 167.615 24.1315C167.674 24.1696 167.723 24.2203 167.76 24.28C167.799 24.3398 167.825 24.4075 167.835 24.4784C167.846 24.5492 167.841 24.6214 167.82 24.69C166.504 29.359 164.897 33.9412 163.01 38.41C161.01 42.65 155.77 42.63 154.24 42.52L151.48 51.52L151.42 51.64C150.907 52.298 150.247 52.8276 149.494 53.1868C148.741 53.5461 147.914 53.7252 147.08 53.71ZM137.76 44C137.76 44.54 137.76 48.44 142.96 51.45C147.96 54.35 150.28 51.56 150.58 51.15L153.45 41.88C153.484 41.7674 153.557 41.6706 153.656 41.6066C153.755 41.5426 153.873 41.5154 153.99 41.53C154.05 41.53 160.13 42.25 162.15 38.02C163.954 33.7885 165.487 29.4463 166.74 25.02C164.37 24.5685 162.161 23.4981 160.338 21.9175C158.515 20.3369 157.143 18.3023 156.36 16.02C153.93 24.22 145.36 26.75 143.66 27.17L137.76 44Z" fill="#231F20"/>
<path d="M151.51 20.52L132.72 27.02L133.62 29.13L152.19 23.12L151.51 20.52Z" fill="#231F20"/>
<path d="M133.62 29.62C133.524 29.6197 133.43 29.591 133.35 29.5377C133.27 29.4844 133.207 29.4086 133.17 29.32L132.26 27.21C132.231 27.1491 132.216 27.0825 132.216 27.015C132.216 26.9475 132.231 26.8808 132.26 26.82C132.286 26.7569 132.326 26.7002 132.376 26.6537C132.426 26.6071 132.485 26.5718 132.55 26.55L151.35 20C151.413 19.973 151.481 19.9591 151.55 19.9591C151.619 19.9591 151.687 19.973 151.75 20C151.81 20.0313 151.862 20.0753 151.904 20.1288C151.945 20.1823 151.975 20.2441 151.99 20.31L152.67 22.91C152.704 23.0333 152.689 23.1651 152.627 23.2772C152.566 23.3893 152.462 23.4729 152.34 23.51L133.78 29.51C133.736 29.5581 133.681 29.5957 133.62 29.62ZM133.38 27.31L133.9 28.51L151.59 22.79L151.17 21.16L133.38 27.31Z" fill="#231F20"/>
<path d="M146.39 27C146.427 26.078 146.172 25.1679 145.66 24.4C145.14 23.7122 144.508 23.1171 143.79 22.64C143.428 22.3408 143.005 22.1256 142.55 22.01C142.216 21.9634 141.876 21.9838 141.55 22.07C140.77 22.1958 140.06 22.5967 139.55 23.2C139.222 23.7458 139.033 24.364 139 25C138.88 25.6596 138.85 26.3323 138.91 27C138.985 27.6814 139.196 28.341 139.529 28.9402C139.862 29.5393 140.311 30.0661 140.85 30.4897C141.39 30.9133 142.008 31.2253 142.669 31.4073C143.33 31.5894 144.02 31.6379 144.7 31.55" fill="white"/>
<path d="M144 32.12C142.725 32.1181 141.487 31.6924 140.48 30.91C139.892 30.4443 139.403 29.8671 139.039 29.2116C138.675 28.556 138.444 27.835 138.36 27.09C138.284 26.3628 138.314 25.6284 138.45 24.91C138.514 24.1957 138.755 23.5086 139.15 22.91C139.727 22.2108 140.536 21.7423 141.43 21.59C141.816 21.4955 142.216 21.4751 142.61 21.53C143.145 21.6547 143.645 21.9011 144.07 22.25C144.838 22.7588 145.515 23.3945 146.07 24.13C146.652 24.9854 146.939 26.0067 146.89 27.04C146.889 27.1066 146.874 27.1723 146.846 27.2329C146.818 27.2934 146.778 27.3475 146.729 27.3917C146.679 27.436 146.62 27.4693 146.557 27.4897C146.493 27.51 146.426 27.5169 146.36 27.51C146.295 27.5075 146.231 27.4919 146.171 27.4642C146.112 27.4366 146.059 27.3974 146.016 27.3489C145.972 27.3005 145.938 27.2438 145.917 27.1821C145.895 27.1205 145.886 27.0552 145.89 26.99C145.929 26.1762 145.7 25.3722 145.24 24.7C144.757 24.0588 144.169 23.5042 143.5 23.06C143.206 22.8127 142.866 22.6258 142.5 22.51C142.235 22.4789 141.967 22.4993 141.71 22.57C141.055 22.68 140.459 23.0119 140.02 23.51C139.723 23.9737 139.541 24.5017 139.49 25.05C139.378 25.6802 139.351 26.3226 139.41 26.96C139.478 27.5756 139.668 28.1714 139.969 28.7127C140.27 29.254 140.676 29.7299 141.162 30.1125C141.649 30.4952 142.208 30.777 142.805 30.9414C143.402 31.1058 144.026 31.1495 144.64 31.07C144.772 31.0583 144.903 31.0973 145.007 31.1791C145.111 31.2608 145.18 31.3792 145.2 31.51C145.214 31.6423 145.176 31.7749 145.094 31.8795C145.012 31.9841 144.892 32.0525 144.76 32.07C144.508 32.1043 144.254 32.121 144 32.12Z" fill="#231F20"/>
<path d="M159.36 27.67C159.36 27.67 161.36 33.48 160.36 34.13C159.36 34.78 157.3 33.64 157.3 33.64" fill="white"/>
<path d="M159.57 34.83C158.685 34.7694 157.824 34.5132 157.05 34.08C156.935 34.0149 156.85 33.9067 156.814 33.7793C156.779 33.6518 156.795 33.5154 156.86 33.4C156.925 33.2848 157.033 33.2001 157.161 33.1645C157.288 33.1288 157.424 33.1452 157.54 33.21C158.13 33.53 159.54 34.08 160.09 33.71C160.38 33.31 159.83 30.56 158.88 27.83C158.838 27.7053 158.848 27.5693 158.906 27.4514C158.964 27.3335 159.066 27.2432 159.19 27.2C159.316 27.1582 159.453 27.1672 159.573 27.2251C159.692 27.2829 159.785 27.3852 159.83 27.51C160.83 30.33 161.74 33.84 160.63 34.51C160.315 34.7174 159.947 34.8286 159.57 34.83Z" fill="#231F20"/>
<path d="M157.282 24.947C157.527 24.3369 157.372 23.7008 156.936 23.5263C156.5 23.3518 155.949 23.705 155.704 24.3151C155.46 24.9252 155.615 25.5613 156.051 25.7358C156.487 25.9103 157.038 25.5571 157.282 24.947Z" fill="#231F20"/>
<path d="M163.124 26.9337C163.434 26.3543 163.35 25.7049 162.936 25.4834C162.522 25.2618 161.935 25.552 161.625 26.1314C161.315 26.7108 161.399 27.3601 161.813 27.5817C162.227 27.8032 162.814 27.5131 163.124 26.9337Z" fill="#231F20"/>
<path d="M159.45 36.65C159.45 36.65 149.93 38.65 151.11 30.84L159.45 36.65Z" fill="white"/>
<path d="M157 37.38C155.173 37.4916 153.37 36.9215 151.94 35.78C150.74 34.64 150.3 32.95 150.63 30.78C150.64 30.7144 150.662 30.6513 150.697 30.5944C150.731 30.5375 150.776 30.4879 150.829 30.4484C150.883 30.409 150.943 30.3804 151.008 30.3644C151.072 30.3483 151.139 30.3452 151.205 30.355C151.271 30.3649 151.334 30.3876 151.39 30.4218C151.447 30.456 151.497 30.5011 151.536 30.5545C151.576 30.6079 151.604 30.6685 151.62 30.733C151.637 30.7974 151.64 30.8644 151.63 30.93C151.35 32.78 151.69 34.17 152.63 35.08C154.76 37.08 159.32 36.19 159.36 36.18C159.424 36.1655 159.491 36.1641 159.556 36.176C159.621 36.1879 159.683 36.2128 159.738 36.2492C159.793 36.2856 159.84 36.3328 159.877 36.388C159.913 36.4431 159.938 36.505 159.95 36.57C159.965 36.6338 159.966 36.6998 159.955 36.7642C159.944 36.8286 159.92 36.8902 159.884 36.9451C159.849 37.0001 159.803 37.0475 159.749 37.0844C159.695 37.1213 159.634 37.147 159.57 37.16C158.722 37.314 157.862 37.3876 157 37.38Z" fill="#231F20"/>
<path d="M151.51 20.52L155.75 20.55L152.19 23.12" fill="white"/>
<path d="M152.19 23.62C152.11 23.6188 152.032 23.5993 151.96 23.5629C151.889 23.5264 151.828 23.4741 151.78 23.41C151.742 23.3563 151.714 23.2954 151.7 23.2311C151.685 23.1667 151.683 23.1001 151.694 23.035C151.705 22.9699 151.729 22.9077 151.765 22.8519C151.8 22.7961 151.846 22.7479 151.9 22.71L154.22 21H151.51C151.376 20.9974 151.249 20.9425 151.156 20.8471C151.062 20.7518 151.01 20.6235 151.01 20.49C151.013 20.3591 151.066 20.2345 151.16 20.1429C151.253 20.0513 151.379 20 151.51 20H155.74C155.873 19.9655 156.013 19.9851 156.132 20.0545C156.25 20.1239 156.336 20.2374 156.37 20.37C156.404 20.5026 156.385 20.6435 156.315 20.7616C156.246 20.8798 156.133 20.9655 156 21L152.44 23.56C152.364 23.6033 152.277 23.6242 152.19 23.62Z" fill="#231F20"/>
<path d="M153.93 42C153.93 42 149.11 40.39 147.31 38.33C147.31 38.33 147.31 44.45 152.1 47.59L153.93 42Z" fill="#231F20"/>
<path d="M152.1 48.08C152.001 48.078 151.905 48.0505 151.82 48C146.89 44.75 146.82 38.58 146.82 38.32C146.821 38.2201 146.853 38.123 146.91 38.041C146.967 37.959 147.047 37.896 147.14 37.86C147.234 37.8222 147.337 37.8144 147.436 37.8377C147.534 37.861 147.623 37.9142 147.69 37.99C149.38 39.93 154.05 41.5 154.09 41.51C154.214 41.5534 154.317 41.6432 154.377 41.7606C154.436 41.878 154.448 42.014 154.41 42.14L152.58 47.73C152.557 47.8041 152.517 47.8717 152.464 47.9273C152.41 47.9829 152.343 48.025 152.27 48.05C152.216 48.0709 152.158 48.0811 152.1 48.08ZM147.92 39.56C148.267 42.3733 149.664 44.9519 151.83 46.78L153.3 42.29C151.393 41.6248 149.583 40.7066 147.92 39.56Z" fill="#231F20"/>
<path d="M97.4599 112.04L122.1 101.44L82.2899 82.65L50.9199 93.75L97.4599 112.04Z" fill="white"/>
<path d="M97.4599 112.5C97.407 112.51 97.3528 112.51 97.2999 112.5L50.7599 94.2C50.6716 94.1693 50.5951 94.1119 50.541 94.0357C50.4869 93.9596 50.4578 93.8684 50.4578 93.775C50.4578 93.6816 50.4869 93.5904 50.541 93.5143C50.5951 93.4381 50.6716 93.3807 50.7599 93.35L82.1299 82.25C82.2422 82.2049 82.3675 82.2049 82.4799 82.25L122.29 101C122.371 101.035 122.44 101.094 122.486 101.169C122.533 101.244 122.555 101.332 122.55 101.42C122.549 101.507 122.524 101.592 122.476 101.665C122.428 101.738 122.36 101.795 122.28 101.83L97.6399 112.43C97.5871 112.469 97.525 112.493 97.4599 112.5ZM52.2299 93.77L97.4599 111.55L121 101.42L82.2799 83.15L52.2299 93.77Z" fill="#231F20"/>
<path d="M163.82 48.46C163.82 48.46 155.06 92.46 151.76 92.39C148.46 92.32 109.36 87.16 107.09 87.11C104.82 87.06 98.6699 88.19 96.9899 89.59C95.3099 90.99 91.1899 97.76 92.9899 98.05C94.7899 98.34 99.2799 99.31 100.84 99.24C102.4 99.17 105.97 96.24 105.97 96.24C105.97 96.24 104.04 99.77 106.12 99.8C108.2 99.83 113.12 97.19 113.12 97.19C113.12 97.19 156.63 115.95 164.86 109.32C173.09 102.69 179.55 83.05 179.36 65.63C179.17 48.21 168.54 40.07 163.82 48.46Z" fill="white"/>
<path d="M159.07 111.21C145.07 111.21 116.22 99.03 113.19 97.73C112.19 98.23 108.13 100.3 106.19 100.3C105.95 100.315 105.711 100.264 105.497 100.153C105.284 100.042 105.105 99.8752 104.98 99.67C104.719 99.0289 104.719 98.3111 104.98 97.67C103.75 98.55 101.98 99.67 100.98 99.67C98.9337 99.5452 96.9006 99.2576 94.9 98.81L93.03 98.47C92.8439 98.4432 92.6701 98.3613 92.5311 98.2347C92.392 98.1081 92.2941 97.9428 92.25 97.76C91.74 95.9 95.4 90.38 96.81 89.21C98.58 87.73 104.81 86.56 107.21 86.62C108.21 86.62 116.13 87.62 125.29 88.78C136.89 90.24 150.04 91.88 151.87 91.9C153.8 91.42 159.29 69.37 163.48 48.34C163.474 48.2935 163.474 48.2465 163.48 48.2C165.06 45.4 167.48 44.2 170.03 44.83C174.85 46.06 179.8 53.61 179.93 65.63C180.12 83.25 173.54 103.01 165.25 109.68C163.89 110.77 161.75 111.21 159.07 111.21ZM113.17 96.77C113.229 96.756 113.291 96.756 113.35 96.77C113.46 96.77 124.35 101.49 136.1 105.31C151.52 110.31 161.38 111.57 164.62 108.96C172.71 102.45 179.14 83.01 178.95 65.63C178.83 54.19 174.12 46.82 169.74 45.7C167.58 45.15 165.63 46.17 164.25 48.58C164.06 49.58 161.94 60.09 159.47 70.5C154.18 92.83 152.52 92.79 151.75 92.8C149.87 92.8 136.69 91.14 125.06 89.68C116.31 88.58 108.06 87.55 107.06 87.53C104.72 87.43 98.75 88.67 97.27 89.9C96.01 90.96 93.15 95.44 93 97.22C92.9692 97.3278 92.9692 97.4422 93 97.55L94.92 97.9C96.8561 98.3107 98.8169 98.5946 100.79 98.75C101.94 98.75 104.69 96.66 105.65 95.88C105.733 95.8151 105.835 95.7799 105.94 95.7799C106.045 95.7799 106.147 95.8151 106.23 95.88C106.313 95.9467 106.369 96.0406 106.389 96.1449C106.409 96.2492 106.392 96.3573 106.34 96.45C105.9 97.27 105.34 98.69 105.66 99.17C105.66 99.17 105.76 99.34 106.09 99.34C107.72 99.34 111.54 97.5 112.89 96.78C112.98 96.75 113.078 96.7466 113.17 96.77Z" fill="#231F20"/>
<path d="M97.46 112C96.97 109.1 92.6 67 92.6 67L43.73 49.56L50.93 93.75L97.46 112Z" fill="white"/>
<path d="M97.46 112.5C97.4071 112.51 97.3529 112.51 97.3 112.5L50.76 94.2C50.686 94.1709 50.6206 94.1236 50.5699 94.0624C50.5191 94.0012 50.4848 93.9281 50.47 93.85L43.28 49.67C43.2704 49.5908 43.2799 49.5104 43.3078 49.4356C43.3356 49.3607 43.3809 49.2937 43.44 49.24C43.5029 49.1911 43.5767 49.1583 43.6551 49.1443C43.7335 49.1304 43.8141 49.1358 43.89 49.16L92.76 66.62C92.8398 66.6502 92.9098 66.7015 92.9627 66.7684C93.0155 66.8353 93.0492 66.9154 93.06 67C93.06 67.42 97.43 109.14 97.91 112C97.9243 112.079 97.9171 112.161 97.8889 112.237C97.8608 112.313 97.8128 112.379 97.75 112.43C97.6632 112.484 97.5616 112.508 97.46 112.5ZM51.33 93.42L96.9 111.33C96.11 105.18 92.57 71.14 92.18 67.33L44.31 50.23L51.33 93.42Z" fill="#231F20"/>
<path d="M75.2501 84.27C75.2567 82.4275 74.803 80.6126 73.9301 78.99C73.4117 77.9247 72.5998 77.0296 71.5901 76.41C71.0862 76.1042 70.5112 75.935 69.922 75.9192C69.3328 75.9035 68.7496 76.0416 68.2301 76.32C67.4599 76.85 66.8923 77.6256 66.6201 78.52C66.2454 79.5426 66.0962 80.634 66.1825 81.7197C66.2688 82.8053 66.5886 83.8594 67.1201 84.81C69.0701 88.1 75.2401 89.72 75.2501 84.27Z" fill="white"/>
<path d="M72.2399 88.29C71.1276 88.2325 70.0456 87.9069 69.0862 87.341C68.1268 86.7751 67.3184 85.9857 66.7299 85.04C66.1653 84.0324 65.8256 82.9145 65.7341 81.7631C65.6426 80.6117 65.8015 79.4541 66.1999 78.37C66.494 77.3729 67.1271 76.5099 67.9899 75.93C68.5807 75.6108 69.2442 75.4503 69.9155 75.4644C70.5868 75.4784 71.243 75.6664 71.8199 76.01C72.8996 76.6755 73.7696 77.6322 74.3299 78.77C75.2414 80.4596 75.7158 82.3503 75.7099 84.27C75.7099 87.08 74.1799 87.91 73.2699 88.16C72.9332 88.2451 72.5873 88.2887 72.2399 88.29ZM69.7599 76.37C69.3043 76.3675 68.856 76.4847 68.4599 76.71C67.7767 77.1975 67.2795 77.9027 67.0499 78.71C66.6926 79.6681 66.5495 80.6928 66.6307 81.7121C66.7119 82.7314 67.0154 83.7206 67.5199 84.61C68.6299 86.5 71.2599 87.78 73.0299 87.3C74.1799 86.99 74.7899 85.95 74.7999 84.3C74.7981 82.5347 74.3619 80.797 73.5299 79.24C73.0502 78.2526 72.3015 77.4207 71.3699 76.84C70.8825 76.5477 70.3281 76.3858 69.7599 76.37Z" fill="#231F20"/>
<path d="M70.2 79.64C70.3 79.69 70.59 82.69 70.59 82.69L72.69 80.82" fill="white"/>
<path d="M70.5901 83.14H70.4201C70.3414 83.1109 70.273 83.0594 70.2233 82.9918C70.1735 82.9243 70.1446 82.8437 70.1401 82.76C70.0201 81.55 69.8601 80.17 69.7901 79.88C69.7577 79.8183 69.7407 79.7497 69.7407 79.68C69.7407 79.6103 69.7577 79.5417 69.7901 79.48C69.8148 79.426 69.85 79.3774 69.8937 79.3371C69.9373 79.2967 69.9885 79.2654 70.0442 79.245C70.1 79.2245 70.1593 79.2153 70.2187 79.2179C70.278 79.2205 70.3363 79.2348 70.3901 79.26C70.6401 79.38 70.7201 79.41 70.9601 81.78L72.3901 80.51C72.4319 80.4677 72.4818 80.4341 72.5367 80.4111C72.5916 80.3882 72.6505 80.3764 72.7101 80.3764C72.7696 80.3764 72.8285 80.3882 72.8835 80.4111C72.9384 80.4341 72.9882 80.4677 73.0301 80.51C73.1132 80.5958 73.1596 80.7106 73.1596 80.83C73.1596 80.9494 73.1132 81.0642 73.0301 81.15L70.9001 83C70.8158 83.0808 70.7064 83.1302 70.5901 83.14Z" fill="#231F20"/>
<path d="M92.2099 0.970001H46.1699V40.06H92.2099V0.970001Z" fill="white"/>
<path d="M92.21 40.56H46.21C46.0774 40.56 45.9502 40.5073 45.8564 40.4136C45.7626 40.3198 45.71 40.1926 45.71 40.06V1C45.71 0.867392 45.7626 0.740214 45.8564 0.646446C45.9502 0.552678 46.0774 0.5 46.21 0.5H92.21C92.3426 0.5 92.4697 0.552678 92.5635 0.646446C92.6573 0.740214 92.71 0.867392 92.71 1V40.06C92.71 40.1926 92.6573 40.3198 92.5635 40.4136C92.4697 40.5073 92.3426 40.56 92.21 40.56ZM46.67 39.56H91.67V1.47H46.67V39.56Z" fill="#231F20"/>
<path d="M34.9498 31H7.58984V55.71H34.9498V31Z" fill="white"/>
<path d="M34.9998 56.21H7.58984C7.45724 56.21 7.33006 56.1573 7.23629 56.0636C7.14252 55.9698 7.08984 55.8426 7.08984 55.71V31C7.0924 30.8682 7.14591 30.7425 7.23912 30.6493C7.33234 30.5561 7.45804 30.5026 7.58984 30.5H34.9998C35.1325 30.5 35.2596 30.5527 35.3534 30.6464C35.4472 30.7402 35.4998 30.8674 35.4998 31V55.71C35.4998 55.8426 35.4472 55.9698 35.3534 56.0636C35.2596 56.1573 35.1325 56.21 34.9998 56.21ZM8.13984 55.21H34.4498V31.5H8.08984L8.13984 55.21Z" fill="#231F20"/>
<path d="M30.8899 37.81H12.8899C12.7573 37.81 12.6301 37.7573 12.5363 37.6636C12.4426 37.5698 12.3899 37.4426 12.3899 37.31C12.3899 37.1774 12.4426 37.0502 12.5363 36.9564C12.6301 36.8627 12.7573 36.81 12.8899 36.81H30.8899C31.0225 36.81 31.1497 36.8627 31.2434 36.9564C31.3372 37.0502 31.3899 37.1774 31.3899 37.31C31.3899 37.4426 31.3372 37.5698 31.2434 37.6636C31.1497 37.7573 31.0225 37.81 30.8899 37.81Z" fill="#E6E7E8"/>
<path d="M30.8899 43.34H12.8899C12.7573 43.34 12.6301 43.2873 12.5363 43.1936C12.4426 43.0998 12.3899 42.9726 12.3899 42.84C12.3899 42.7074 12.4426 42.5802 12.5363 42.4865C12.6301 42.3927 12.7573 42.34 12.8899 42.34H30.8899C31.0225 42.34 31.1497 42.3927 31.2434 42.4865C31.3372 42.5802 31.3899 42.7074 31.3899 42.84C31.3899 42.9726 31.3372 43.0998 31.2434 43.1936C31.1497 43.2873 31.0225 43.34 30.8899 43.34Z" fill="#E6E7E8"/>
<path d="M27.3199 48.87H12.8599C12.7273 48.87 12.6001 48.8173 12.5063 48.7235C12.4125 48.6298 12.3599 48.5026 12.3599 48.37C12.3599 48.2374 12.4125 48.1102 12.5063 48.0164C12.6001 47.9227 12.7273 47.87 12.8599 47.87H27.3199C27.4525 47.87 27.5796 47.9227 27.6734 48.0164C27.7672 48.1102 27.8199 48.2374 27.8199 48.37C27.8199 48.5026 27.7672 48.6298 27.6734 48.7235C27.5796 48.8173 27.4525 48.87 27.3199 48.87Z" fill="#E6E7E8"/>
<path d="M62.1099 37.11C61.9773 37.11 61.8501 37.0573 61.7563 36.9636C61.6625 36.8698 61.6099 36.7426 61.6099 36.61V4.16C61.6099 4.0274 61.6625 3.90022 61.7563 3.80645C61.8501 3.71268 61.9773 3.66 62.1099 3.66C62.2417 3.66256 62.3674 3.71607 62.4606 3.80928C62.5538 3.9025 62.6073 4.0282 62.6099 4.16V36.61C62.6099 36.7426 62.5572 36.8698 62.4634 36.9636C62.3696 37.0573 62.2425 37.11 62.1099 37.11Z" fill="#E6E7E8"/>
<path d="M59.0001 9.82001H50.3101C50.1775 9.82001 50.0503 9.76733 49.9565 9.67356C49.8627 9.57979 49.8101 9.45262 49.8101 9.32001C49.8126 9.1882 49.8661 9.06251 49.9593 8.96929C50.0526 8.87607 50.1783 8.82257 50.3101 8.82001H59.0001C59.1327 8.82001 59.2598 8.87269 59.3536 8.96645C59.4474 9.06022 59.5001 9.1874 59.5001 9.32001C59.5001 9.45262 59.4474 9.57979 59.3536 9.67356C59.2598 9.76733 59.1327 9.82001 59.0001 9.82001Z" fill="#E6E7E8"/>
<path d="M59.0001 15.48H50.3101C50.1783 15.4775 50.0526 15.4239 49.9593 15.3307C49.8661 15.2375 49.8126 15.1118 49.8101 14.98C49.8101 14.8474 49.8627 14.7202 49.9565 14.6265C50.0503 14.5327 50.1775 14.48 50.3101 14.48H59.0001C59.1327 14.48 59.2598 14.5327 59.3536 14.6265C59.4474 14.7202 59.5001 14.8474 59.5001 14.98C59.5001 15.1126 59.4474 15.2398 59.3536 15.3336C59.2598 15.4273 59.1327 15.48 59.0001 15.48Z" fill="#E6E7E8"/>
<path d="M59.0001 21.13H50.3101C50.1775 21.13 50.0503 21.0773 49.9565 20.9836C49.8627 20.8898 49.8101 20.7626 49.8101 20.63C49.8101 20.4974 49.8627 20.3702 49.9565 20.2765C50.0503 20.1827 50.1775 20.13 50.3101 20.13H59.0001C59.1327 20.13 59.2598 20.1827 59.3536 20.2765C59.4474 20.3702 59.5001 20.4974 59.5001 20.63C59.5001 20.7626 59.4474 20.8898 59.3536 20.9836C59.2598 21.0773 59.1327 21.13 59.0001 21.13Z" fill="#E6E7E8"/>
<path d="M59.0001 26.78H50.3101C50.1775 26.78 50.0503 26.7273 49.9565 26.6336C49.8627 26.5398 49.8101 26.4126 49.8101 26.28C49.8126 26.1482 49.8661 26.0225 49.9593 25.9293C50.0526 25.8361 50.1783 25.7826 50.3101 25.78H59.0001C59.1327 25.78 59.2598 25.8327 59.3536 25.9264C59.4474 26.0202 59.5001 26.1474 59.5001 26.28C59.5001 26.4126 59.4474 26.5398 59.3536 26.6336C59.2598 26.7273 59.1327 26.78 59.0001 26.78Z" fill="#E6E7E8"/>
<path d="M59.0001 32.43H50.3101C50.1775 32.43 50.0503 32.3773 49.9565 32.2835C49.8627 32.1898 49.8101 32.0626 49.8101 31.93C49.8126 31.7982 49.8661 31.6725 49.9593 31.5793C50.0526 31.4861 50.1783 31.4326 50.3101 31.43H59.0001C59.1327 31.43 59.2598 31.4827 59.3536 31.5764C59.4474 31.6702 59.5001 31.7974 59.5001 31.93C59.5001 32.0626 59.4474 32.1898 59.3536 32.2835C59.2598 32.3773 59.1327 32.43 59.0001 32.43Z" fill="#E6E7E8"/>
<path d="M87.77 8.25H66.99V22.61H87.77V8.25Z" fill="white"/>
<path d="M87.77 23.12H67C66.8674 23.12 66.7402 23.0673 66.6464 22.9736C66.5527 22.8798 66.5 22.7526 66.5 22.62V8.25C66.5 8.11739 66.5527 7.99021 66.6464 7.89645C66.7402 7.80268 66.8674 7.75 67 7.75H87.77C87.9026 7.75 88.0298 7.80268 88.1236 7.89645C88.2173 7.99021 88.27 8.11739 88.27 8.25V22.62C88.27 22.7526 88.2173 22.8798 88.1236 22.9736C88.0298 23.0673 87.9026 23.12 87.77 23.12ZM67.5 22.12H87.27V8.75H67.5V22.12Z" fill="#E6E7E8"/>
</svg>
