<svg width="45" height="45" viewBox="0 0 45 45" fill="none" xmlns="http://www.w3.org/2000/svg">
<g clip-path="url(#clip0)">
<path d="M22.5 45C34.9264 45 45 34.9264 45 22.5C45 10.0736 34.9264 0 22.5 0C10.0736 0 0 10.0736 0 22.5C0 34.9264 10.0736 45 22.5 45Z" fill="#78BAEB"/>
<path d="M22.5001 0C21.5054 0 20.526 0.0653906 19.5653 0.190459C30.605 1.62861 39.1305 11.0683 39.1305 22.5C39.1305 33.9317 30.6049 43.3714 19.5652 44.8095C20.526 44.9346 21.5054 45 22.5001 45C34.9265 45 45.0001 34.9263 45.0001 22.5C45.0001 10.0737 34.9265 0 22.5001 0Z" fill="#59AAE7"/>
<path d="M18.1218 35.2663C16.0553 35.2663 14.0303 34.8945 12.1028 34.1615L10.1928 33.4351C9.98386 33.3556 10.0128 33.0514 10.2329 33.0128L12.2457 32.6594C14.1105 32.3319 15.8739 31.5726 17.3853 30.4515C17.5447 30.3332 17.4805 30.0843 17.2841 30.0554C15.5241 29.7973 13.944 28.733 13.0575 27.1714L12.6056 26.3755C12.5246 26.2328 12.6227 26.0549 12.7864 26.0471L13.7006 26.0033C13.7037 26.0032 13.7066 26.0031 13.7098 26.0028C13.9394 25.9915 13.9942 25.6789 13.7855 25.5823C12.1108 24.8071 10.8977 23.2503 10.586 21.3862L10.4467 20.553C10.4208 20.398 10.561 20.2666 10.7139 20.3024L11.5364 20.4951C11.9741 20.5976 12.4267 20.6497 12.8815 20.6497C12.8869 20.6497 12.8923 20.6497 12.8977 20.6497C11.1438 19.5263 10.1018 17.6277 10.1018 15.5379C10.1018 15.0181 10.167 14.504 10.2958 14.0097L10.5417 13.0652C10.5844 12.9011 10.7889 12.845 10.9094 12.9641L11.6034 13.6504C13.4365 15.4629 15.6873 16.8581 18.113 17.6855C18.7552 17.8892 20.7029 18.4417 21.3773 18.4445L21.3939 18.4446C21.3963 18.4446 21.5909 18.4517 21.7172 18.4576C21.7164 18.4221 21.7158 18.3865 21.7158 18.3509C21.7158 14.6782 24.7038 11.6902 28.3766 11.6902C30.1303 11.6902 31.7769 12.362 33.0285 13.5853C33.078 13.6336 33.1468 13.6571 33.2152 13.6468C33.8588 13.5491 34.4992 13.3951 35.115 13.1888L37.1685 12.5008C37.3837 12.4287 37.5538 12.69 37.4011 12.8576L35.9421 14.458C35.7477 14.6712 35.5389 14.8697 35.3169 15.0522C35.1411 15.1968 35.2718 15.4811 35.4955 15.4391C35.6944 15.4019 35.8921 15.3597 36.0877 15.3127L37.9714 14.8608C38.1857 14.8095 38.334 15.0697 38.1807 15.2279L36.8322 16.6185C36.2862 17.1816 35.6809 17.6983 35.0328 18.1545L35.0338 18.1863C35.0358 18.241 35.0374 18.2958 35.0374 18.3509V18.4173C34.9994 27.7093 27.411 35.2663 18.1218 35.2663Z" fill="#FCFCFC"/>
</g>
<defs>
<clipPath id="clip0">
<rect width="45" height="45" fill="white"/>
</clipPath>
</defs>
</svg>
